<svg width="100" height="100" viewBox="0 0 100 100" fill="none" xmlns="http://www.w3.org/2000/svg">
<path d="M77.3203 1.75195H22.6778C20.8887 1.75195 19.1729 2.46072 17.9047 3.72266C16.6367 4.98455 15.9203 6.69727 15.9127 8.48652V91.5119C15.9127 93.3064 16.6253 95.0268 17.8942 96.2955C19.163 97.5643 20.8834 98.2769 22.6778 98.2769H77.3203C79.1148 98.2769 80.8352 97.5644 82.1039 96.2955C83.3727 95.0266 84.0854 93.3063 84.0854 91.5119V8.48652C84.0778 6.69742 83.3614 4.98457 82.0934 3.72266C80.8254 2.46076 79.1096 1.75195 77.3203 1.75195ZM40.3438 7.39472H59.6545C60.1466 7.39472 60.5311 8.11723 60.5311 9.02438C60.5311 9.93152 60.1466 10.654 59.6545 10.654L40.3438 10.6548C39.8517 10.6548 39.4672 9.93229 39.4672 9.02514C39.4672 8.11801 39.8517 7.39472 40.3438 7.39472ZM49.9996 92.6037C48.7759 92.6037 47.6026 92.1177 46.7381 91.2525C45.8729 90.3874 45.3869 89.2146 45.3869 87.991C45.3869 86.768 45.8729 85.5945 46.7381 84.7295C47.6025 83.8643 48.776 83.3783 49.9996 83.3783C51.2226 83.3783 52.3961 83.8643 53.2612 84.7295C54.1256 85.5947 54.6116 86.7682 54.6116 87.991C54.6116 89.2148 54.1256 90.3875 53.2612 91.2525C52.396 92.1177 51.2225 92.6037 49.9996 92.6037ZM75.0309 20.8635V78.5354H24.9703V14.7131H75.0309V20.8635Z" fill="#8E9934" stroke="#8E9934" stroke-width="0.390625"/>
<path d="M63.668 51.0449H36.3321C35.2517 50.9725 34.1867 51.3265 33.3643 52.0307C32.5426 52.7349 32.0292 53.7335 31.9353 54.8115V56.8723C32.0291 57.9503 32.5426 58.949 33.3643 59.6531C34.1867 60.3573 35.2518 60.7113 36.3321 60.6388H63.668C64.7483 60.7113 65.8133 60.3573 66.6358 59.6531C67.4582 58.9489 67.9709 57.9502 68.0655 56.8723V54.8115C67.9709 53.7335 67.4582 52.7348 66.6358 52.0307C65.8133 51.3265 64.7483 50.9724 63.668 51.0449ZM38.5762 57.4871C37.9109 57.4871 37.3112 57.0858 37.0564 56.4716C36.8016 55.8567 36.9428 55.1487 37.4135 54.6787C37.8834 54.208 38.5915 54.0676 39.2064 54.3217C39.8206 54.5765 40.2219 55.1762 40.2219 55.8422C40.2219 56.2779 40.0487 56.6967 39.7397 57.0049C39.4315 57.3139 39.0126 57.4871 38.5762 57.4871ZM44.2959 57.4871C43.6307 57.4871 43.031 57.0858 42.7762 56.4716C42.5213 55.8567 42.6625 55.1487 43.1325 54.6787C43.6032 54.208 44.3112 54.0676 44.9254 54.3217C45.5403 54.5765 45.9408 55.1762 45.9408 55.8422C45.9408 56.2779 45.7676 56.6967 45.4594 57.0049C45.1504 57.3139 44.7323 57.4871 44.2959 57.4871ZM50.0004 57.4871C49.3344 57.4871 48.7347 57.0858 48.4799 56.4716C48.2258 55.8567 48.3662 55.1487 48.8369 54.6787C49.3077 54.208 50.0149 54.0676 50.6298 54.3217C51.2448 54.5765 51.6453 55.1762 51.6453 55.8422C51.6453 56.2779 51.4721 56.6967 51.1631 57.0049C50.8549 57.3139 50.4368 57.4871 50.0004 57.4871ZM55.7042 57.4871C55.0404 57.481 54.4453 57.0759 54.195 56.461C53.9456 55.8453 54.0898 55.1403 54.562 54.6734C55.0335 54.2057 55.74 54.0676 56.3526 54.3232C56.9653 54.5788 57.3651 55.1777 57.3651 55.8422C57.3651 56.2809 57.1896 56.7013 56.8775 57.0103C56.5655 57.3193 56.1436 57.4909 55.7042 57.4871ZM61.4239 57.4871C60.7586 57.4871 60.1582 57.0858 59.9041 56.4716C59.6493 55.8567 59.7897 55.1487 60.2604 54.6787C60.7311 54.208 61.4384 54.0676 62.0533 54.3217C62.6682 54.5765 63.0688 55.1762 63.0688 55.8422C63.0688 56.2779 62.8956 56.6967 62.5874 57.0049C62.2784 57.3139 61.8603 57.4871 61.4239 57.4871Z" fill="#8E9934"/>
<path d="M55.7049 57.4871H55.7042M55.7042 57.4871C55.0404 57.481 54.4453 57.0759 54.195 56.461C53.9456 55.8453 54.0898 55.1403 54.562 54.6734C55.0335 54.2057 55.74 54.0676 56.3526 54.3232C56.9653 54.5788 57.3651 55.1777 57.3651 55.8422C57.3651 56.2809 57.1896 56.7013 56.8775 57.0103C56.5655 57.3193 56.1436 57.4909 55.7042 57.4871ZM61.4246 57.4871H61.4239M61.4239 57.4871C60.7586 57.4871 60.1582 57.0858 59.9041 56.4716C59.6493 55.8567 59.7897 55.1487 60.2604 54.6787C60.7311 54.208 61.4384 54.0676 62.0533 54.3217C62.6682 54.5765 63.0688 55.1762 63.0688 55.8422C63.0688 56.2779 62.8956 56.6967 62.5874 57.0049C62.2784 57.3139 61.8603 57.4871 61.4239 57.4871ZM63.668 51.0449H36.3321C35.2517 50.9725 34.1867 51.3265 33.3643 52.0307C32.5426 52.7349 32.0292 53.7335 31.9353 54.8115V56.8723C32.0291 57.9503 32.5426 58.949 33.3643 59.6531C34.1867 60.3573 35.2518 60.7113 36.3321 60.6388H63.668C64.7483 60.7113 65.8133 60.3573 66.6358 59.6531C67.4582 58.9489 67.9709 57.9502 68.0655 56.8723V54.8115C67.9709 53.7335 67.4582 52.7348 66.6358 52.0307C65.8133 51.3265 64.7483 50.9724 63.668 51.0449ZM38.5762 57.4871C37.9109 57.4871 37.3112 57.0858 37.0564 56.4716C36.8016 55.8567 36.9428 55.1487 37.4135 54.6787C37.8834 54.208 38.5915 54.0676 39.2064 54.3217C39.8206 54.5765 40.2219 55.1762 40.2219 55.8422C40.2219 56.2779 40.0487 56.6967 39.7397 57.0049C39.4315 57.3139 39.0126 57.4871 38.5762 57.4871ZM44.2959 57.4871C43.6307 57.4871 43.031 57.0858 42.7762 56.4716C42.5213 55.8567 42.6625 55.1487 43.1325 54.6787C43.6032 54.208 44.3112 54.0676 44.9254 54.3217C45.5403 54.5765 45.9408 55.1762 45.9408 55.8422C45.9408 56.2779 45.7676 56.6967 45.4594 57.0049C45.1504 57.3139 44.7323 57.4871 44.2959 57.4871ZM50.0004 57.4871C49.3344 57.4871 48.7347 57.0858 48.4799 56.4716C48.2258 55.8567 48.3662 55.1487 48.8369 54.6787C49.3077 54.208 50.0149 54.0676 50.6298 54.3217C51.2448 54.5765 51.6453 55.1762 51.6453 55.8422C51.6453 56.2779 51.4721 56.6967 51.1631 57.0049C50.8549 57.3139 50.4368 57.4871 50.0004 57.4871Z" stroke="#8E9934" stroke-width="0.390625"/>
<path d="M63.668 64.6523H36.332C35.2471 64.5798 34.1775 64.9384 33.3543 65.6487C32.5311 66.3597 32.0215 67.366 31.9352 68.4494V70.5254C32.0329 71.6012 32.5479 72.5961 33.3696 73.2971C34.1913 73.9975 35.2548 74.3499 36.3321 74.2767H63.668C64.746 74.3499 65.8088 73.9975 66.6305 73.2971C67.4522 72.596 67.9672 71.6011 68.0656 70.5254V68.4494C67.9786 67.3661 67.469 66.3598 66.6458 65.6487C65.8226 64.9384 64.7529 64.5798 63.668 64.6523ZM38.5762 71.0944C37.9017 71.1005 37.2906 70.6985 37.0297 70.0759C36.7688 69.4541 36.9099 68.7362 37.3867 68.2594C37.8636 67.7825 38.5815 67.6414 39.2033 67.9023C39.8259 68.1632 40.2279 68.7743 40.2218 69.4488C40.2218 69.8852 40.0486 70.3041 39.7396 70.6123C39.4314 70.9213 39.0126 71.0944 38.5762 71.0944ZM44.2959 71.0944C43.6215 71.1005 43.0104 70.6985 42.7494 70.0759C42.4885 69.4541 42.6296 68.7362 43.1065 68.2594C43.5833 67.7825 44.3012 67.6414 44.923 67.9023C45.5448 68.1632 45.9477 68.7743 45.9408 69.4488C45.9408 69.8852 45.7676 70.3041 45.4594 70.6123C45.1504 70.9213 44.7323 71.0944 44.2959 71.0944ZM50.0004 71.0944C49.326 71.1005 48.7149 70.6985 48.4539 70.0759C48.193 69.4541 48.3341 68.7362 48.811 68.2594C49.2878 67.7825 50.0057 67.6414 50.6275 67.9023C51.2493 68.1632 51.6514 68.7743 51.6453 69.4488C51.6453 69.8852 51.4721 70.3041 51.1631 70.6123C50.8549 70.9213 50.4368 71.0944 50.0004 71.0944ZM55.7041 71.0944C55.0312 71.0944 54.4247 70.6878 54.1691 70.0652C53.9127 69.4434 54.0577 68.7278 54.5353 68.254C55.0137 67.7802 55.7301 67.6422 56.3503 67.9038C56.9706 68.1663 57.3712 68.7759 57.365 69.4488C57.365 69.8883 57.1896 70.3086 56.8775 70.6176C56.5655 70.9266 56.1436 71.0983 55.7041 71.0944ZM61.4239 71.0944C60.7494 71.1005 60.1383 70.6985 59.8774 70.0759C59.6165 69.4541 59.7576 68.7362 60.2344 68.2594C60.7113 67.7825 61.4292 67.6414 62.051 67.9023C62.6728 68.1632 63.0749 68.7743 63.0687 69.4488C63.0687 69.8852 62.8955 70.3041 62.5873 70.6123C62.2783 70.9213 61.8602 71.0944 61.4239 71.0944Z" fill="#8E9934"/>
<path d="M55.7049 71.0944H55.7041M55.7041 71.0944C55.0312 71.0944 54.4247 70.6878 54.1691 70.0652C53.9127 69.4434 54.0577 68.7278 54.5353 68.254C55.0137 67.7802 55.7301 67.6422 56.3503 67.9038C56.9706 68.1663 57.3712 68.7759 57.365 69.4488C57.365 69.8883 57.1896 70.3086 56.8775 70.6176C56.5655 70.9266 56.1436 71.0983 55.7041 71.0944ZM61.4246 71.0944H61.4239M61.4239 71.0944C60.7494 71.1005 60.1383 70.6985 59.8774 70.0759C59.6165 69.4541 59.7576 68.7362 60.2344 68.2594C60.7113 67.7825 61.4292 67.6414 62.051 67.9023C62.6728 68.1632 63.0749 68.7743 63.0687 69.4488C63.0687 69.8852 62.8955 70.3041 62.5873 70.6123C62.2783 70.9213 61.8602 71.0944 61.4239 71.0944ZM63.668 64.6523H36.332C35.2471 64.5798 34.1775 64.9384 33.3543 65.6487C32.5311 66.3597 32.0215 67.366 31.9352 68.4494V70.5254C32.0329 71.6012 32.5479 72.5961 33.3696 73.2971C34.1913 73.9975 35.2548 74.3499 36.3321 74.2767H63.668C64.746 74.3499 65.8088 73.9975 66.6305 73.2971C67.4522 72.596 67.9672 71.6011 68.0656 70.5254V68.4494C67.9786 67.3661 67.469 66.3598 66.6458 65.6487C65.8226 64.9384 64.7529 64.5798 63.668 64.6523ZM38.5762 71.0944C37.9017 71.1005 37.2906 70.6985 37.0297 70.0759C36.7688 69.4541 36.9099 68.7362 37.3867 68.2594C37.8636 67.7825 38.5815 67.6414 39.2033 67.9023C39.8259 68.1632 40.2279 68.7743 40.2218 69.4488C40.2218 69.8852 40.0486 70.3041 39.7396 70.6123C39.4314 70.9213 39.0126 71.0944 38.5762 71.0944ZM44.2959 71.0944C43.6215 71.1005 43.0104 70.6985 42.7494 70.0759C42.4885 69.4541 42.6296 68.7362 43.1065 68.2594C43.5833 67.7825 44.3012 67.6414 44.923 67.9023C45.5448 68.1632 45.9477 68.7743 45.9408 69.4488C45.9408 69.8852 45.7676 70.3041 45.4594 70.6123C45.1504 70.9213 44.7323 71.0944 44.2959 71.0944ZM50.0004 71.0944C49.326 71.1005 48.7149 70.6985 48.4539 70.0759C48.193 69.4541 48.3341 68.7362 48.811 68.2594C49.2878 67.7825 50.0057 67.6414 50.6275 67.9023C51.2493 68.1632 51.6514 68.7743 51.6453 69.4488C51.6453 69.8852 51.4721 70.3041 51.1631 70.6123C50.8549 70.9213 50.4368 71.0944 50.0004 71.0944Z" stroke="#8E9934" stroke-width="0.390625"/>
<path d="M60.5781 36.0547C60.5888 38.561 59.703 40.988 58.0826 42.8991C56.4622 44.8102 54.2115 46.0798 51.7381 46.4796H51.5687C51.0598 46.5543 50.5456 46.5902 50.0314 46.5871C47.2283 46.5871 44.5406 45.4748 42.5568 43.4942C40.574 41.5135 39.457 38.8272 39.4531 36.0242V34.1024C39.7567 34.1039 40.0588 34.052 40.3449 33.949C40.4929 33.8865 40.6364 33.814 40.7752 33.7331C41.3627 33.3921 41.8014 32.8443 42.0051 32.1958L42.1127 31.9189V32.488V36.0241C42.1089 38.123 42.9367 40.1378 44.4152 41.6279C45.893 43.1179 47.9019 43.9609 50.0008 43.9732C50.3944 43.9976 50.7904 43.9976 51.1841 43.9732H51.3535C53.1982 43.6634 54.873 42.7074 56.0783 41.2769C57.2837 39.8456 57.9414 38.0337 57.9337 36.162V32.6259V31.9034H58.2412C58.5761 31.8401 58.9156 31.8096 59.2559 31.8111H59.9936H60.5781V32.5954L60.5781 36.0547Z" fill="#8E9934" stroke="#8E9934" stroke-width="0.390625"/>
<path d="M52.8438 38.6231C53.065 38.9237 53.1596 39.299 53.1047 39.6683C53.0551 40.0429 52.8552 40.3816 52.5515 40.6067C51.7886 41.2079 50.8471 41.5375 49.876 41.5444H49.7531C48.7819 41.5375 47.8404 41.2079 47.0783 40.6067C46.7747 40.3817 46.5748 40.0429 46.5244 39.6683C46.4764 39.2975 46.5755 38.9222 46.8014 38.6231C47.0234 38.3263 47.356 38.1317 47.7238 38.0852C48.0938 38.0219 48.473 38.1165 48.769 38.3461C49.0536 38.5971 49.4206 38.7337 49.7997 38.7307C50.1881 38.7345 50.5642 38.5979 50.8602 38.3461C51.4866 37.883 52.3685 38.0058 52.8438 38.6231Z" fill="#8E9934" stroke="#8E9934" stroke-width="0.390625"/>
<path d="M52.3984 34.9629V34.7165C52.3984 33.9352 53.0317 33.302 53.8129 33.302C54.5942 33.302 55.2274 33.9352 55.2274 34.7165V34.9629C55.2274 35.7442 54.5942 36.3774 53.8129 36.3774C53.0317 36.3774 52.3984 35.7442 52.3984 34.9629Z" fill="#8E9934" stroke="#8E9934" stroke-width="0.390625"/>
<path d="M47.6016 34.9629C47.6016 35.7442 46.9683 36.3774 46.1871 36.3774C45.4058 36.3774 44.7726 35.7442 44.7726 34.9629V34.7165C44.7726 33.9352 45.4058 33.302 46.1871 33.302C46.9683 33.302 47.6016 33.9352 47.6016 34.7165V34.9629Z" fill="#8E9934" stroke="#8E9934" stroke-width="0.390625"/>
<path d="M60.8535 29.2578C60.8192 29.3379 60.778 29.4149 60.7307 29.4882L60.5926 29.7186V29.7193C60.4392 29.7354 60.2844 29.7354 60.131 29.7193C59.3185 29.598 58.4899 29.624 57.6865 29.7956C56.5001 30.0627 55.2894 30.2023 54.0732 30.2114C52.3581 30.2656 50.6529 29.9238 49.092 29.212C48.091 28.4696 46.8923 28.0416 45.6472 27.9814C44.4418 27.9196 43.2439 28.2133 42.2033 28.8275C41.9286 28.9968 41.6662 29.1868 41.4197 29.3958C41.3198 29.4859 41.2267 29.5835 41.1428 29.6881L40.9734 29.8727L40.8193 30.0726C40.8193 30.0726 40.7423 30.1496 40.727 30.1954C40.7117 30.2412 40.6042 30.38 40.5424 30.4571H40.5431C40.4851 30.5319 40.4386 30.615 40.405 30.7027C40.2471 30.9835 40.1136 31.2765 40.0052 31.5794C39.9831 31.6404 39.9526 31.6976 39.9129 31.7487C39.8954 31.806 39.8565 31.8556 39.8054 31.8868C39.7489 31.9463 39.681 31.9936 39.6055 32.0249H39.3743C39.2744 32.0562 39.1675 32.0562 39.0668 32.0249H38.8975H38.8982C38.8471 32.0028 38.8044 31.9654 38.7746 31.9174C38.735 31.8861 38.6991 31.8494 38.6671 31.8098C38.6648 31.7587 38.6648 31.7075 38.6671 31.6564V31.5641V31.5489C38.6869 31.1453 38.7647 30.7462 38.8982 30.3648C38.8982 30.1496 39.0211 29.9497 39.0981 29.7498C39.2827 29.2425 39.4521 28.8427 39.4521 28.8427C37.9148 27.751 40.3898 26.4906 40.3898 26.4906C38.2374 22.6927 44.6333 21.9855 44.6333 21.9855L43.3882 20.7556H43.3875C43.2494 20.6145 43.2059 20.407 43.2745 20.2223C43.344 20.0377 43.5141 19.9095 43.7102 19.8943C44.8348 19.7745 45.9684 19.7745 47.093 19.8943L47.9383 20.0171C48.6768 20.1308 49.4062 20.2956 50.1219 20.5092C50.5781 20.6557 51.0252 20.8296 51.4594 21.0326L51.7973 19.9103V19.9095C51.882 19.6463 52.1361 19.4746 52.413 19.4945C53.8275 19.6486 57.871 20.4016 58.4089 24.1072L59.1009 23.0619C59.2085 22.8941 59.3939 22.7926 59.593 22.7926C59.7921 22.7926 59.9775 22.8941 60.0851 23.0619C60.4612 23.6174 60.7908 24.2033 61.0685 24.8144C61.6964 26.2472 61.6172 27.8921 60.8535 29.2578Z" fill="#8E9934" stroke="#8E9934" stroke-width="0.390625"/>
</svg>
