<svg width="120" height="120" viewBox="0 0 120 120" fill="none" xmlns="http://www.w3.org/2000/svg">
<mask id="mask0_172_127" style="mask-type:luminance" maskUnits="userSpaceOnUse" x="0" y="13" width="120" height="70">
<path d="M0.958618 13.125H119.039V82.2656H0.958618V13.125Z" fill="white"/>
</mask>
<g mask="url(#mask0_172_127)">
<path d="M100.423 44.871C100.423 34.5758 92.065 26.2363 81.7699 26.2363C79.3896 26.2363 77.1016 26.6977 75.0354 27.5098C71.3824 19.0777 62.9871 13.1553 53.1909 13.1553C43.154 13.1553 34.5562 19.3725 31.069 28.1736C29.5565 27.6755 27.9323 27.4173 26.2532 27.4173C17.4897 27.4173 10.4046 34.521 10.4046 43.266C10.4046 44.5578 10.552 45.8303 10.866 47.0481C4.98109 50.1472 0.958984 56.3654 0.958984 63.5057C0.958984 73.7826 9.3168 82.1221 19.5937 82.1221H27.6934C27.5085 80.757 27.4169 79.3729 27.4169 77.9528C27.4169 60.2959 41.7898 45.9231 59.4466 45.9231C77.1035 45.9231 91.4763 60.2959 91.4763 77.9528C91.4763 79.3737 91.3839 80.7571 91.1998 82.1221H100.425C110.7 82.1212 119.039 73.7816 119.039 63.5057C119.039 53.2105 110.7 44.871 100.423 44.871Z" fill="#8E9934" stroke="#8E9934" stroke-width="0.390625"/>
</g>
<path d="M59.4469 49.0593C43.4873 49.0593 30.5531 62.0114 30.5531 77.9531C30.5531 93.9126 43.4869 106.847 59.4469 106.847C75.4069 106.847 88.3406 93.9131 88.3406 77.9531C88.3406 62.0118 75.4069 49.0593 59.4469 49.0593ZM48.9668 93.4312L40.4798 82.9703H45.2955V62.4909H52.639V82.9703H57.4547L48.9668 93.4312ZM73.5972 72.9517V93.4312H66.2538V72.9517H61.4381L69.9251 62.4909L78.412 72.9517H73.5972Z" fill="#8E9934" stroke="#8E9934" stroke-width="0.390625"/>
</svg>
