<svg width="120" height="120" viewBox="0 0 120 120" fill="none" xmlns="http://www.w3.org/2000/svg">
<g filter="url(#filter0_d_171_73)">
<path d="M93.7922 19.4227H77.4436V21.1832C77.4399 22.5904 76.8787 23.939 75.8826 24.9323C74.8865 25.9265 73.537 26.485 72.1298 26.4859H47.8696C46.4624 26.485 45.1129 25.9265 44.1177 24.9323C43.1216 23.9389 42.5595 22.5904 42.5558 21.1832V19.4227H26.2183C25.7266 19.419 25.2533 19.6113 24.9045 19.9583C24.5557 20.3052 24.3597 20.7767 24.3616 21.2693V109.399C24.3561 109.893 24.5502 110.369 24.899 110.718C25.2487 111.067 25.7239 111.261 26.2183 111.257H93.7933C94.2849 111.256 94.7555 111.06 95.1015 110.711C95.4485 110.362 95.6417 109.891 95.6399 109.399V21.2693C95.6362 20.2512 94.8113 19.4263 93.7933 19.4227L93.7922 19.4227ZM45.7125 97.4203C45.7106 98.9199 44.4957 100.135 42.9961 100.136H34.2152C32.7201 100.129 31.5107 98.9163 31.5098 97.4203V88.6395C31.5116 87.1462 32.722 85.9359 34.2152 85.9341H42.9961C43.7148 85.9322 44.4051 86.2169 44.915 86.7242C45.424 87.2314 45.7106 87.9208 45.7124 88.6395L45.7125 97.4203ZM45.7125 72.9656C45.7106 73.6852 45.4241 74.3737 44.9151 74.8818C44.4051 75.389 43.7148 75.6728 42.9961 75.671H34.2153C32.722 75.6701 31.5117 74.4598 31.5099 72.9656V64.1848C31.5089 63.4661 31.7928 62.7758 32.3 62.2667C32.8072 61.7568 33.4966 61.4702 34.2153 61.4693H42.9961C43.7166 61.4684 44.4078 61.754 44.9178 62.264C45.4268 62.773 45.7134 63.4643 45.7125 64.1848V72.9656ZM45.7125 48.5016C45.7134 49.2221 45.4268 49.9133 44.9178 50.4233C44.4078 50.9323 43.7166 51.2179 42.9961 51.2179H34.2153C33.4966 51.2161 32.8072 50.9295 32.3 50.4205C31.7928 49.9106 31.5089 49.2203 31.5099 48.5016V39.7207C31.5117 38.2275 32.722 37.0172 34.2153 37.0153H42.9961C43.7148 37.0135 44.4051 37.2982 44.9151 37.8054C45.4241 38.3126 45.7106 39.002 45.7125 39.7207V48.5016ZM67.7822 97.4742H52.7327C52.2878 97.4742 51.927 97.1135 51.927 96.6686C51.927 96.2245 52.2878 95.8638 52.7327 95.8638H67.7822C68.2271 95.8638 68.5878 96.2245 68.5878 96.6686C68.5878 97.1135 68.2271 97.4742 67.7822 97.4742ZM87.6729 89.8095H52.7322C52.2873 89.8095 51.9266 89.4487 51.9266 89.0047C51.9266 88.5598 52.2873 88.199 52.7322 88.199H87.6729C88.1169 88.199 88.4776 88.5598 88.4776 89.0047C88.4776 89.4487 88.1169 89.8095 87.6729 89.8095ZM51.926 72.2159C51.9296 71.7718 52.2876 71.4139 52.7316 71.4102H67.7811C68.226 71.4102 68.5868 71.7709 68.5868 72.2159C68.5868 72.6599 68.226 73.0206 67.7811 73.0206H52.7316C52.2876 73.0179 51.9296 72.659 51.926 72.2159ZM87.6729 65.3566L52.7322 65.3557C52.2873 65.3557 51.9266 64.9959 51.9266 64.551C51.9266 64.106 52.2873 63.7462 52.7322 63.7462H87.6729C88.1169 63.7462 88.4776 64.106 88.4776 64.551C88.4776 64.9959 88.1169 65.3557 87.6729 65.3557V65.3566ZM51.926 47.7621C51.926 47.5488 52.0111 47.3437 52.1622 47.1926C52.3132 47.0416 52.5174 46.9565 52.7316 46.9574H67.7811C68.226 46.9574 68.5868 47.3172 68.5868 47.7621C68.5868 48.2071 68.226 48.5669 67.7811 48.5669H52.7316C52.2876 48.5641 51.9296 48.2052 51.926 47.7621ZM87.6729 40.8921H52.7322C52.2873 40.8921 51.9266 40.5314 51.9266 40.0874C51.9266 39.6424 52.2873 39.2817 52.7322 39.2817H87.6729C88.1169 39.2817 88.4776 39.6424 88.4776 40.0874C88.4776 40.5314 88.1169 40.8921 87.6729 40.8921Z" fill="#8E9934" stroke="#8E9934" stroke-width="0.390625"/>
<path d="M75.8344 17.6438V21.1786C75.838 22.1619 75.4489 23.1067 74.7531 23.8015C74.0573 24.4964 73.1125 24.8846 72.1293 24.88H47.8691C46.8877 24.88 45.9465 24.4909 45.2516 23.796C44.5577 23.1021 44.1677 22.1609 44.1686 21.1785V17.6437C44.1732 16.6641 44.5641 15.7257 45.2571 15.0335C45.9511 14.3413 46.8895 13.9513 47.8692 13.9476H54.7924C54.7924 12.0864 55.7849 10.3671 57.3971 9.43592C59.0084 8.50573 60.9952 8.50573 62.6065 9.43592C64.2188 10.367 65.2111 12.0865 65.2111 13.9476H72.1299C73.1113 13.9467 74.0534 14.3358 74.7483 15.0289C75.4432 15.7219 75.8341 16.6622 75.835 17.6436L75.8344 17.6438Z" fill="#8E9934" stroke="#8E9934" stroke-width="0.390625"/>
</g>
<defs>
<filter id="filter0_d_171_73" x="20.1661" y="8.54297" width="79.6691" height="110.909" filterUnits="userSpaceOnUse" color-interpolation-filters="sRGB">
<feFlood flood-opacity="0" result="BackgroundImageFix"/>
<feColorMatrix in="SourceAlpha" type="matrix" values="0 0 0 0 0 0 0 0 0 0 0 0 0 0 0 0 0 0 127 0" result="hardAlpha"/>
<feOffset dy="4"/>
<feGaussianBlur stdDeviation="2"/>
<feComposite in2="hardAlpha" operator="out"/>
<feColorMatrix type="matrix" values="0 0 0 0 0 0 0 0 0 0 0 0 0 0 0 0 0 0 0.25 0"/>
<feBlend mode="normal" in2="BackgroundImageFix" result="effect1_dropShadow_171_73"/>
<feBlend mode="normal" in="SourceGraphic" in2="effect1_dropShadow_171_73" result="shape"/>
</filter>
</defs>
</svg>
