<svg width="478" height="70" viewBox="0 0 478 70" fill="none" xmlns="http://www.w3.org/2000/svg">
<path d="M6.83994 14.9C5.42661 14.9 4.22661 14.6066 3.23994 14.02C2.25327 13.4333 1.49327 12.6 0.959941 11.52C0.439941 10.44 0.179941 9.1533 0.179941 7.65997C0.179941 6.16664 0.439941 4.88664 0.959941 3.81997C1.49327 2.73997 2.25327 1.90664 3.23994 1.31997C4.22661 0.733303 5.42661 0.43997 6.83994 0.43997C7.83994 0.43997 8.73328 0.593303 9.51994 0.89997C10.3066 1.20664 10.9933 1.6533 11.5799 2.23997L10.9599 3.55997C10.3199 2.99997 9.68661 2.5933 9.05994 2.33997C8.43328 2.0733 7.69994 1.93997 6.85994 1.93997C5.24661 1.93997 4.01994 2.43997 3.17994 3.43997C2.33994 4.43997 1.91994 5.84664 1.91994 7.65997C1.91994 9.4733 2.33994 10.8866 3.17994 11.9C4.01994 12.9 5.24661 13.4 6.85994 13.4C7.69994 13.4 8.43328 13.2733 9.05994 13.02C9.68661 12.7533 10.3199 12.3333 10.9599 11.76L11.5799 13.1C10.9933 13.6733 10.3066 14.12 9.51994 14.44C8.73328 14.7466 7.83994 14.9 6.83994 14.9ZM14.2118 14.72V4.67997H15.6918V13.22H15.1518L21.5518 4.67997H22.9118V14.72H21.4518V6.15997H21.9918L15.5918 14.72H14.2118ZM30.4063 14.9C29.4197 14.9 28.5597 14.6866 27.8263 14.26C27.1063 13.8333 26.5463 13.2266 26.1463 12.44C25.7597 11.6533 25.5663 10.72 25.5663 9.63997C25.5663 8.54664 25.7663 7.61997 26.1663 6.85997C26.5663 6.08664 27.1263 5.49997 27.8463 5.09997C28.5797 4.69997 29.433 4.49997 30.4063 4.49997C31.0463 4.49997 31.6663 4.6133 32.2663 4.83997C32.8797 5.06664 33.3863 5.38664 33.7863 5.79997L33.2063 6.95997C32.8063 6.5733 32.3663 6.28664 31.8863 6.09997C31.4197 5.9133 30.9597 5.81997 30.5063 5.81997C29.4663 5.81997 28.6597 6.14664 28.0863 6.79997C27.513 7.4533 27.2263 8.40664 27.2263 9.65997C27.2263 10.9 27.513 11.86 28.0863 12.54C28.6597 13.22 29.4663 13.56 30.5063 13.56C30.9463 13.56 31.3997 13.4733 31.8663 13.3C32.3463 13.1266 32.793 12.84 33.2063 12.44L33.7863 13.58C33.373 14.0066 32.8597 14.3333 32.2463 14.56C31.633 14.7866 31.0197 14.9 30.4063 14.9ZM38.344 14.72V5.97997H34.704V4.67997H43.624V5.97997H39.964V14.72H38.344ZM49.8065 14.9C48.2332 14.9 46.9932 14.4466 46.0865 13.54C45.1798 12.62 44.7265 11.3466 44.7265 9.71997C44.7265 8.66664 44.9265 7.7533 45.3265 6.97997C45.7265 6.1933 46.2865 5.58664 47.0065 5.15997C47.7265 4.71997 48.5532 4.49997 49.4865 4.49997C50.4065 4.49997 51.1798 4.6933 51.8065 5.07997C52.4332 5.46664 52.9132 6.01997 53.2465 6.73997C53.5798 7.44664 53.7465 8.28664 53.7465 9.25997V9.85997H45.9665V8.83997H52.6865L52.3465 9.09997C52.3465 8.0333 52.1065 7.19997 51.6265 6.59997C51.1465 5.99997 50.4332 5.69997 49.4865 5.69997C48.4865 5.69997 47.7065 6.0533 47.1465 6.75997C46.5865 7.4533 46.3065 8.3933 46.3065 9.57997V9.75997C46.3065 11.0133 46.6132 11.9666 47.2265 12.62C47.8532 13.26 48.7265 13.58 49.8465 13.58C50.4465 13.58 51.0065 13.4933 51.5265 13.32C52.0598 13.1333 52.5665 12.8333 53.0465 12.42L53.6065 13.56C53.1665 13.9866 52.6065 14.32 51.9265 14.56C51.2598 14.7866 50.5532 14.9 49.8065 14.9ZM56.3407 14.72V4.67997H57.7007L61.4607 11.42L65.2407 4.67997H66.6007V14.72H65.1607V6.47997H65.5807L61.8807 13.1H61.0607L57.3407 6.45997H57.7807V14.72H56.3407ZM73.6978 14.9C72.8044 14.9 72.0244 14.6933 71.3578 14.28C70.6911 13.8533 70.1711 13.2533 69.7978 12.48C69.4378 11.7066 69.2578 10.78 69.2578 9.69997C69.2578 8.60664 69.4378 7.6733 69.7978 6.89997C70.1711 6.12664 70.6911 5.5333 71.3578 5.11997C72.0244 4.70664 72.8044 4.49997 73.6978 4.49997C74.6044 4.49997 75.3844 4.7333 76.0378 5.19997C76.7044 5.6533 77.1444 6.2733 77.3578 7.05997H77.1178L77.3378 4.67997H78.8978C78.8578 5.06664 78.8178 5.45997 78.7778 5.85997C78.7511 6.24664 78.7378 6.62664 78.7378 6.99997V14.72H77.1178V12.36H77.3378C77.1244 13.1466 76.6844 13.7666 76.0178 14.22C75.3511 14.6733 74.5778 14.9 73.6978 14.9ZM74.0178 13.58C74.9778 13.58 75.7378 13.2533 76.2978 12.6C76.8578 11.9333 77.1378 10.9666 77.1378 9.69997C77.1378 8.41997 76.8578 7.4533 76.2978 6.79997C75.7378 6.1333 74.9778 5.79997 74.0178 5.79997C73.0711 5.79997 72.3111 6.1333 71.7378 6.79997C71.1778 7.4533 70.8978 8.41997 70.8978 9.69997C70.8978 10.9666 71.1778 11.9333 71.7378 12.6C72.3111 13.2533 73.0711 13.58 74.0178 13.58ZM92.9796 19.04V12.48H93.1796C92.9663 13.2533 92.613 13.8533 92.1196 14.28C91.6396 14.6933 91.0263 14.9 90.2796 14.9C89.5596 14.9 88.9263 14.6866 88.3796 14.26C87.8463 13.8333 87.4263 13.2333 87.1196 12.46C86.813 11.6733 86.6596 10.7533 86.6596 9.69997C86.6596 8.6333 86.8063 7.7133 87.0996 6.93997C87.4063 6.1533 87.8263 5.5533 88.3596 5.13997C88.9063 4.7133 89.5463 4.49997 90.2796 4.49997C91.0263 4.49997 91.6396 4.7133 92.1196 5.13997C92.613 5.5533 92.9663 6.13997 93.1796 6.89997H92.9796V-3.05176e-05H94.5996V6.89997H94.3796C94.593 6.13997 94.9463 5.5533 95.4396 5.13997C95.9463 4.7133 96.5596 4.49997 97.2796 4.49997C98.013 4.49997 98.6463 4.7133 99.1796 5.13997C99.7263 5.5533 100.146 6.1533 100.44 6.93997C100.746 7.7133 100.9 8.6333 100.9 9.69997C100.9 10.7533 100.746 11.6733 100.44 12.46C100.146 13.2333 99.7263 13.8333 99.1796 14.26C98.6463 14.6866 98.013 14.9 97.2796 14.9C96.5596 14.9 95.953 14.6933 95.4596 14.28C94.9663 13.8533 94.6063 13.2533 94.3796 12.48H94.5996V19.04H92.9796ZM90.6396 13.62C91.373 13.62 91.9463 13.2866 92.3596 12.62C92.7863 11.9533 92.9996 10.98 92.9996 9.69997C92.9996 8.4333 92.7863 7.46664 92.3596 6.79997C91.9463 6.11997 91.373 5.77997 90.6396 5.77997C89.9063 5.77997 89.3263 6.11997 88.8996 6.79997C88.4863 7.46664 88.2796 8.4333 88.2796 9.69997C88.2796 10.98 88.4863 11.9533 88.8996 12.62C89.3263 13.2866 89.9063 13.62 90.6396 13.62ZM96.9196 13.62C97.653 13.62 98.233 13.2866 98.6596 12.62C99.0863 11.9533 99.2996 10.98 99.2996 9.69997C99.2996 8.4333 99.0796 7.46664 98.6396 6.79997C98.213 6.11997 97.6396 5.77997 96.9196 5.77997C96.1863 5.77997 95.6063 6.11997 95.1796 6.79997C94.7663 7.46664 94.5596 8.4333 94.5596 9.69997C94.5596 10.98 94.7663 11.9533 95.1796 12.62C95.6063 13.2866 96.1863 13.62 96.9196 13.62ZM107.767 14.9C106.807 14.9 105.967 14.6933 105.247 14.28C104.541 13.8533 103.994 13.2533 103.607 12.48C103.221 11.6933 103.027 10.7666 103.027 9.69997C103.027 8.61997 103.221 7.6933 103.607 6.91997C103.994 6.14664 104.541 5.5533 105.247 5.13997C105.967 4.7133 106.807 4.49997 107.767 4.49997C108.741 4.49997 109.581 4.7133 110.287 5.13997C111.007 5.5533 111.561 6.14664 111.947 6.91997C112.347 7.6933 112.547 8.61997 112.547 9.69997C112.547 10.7666 112.347 11.6933 111.947 12.48C111.561 13.2533 111.007 13.8533 110.287 14.28C109.581 14.6933 108.741 14.9 107.767 14.9ZM107.767 13.58C108.727 13.58 109.487 13.2533 110.047 12.6C110.607 11.9333 110.887 10.9666 110.887 9.69997C110.887 8.41997 110.601 7.4533 110.027 6.79997C109.467 6.1333 108.714 5.79997 107.767 5.79997C106.821 5.79997 106.067 6.1333 105.507 6.79997C104.947 7.4533 104.667 8.41997 104.667 9.69997C104.667 10.9666 104.947 11.9333 105.507 12.6C106.067 13.2533 106.821 13.58 107.767 13.58ZM115.268 19.04V6.99997C115.268 6.62664 115.248 6.24664 115.208 5.85997C115.182 5.45997 115.148 5.06664 115.108 4.67997H116.668L116.888 7.05997H116.648C116.862 6.2733 117.295 5.6533 117.948 5.19997C118.602 4.7333 119.382 4.49997 120.288 4.49997C121.195 4.49997 121.975 4.70664 122.628 5.11997C123.295 5.5333 123.815 6.12664 124.188 6.89997C124.562 7.6733 124.748 8.60664 124.748 9.69997C124.748 10.78 124.562 11.7066 124.188 12.48C123.828 13.2533 123.315 13.8533 122.648 14.28C121.982 14.6933 121.195 14.9 120.288 14.9C119.395 14.9 118.622 14.6733 117.968 14.22C117.315 13.7666 116.882 13.1466 116.668 12.36H116.888V19.04H115.268ZM119.968 13.58C120.928 13.58 121.688 13.2533 122.248 12.6C122.822 11.9333 123.108 10.9666 123.108 9.69997C123.108 8.41997 122.822 7.4533 122.248 6.79997C121.688 6.1333 120.928 5.79997 119.968 5.79997C119.022 5.79997 118.262 6.1333 117.688 6.79997C117.128 7.4533 116.848 8.41997 116.848 9.69997C116.848 10.9666 117.128 11.9333 117.688 12.6C118.262 13.2533 119.022 13.58 119.968 13.58ZM127.395 14.72V4.67997H128.755L132.515 11.42L136.295 4.67997H137.655V14.72H136.215V6.47997H136.635L132.935 13.1H132.115L128.395 6.45997H128.835V14.72H127.395ZM140.852 14.72V4.67997H142.332V13.22H141.792L148.192 4.67997H149.552V14.72H148.092V6.15997H148.632L142.232 14.72H140.852ZM152.827 19.04V6.99997C152.827 6.62664 152.807 6.24664 152.767 5.85997C152.74 5.45997 152.707 5.06664 152.667 4.67997H154.227L154.447 7.05997H154.207C154.42 6.2733 154.854 5.6533 155.507 5.19997C156.16 4.7333 156.94 4.49997 157.847 4.49997C158.754 4.49997 159.534 4.70664 160.187 5.11997C160.854 5.5333 161.374 6.12664 161.747 6.89997C162.12 7.6733 162.307 8.60664 162.307 9.69997C162.307 10.78 162.12 11.7066 161.747 12.48C161.387 13.2533 160.874 13.8533 160.207 14.28C159.54 14.6933 158.754 14.9 157.847 14.9C156.954 14.9 156.18 14.6733 155.527 14.22C154.874 13.7666 154.44 13.1466 154.227 12.36H154.447V19.04H152.827ZM157.527 13.58C158.487 13.58 159.247 13.2533 159.807 12.6C160.38 11.9333 160.667 10.9666 160.667 9.69997C160.667 8.41997 160.38 7.4533 159.807 6.79997C159.247 6.1333 158.487 5.79997 157.527 5.79997C156.58 5.79997 155.82 6.1333 155.247 6.79997C154.687 7.4533 154.407 8.41997 154.407 9.69997C154.407 10.9666 154.687 11.9333 155.247 12.6C155.82 13.2533 156.58 13.58 157.527 13.58ZM164.517 19.26L164.137 17.92C164.763 17.7733 165.283 17.6 165.697 17.4C166.123 17.2133 166.477 16.96 166.757 16.64C167.037 16.32 167.277 15.92 167.477 15.44L167.997 14.26L167.957 14.94L163.577 4.67997H165.337L168.957 13.5H168.437L172.017 4.67997H173.717L169.077 15.56C168.81 16.2 168.517 16.7333 168.197 17.16C167.877 17.6 167.53 17.9533 167.157 18.22C166.797 18.5 166.397 18.72 165.957 18.88C165.517 19.04 165.037 19.1666 164.517 19.26ZM180.08 14.9C178.507 14.9 177.267 14.4466 176.36 13.54C175.453 12.62 175 11.3466 175 9.71997C175 8.66664 175.2 7.7533 175.6 6.97997C176 6.1933 176.56 5.58664 177.28 5.15997C178 4.71997 178.827 4.49997 179.76 4.49997C180.68 4.49997 181.453 4.6933 182.08 5.07997C182.707 5.46664 183.187 6.01997 183.52 6.73997C183.853 7.44664 184.02 8.28664 184.02 9.25997V9.85997H176.24V8.83997H182.96L182.62 9.09997C182.62 8.0333 182.38 7.19997 181.9 6.59997C181.42 5.99997 180.707 5.69997 179.76 5.69997C178.76 5.69997 177.98 6.0533 177.42 6.75997C176.86 7.4533 176.58 8.3933 176.58 9.57997V9.75997C176.58 11.0133 176.887 11.9666 177.5 12.62C178.127 13.26 179 13.58 180.12 13.58C180.72 13.58 181.28 13.4933 181.8 13.32C182.333 13.1333 182.84 12.8333 183.32 12.42L183.88 13.56C183.44 13.9866 182.88 14.32 182.2 14.56C181.533 14.7866 180.827 14.9 180.08 14.9ZM188.754 14.72V5.97997H185.114V4.67997H194.034V5.97997H190.374V14.72H188.754ZM205.231 14.9C204.244 14.9 203.384 14.6866 202.651 14.26C201.931 13.8333 201.371 13.2266 200.971 12.44C200.584 11.6533 200.391 10.72 200.391 9.63997C200.391 8.54664 200.591 7.61997 200.991 6.85997C201.391 6.08664 201.951 5.49997 202.671 5.09997C203.404 4.69997 204.257 4.49997 205.231 4.49997C205.871 4.49997 206.491 4.6133 207.091 4.83997C207.704 5.06664 208.211 5.38664 208.611 5.79997L208.031 6.95997C207.631 6.5733 207.191 6.28664 206.711 6.09997C206.244 5.9133 205.784 5.81997 205.331 5.81997C204.291 5.81997 203.484 6.14664 202.911 6.79997C202.337 7.4533 202.051 8.40664 202.051 9.65997C202.051 10.9 202.337 11.86 202.911 12.54C203.484 13.22 204.291 13.56 205.331 13.56C205.771 13.56 206.224 13.4733 206.691 13.3C207.171 13.1266 207.617 12.84 208.031 12.44L208.611 13.58C208.197 14.0066 207.684 14.3333 207.071 14.56C206.457 14.7866 205.844 14.9 205.231 14.9ZM211.028 14.72V4.67997H219.728V14.72H218.108V5.95997H212.648V14.72H211.028ZM227.463 14.9C225.889 14.9 224.649 14.4466 223.743 13.54C222.836 12.62 222.383 11.3466 222.383 9.71997C222.383 8.66664 222.583 7.7533 222.983 6.97997C223.383 6.1933 223.943 5.58664 224.663 5.15997C225.383 4.71997 226.209 4.49997 227.143 4.49997C228.063 4.49997 228.836 4.6933 229.463 5.07997C230.089 5.46664 230.569 6.01997 230.903 6.73997C231.236 7.44664 231.403 8.28664 231.403 9.25997V9.85997H223.623V8.83997H230.343L230.003 9.09997C230.003 8.0333 229.763 7.19997 229.283 6.59997C228.803 5.99997 228.089 5.69997 227.143 5.69997C226.143 5.69997 225.363 6.0533 224.803 6.75997C224.243 7.4533 223.963 8.3933 223.963 9.57997V9.75997C223.963 11.0133 224.269 11.9666 224.883 12.62C225.509 13.26 226.383 13.58 227.503 13.58C228.103 13.58 228.663 13.4933 229.183 13.32C229.716 13.1333 230.223 12.8333 230.703 12.42L231.263 13.56C230.823 13.9866 230.263 14.32 229.583 14.56C228.916 14.7866 228.209 14.9 227.463 14.9ZM242.677 17.32V14.72H233.997V4.67997H235.617V13.44H240.877V4.67997H242.457V13.44H244.057V17.32H242.677ZM246.224 14.72V4.67997H247.704V13.22H247.164L253.564 4.67997H254.924V14.72H253.464V6.15997H254.004L247.604 14.72H246.224ZM263.878 19.04V12.48H264.078C263.865 13.2533 263.511 13.8533 263.018 14.28C262.538 14.6933 261.925 14.9 261.178 14.9C260.458 14.9 259.825 14.6866 259.278 14.26C258.745 13.8333 258.325 13.2333 258.018 12.46C257.711 11.6733 257.558 10.7533 257.558 9.69997C257.558 8.6333 257.705 7.7133 257.998 6.93997C258.305 6.1533 258.725 5.5533 259.258 5.13997C259.805 4.7133 260.445 4.49997 261.178 4.49997C261.925 4.49997 262.538 4.7133 263.018 5.13997C263.511 5.5533 263.865 6.13997 264.078 6.89997H263.878V-3.05176e-05H265.498V6.89997H265.278C265.491 6.13997 265.845 5.5533 266.338 5.13997C266.845 4.7133 267.458 4.49997 268.178 4.49997C268.911 4.49997 269.545 4.7133 270.078 5.13997C270.625 5.5533 271.045 6.1533 271.338 6.93997C271.645 7.7133 271.798 8.6333 271.798 9.69997C271.798 10.7533 271.645 11.6733 271.338 12.46C271.045 13.2333 270.625 13.8333 270.078 14.26C269.545 14.6866 268.911 14.9 268.178 14.9C267.458 14.9 266.851 14.6933 266.358 14.28C265.865 13.8533 265.505 13.2533 265.278 12.48H265.498V19.04H263.878ZM261.538 13.62C262.271 13.62 262.845 13.2866 263.258 12.62C263.685 11.9533 263.898 10.98 263.898 9.69997C263.898 8.4333 263.685 7.46664 263.258 6.79997C262.845 6.11997 262.271 5.77997 261.538 5.77997C260.805 5.77997 260.225 6.11997 259.798 6.79997C259.385 7.46664 259.178 8.4333 259.178 9.69997C259.178 10.98 259.385 11.9533 259.798 12.62C260.225 13.2866 260.805 13.62 261.538 13.62ZM267.818 13.62C268.551 13.62 269.131 13.2866 269.558 12.62C269.985 11.9533 270.198 10.98 270.198 9.69997C270.198 8.4333 269.978 7.46664 269.538 6.79997C269.111 6.11997 268.538 5.77997 267.818 5.77997C267.085 5.77997 266.505 6.11997 266.078 6.79997C265.665 7.46664 265.458 8.4333 265.458 9.69997C265.458 10.98 265.665 11.9533 266.078 12.62C266.505 13.2866 267.085 13.62 267.818 13.62ZM274.466 14.72V4.67997H275.946V13.22H275.406L281.806 4.67997H283.166V14.72H281.706V6.15997H282.246L275.846 14.72H274.466ZM286.36 14.72V4.67997H287.98V8.89997H289.88L293.2 4.67997H294.98L291.18 9.53997L290.74 9.03997C291.127 9.07997 291.46 9.1733 291.74 9.31997C292.02 9.46664 292.287 9.68664 292.54 9.97997C292.807 10.2733 293.094 10.68 293.4 11.2L295.48 14.72H293.74L291.9 11.6C291.674 11.2133 291.454 10.92 291.24 10.72C291.04 10.52 290.807 10.38 290.54 10.3C290.287 10.22 289.967 10.18 289.58 10.18H287.98V14.72H286.36ZM301.022 14.9C300.129 14.9 299.349 14.6933 298.682 14.28C298.015 13.8533 297.495 13.2533 297.122 12.48C296.762 11.7066 296.582 10.78 296.582 9.69997C296.582 8.60664 296.762 7.6733 297.122 6.89997C297.495 6.12664 298.015 5.5333 298.682 5.11997C299.349 4.70664 300.129 4.49997 301.022 4.49997C301.929 4.49997 302.709 4.7333 303.362 5.19997C304.029 5.6533 304.469 6.2733 304.682 7.05997H304.442L304.662 4.67997H306.222C306.182 5.06664 306.142 5.45997 306.102 5.85997C306.075 6.24664 306.062 6.62664 306.062 6.99997V14.72H304.442V12.36H304.662C304.449 13.1466 304.009 13.7666 303.342 14.22C302.675 14.6733 301.902 14.9 301.022 14.9ZM301.342 13.58C302.302 13.58 303.062 13.2533 303.622 12.6C304.182 11.9333 304.462 10.9666 304.462 9.69997C304.462 8.41997 304.182 7.4533 303.622 6.79997C303.062 6.1333 302.302 5.79997 301.342 5.79997C300.395 5.79997 299.635 6.1333 299.062 6.79997C298.502 7.4533 298.222 8.41997 298.222 9.69997C298.222 10.9666 298.502 11.9333 299.062 12.6C299.635 13.2533 300.395 13.58 301.342 13.58ZM318.009 17.32V14.72H309.329V4.67997H310.949V13.44H316.209V4.67997H317.789V13.44H319.389V17.32H318.009ZM321.556 14.72V4.67997H323.036V13.22H322.496L328.896 4.67997H330.256V14.72H328.796V6.15997H329.336L322.936 14.72H321.556ZM333.45 14.72V4.67997H334.93V13.22H334.39L340.79 4.67997H342.15V14.72H340.69V6.15997H341.23L334.83 14.72H333.45ZM350.559 14.72V4.67997H352.039V13.22H351.499L357.899 4.67997H359.259V14.72H357.799V6.15997H358.339L351.939 14.72H350.559ZM370.989 14.9C370.136 14.9 369.329 14.7866 368.569 14.56C367.822 14.32 367.209 13.9933 366.729 13.58L367.289 12.44C367.782 12.84 368.336 13.1466 368.949 13.36C369.576 13.56 370.256 13.66 370.989 13.66C371.976 13.66 372.689 13.5066 373.129 13.2C373.569 12.8933 373.789 12.46 373.789 11.9C373.789 11.3533 373.602 10.94 373.229 10.66C372.856 10.3666 372.309 10.22 371.589 10.22H369.229V9.01997H371.389C372.029 9.01997 372.529 8.87997 372.889 8.59997C373.262 8.30664 373.449 7.90664 373.449 7.39997C373.449 6.87997 373.249 6.4733 372.849 6.17997C372.449 5.8733 371.822 5.71997 370.969 5.71997C370.289 5.71997 369.656 5.8133 369.069 5.99997C368.496 6.1733 367.949 6.4533 367.429 6.83997L366.889 5.73997C367.436 5.3133 368.069 4.99997 368.789 4.79997C369.509 4.59997 370.289 4.49997 371.129 4.49997C372.382 4.49997 373.336 4.74664 373.989 5.23997C374.642 5.71997 374.969 6.40664 374.969 7.29997C374.969 7.92664 374.756 8.46664 374.329 8.91997C373.902 9.35997 373.336 9.61997 372.629 9.69997V9.45997C373.429 9.48664 374.076 9.72664 374.569 10.18C375.062 10.6333 375.309 11.2266 375.309 11.96C375.309 12.8533 374.942 13.5666 374.209 14.1C373.489 14.6333 372.416 14.9 370.989 14.9ZM381.725 14.9C380.832 14.9 380.052 14.6933 379.385 14.28C378.718 13.8533 378.198 13.2533 377.825 12.48C377.465 11.7066 377.285 10.78 377.285 9.69997C377.285 8.60664 377.465 7.6733 377.825 6.89997C378.198 6.12664 378.718 5.5333 379.385 5.11997C380.052 4.70664 380.832 4.49997 381.725 4.49997C382.632 4.49997 383.412 4.7333 384.065 5.19997C384.732 5.6533 385.172 6.2733 385.385 7.05997H385.145L385.365 4.67997H386.925C386.885 5.06664 386.845 5.45997 386.805 5.85997C386.778 6.24664 386.765 6.62664 386.765 6.99997V14.72H385.145V12.36H385.365C385.152 13.1466 384.712 13.7666 384.045 14.22C383.378 14.6733 382.605 14.9 381.725 14.9ZM382.045 13.58C383.005 13.58 383.765 13.2533 384.325 12.6C384.885 11.9333 385.165 10.9666 385.165 9.69997C385.165 8.41997 384.885 7.4533 384.325 6.79997C383.765 6.1333 383.005 5.79997 382.045 5.79997C381.098 5.79997 380.338 6.1333 379.765 6.79997C379.205 7.4533 378.925 8.41997 378.925 9.69997C378.925 10.9666 379.205 11.9333 379.765 12.6C380.338 13.2533 381.098 13.58 382.045 13.58ZM390.032 14.72V4.67997H391.652V8.89997H393.552L396.872 4.67997H398.652L394.852 9.53997L394.412 9.03997C394.799 9.07997 395.132 9.1733 395.412 9.31997C395.692 9.46664 395.959 9.68664 396.212 9.97997C396.479 10.2733 396.765 10.68 397.072 11.2L399.152 14.72H397.412L395.572 11.6C395.345 11.2133 395.125 10.92 394.912 10.72C394.712 10.52 394.479 10.38 394.212 10.3C393.959 10.22 393.639 10.18 393.252 10.18H391.652V14.72H390.032ZM404.694 14.9C403.801 14.9 403.021 14.6933 402.354 14.28C401.687 13.8533 401.167 13.2533 400.794 12.48C400.434 11.7066 400.254 10.78 400.254 9.69997C400.254 8.60664 400.434 7.6733 400.794 6.89997C401.167 6.12664 401.687 5.5333 402.354 5.11997C403.021 4.70664 403.801 4.49997 404.694 4.49997C405.601 4.49997 406.381 4.7333 407.034 5.19997C407.701 5.6533 408.141 6.2733 408.354 7.05997H408.114L408.334 4.67997H409.894C409.854 5.06664 409.814 5.45997 409.774 5.85997C409.747 6.24664 409.734 6.62664 409.734 6.99997V14.72H408.114V12.36H408.334C408.121 13.1466 407.681 13.7666 407.014 14.22C406.347 14.6733 405.574 14.9 404.694 14.9ZM405.014 13.58C405.974 13.58 406.734 13.2533 407.294 12.6C407.854 11.9333 408.134 10.9666 408.134 9.69997C408.134 8.41997 407.854 7.4533 407.294 6.79997C406.734 6.1333 405.974 5.79997 405.014 5.79997C404.067 5.79997 403.307 6.1333 402.734 6.79997C402.174 7.4533 401.894 8.41997 401.894 9.69997C401.894 10.9666 402.174 11.9333 402.734 12.6C403.307 13.2533 404.067 13.58 405.014 13.58ZM416.321 14.9C415.468 14.9 414.661 14.7866 413.901 14.56C413.154 14.32 412.541 13.9933 412.061 13.58L412.621 12.44C413.114 12.84 413.668 13.1466 414.281 13.36C414.908 13.56 415.588 13.66 416.321 13.66C417.308 13.66 418.021 13.5066 418.461 13.2C418.901 12.8933 419.121 12.46 419.121 11.9C419.121 11.3533 418.934 10.94 418.561 10.66C418.188 10.3666 417.641 10.22 416.921 10.22H414.561V9.01997H416.721C417.361 9.01997 417.861 8.87997 418.221 8.59997C418.594 8.30664 418.781 7.90664 418.781 7.39997C418.781 6.87997 418.581 6.4733 418.181 6.17997C417.781 5.8733 417.154 5.71997 416.301 5.71997C415.621 5.71997 414.988 5.8133 414.401 5.99997C413.828 6.1733 413.281 6.4533 412.761 6.83997L412.221 5.73997C412.768 5.3133 413.401 4.99997 414.121 4.79997C414.841 4.59997 415.621 4.49997 416.461 4.49997C417.714 4.49997 418.668 4.74664 419.321 5.23997C419.974 5.71997 420.301 6.40664 420.301 7.29997C420.301 7.92664 420.088 8.46664 419.661 8.91997C419.234 9.35997 418.668 9.61997 417.961 9.69997V9.45997C418.761 9.48664 419.408 9.72664 419.901 10.18C420.394 10.6333 420.641 11.2266 420.641 11.96C420.641 12.8533 420.274 13.5666 419.541 14.1C418.821 14.6333 417.748 14.9 416.321 14.9ZM423.157 14.72V4.67997H424.777V8.27997H427.797C429.09 8.27997 430.064 8.55997 430.717 9.11997C431.384 9.66664 431.717 10.4466 431.717 11.46C431.717 12.14 431.564 12.7266 431.257 13.22C430.964 13.7 430.524 14.0733 429.937 14.34C429.364 14.5933 428.65 14.72 427.797 14.72H423.157ZM424.777 13.56H427.657C428.47 13.56 429.09 13.3933 429.517 13.06C429.944 12.7133 430.157 12.1866 430.157 11.48C430.157 10.7733 429.944 10.26 429.517 9.93997C429.104 9.60664 428.484 9.43997 427.657 9.43997H424.777V13.56ZM433.237 14.72V4.67997H434.837V14.72H433.237ZM442.195 17.32V13.44H443.255C443.735 12.76 444.081 11.9466 444.295 11C444.508 10.0533 444.615 8.9333 444.615 7.63997V4.67997H451.675V13.44H453.255V17.32H451.855V14.72H443.575V17.32H442.195ZM444.815 13.46H450.135V5.93997H446.035V7.89997C446.035 8.9533 445.928 9.9733 445.715 10.96C445.515 11.9333 445.215 12.7666 444.815 13.46ZM454.883 14.94L454.283 13.68C454.749 13.4666 455.136 13.2066 455.443 12.9C455.763 12.58 456.016 12.18 456.203 11.7C456.389 11.2066 456.523 10.6 456.603 9.87997C456.683 9.14664 456.723 8.26664 456.723 7.23997V4.67997H463.963V14.72H462.363V5.95997H458.223V7.29997C458.223 8.8733 458.109 10.1666 457.883 11.18C457.669 12.1933 457.316 13 456.823 13.6C456.343 14.1866 455.696 14.6333 454.883 14.94ZM466.361 14.72L467.961 11.96C468.214 11.52 468.534 11.1666 468.921 10.9C469.308 10.62 469.714 10.48 470.141 10.48H470.421L470.401 10.66C469.268 10.66 468.388 10.4066 467.761 9.89997C467.134 9.37997 466.821 8.6333 466.821 7.65997C466.821 6.72664 467.128 5.99997 467.741 5.47997C468.354 4.94664 469.268 4.67997 470.481 4.67997H474.941V14.72H473.421V10.84H471.921C471.361 10.84 470.888 10.98 470.501 11.26C470.114 11.54 469.788 11.8933 469.521 12.32L468.161 14.72H466.361ZM470.761 9.69997H473.421V5.79997H470.761C469.948 5.79997 469.341 5.9733 468.941 6.31997C468.554 6.66664 468.361 7.13997 468.361 7.73997C468.361 8.36664 468.554 8.8533 468.941 9.19997C469.341 9.5333 469.948 9.69997 470.761 9.69997ZM4.73994 39.9C3.77994 39.9 2.93994 39.6933 2.21994 39.28C1.51327 38.8533 0.966608 38.2533 0.579941 37.48C0.193275 36.6933 -5.85318e-05 35.7666 -5.85318e-05 34.7C-5.85318e-05 33.62 0.193275 32.6933 0.579941 31.92C0.966608 31.1466 1.51327 30.5533 2.21994 30.14C2.93994 29.7133 3.77994 29.5 4.73994 29.5C5.71327 29.5 6.55327 29.7133 7.25994 30.14C7.97994 30.5533 8.53328 31.1466 8.91994 31.92C9.31994 32.6933 9.51994 33.62 9.51994 34.7C9.51994 35.7666 9.31994 36.6933 8.91994 37.48C8.53328 38.2533 7.97994 38.8533 7.25994 39.28C6.55327 39.6933 5.71327 39.9 4.73994 39.9ZM4.73994 38.58C5.69994 38.58 6.45994 38.2533 7.01994 37.6C7.57994 36.9333 7.85994 35.9666 7.85994 34.7C7.85994 33.42 7.57328 32.4533 6.99994 31.8C6.43994 31.1333 5.68661 30.8 4.73994 30.8C3.79328 30.8 3.03994 31.1333 2.47994 31.8C1.91994 32.4533 1.63994 33.42 1.63994 34.7C1.63994 35.9666 1.91994 36.9333 2.47994 37.6C3.03994 38.2533 3.79328 38.58 4.73994 38.58ZM14.301 39.72V30.98H10.661V29.68H19.581V30.98H15.921V39.72H14.301ZM21.2626 39.72V29.68H29.9626V39.72H28.3426V30.96H22.8826V39.72H21.2626ZM33.2371 44.04V32C33.2371 31.6266 33.2171 31.2466 33.1771 30.86C33.1505 30.46 33.1171 30.0666 33.0771 29.68H34.6371L34.8571 32.06H34.6171C34.8305 31.2733 35.2638 30.6533 35.9171 30.2C36.5705 29.7333 37.3505 29.5 38.2571 29.5C39.1638 29.5 39.9438 29.7066 40.5971 30.12C41.2638 30.5333 41.7838 31.1266 42.1571 31.9C42.5305 32.6733 42.7171 33.6066 42.7171 34.7C42.7171 35.78 42.5305 36.7066 42.1571 37.48C41.7971 38.2533 41.2838 38.8533 40.6171 39.28C39.9505 39.6933 39.1638 39.9 38.2571 39.9C37.3638 39.9 36.5905 39.6733 35.9371 39.22C35.2838 38.7666 34.8505 38.1466 34.6371 37.36H34.8571V44.04H33.2371ZM37.9371 38.58C38.8971 38.58 39.6571 38.2533 40.2171 37.6C40.7905 36.9333 41.0771 35.9666 41.0771 34.7C41.0771 33.42 40.7905 32.4533 40.2171 31.8C39.6571 31.1333 38.8971 30.8 37.9371 30.8C36.9905 30.8 36.2305 31.1333 35.6571 31.8C35.0971 32.4533 34.8171 33.42 34.8171 34.7C34.8171 35.9666 35.0971 36.9333 35.6571 37.6C36.2305 38.2533 36.9905 38.58 37.9371 38.58ZM49.2642 39.9C48.3708 39.9 47.5908 39.6933 46.9242 39.28C46.2575 38.8533 45.7375 38.2533 45.3642 37.48C45.0042 36.7066 44.8242 35.78 44.8242 34.7C44.8242 33.6066 45.0042 32.6733 45.3642 31.9C45.7375 31.1266 46.2575 30.5333 46.9242 30.12C47.5908 29.7066 48.3708 29.5 49.2642 29.5C50.1708 29.5 50.9508 29.7333 51.6042 30.2C52.2708 30.6533 52.7108 31.2733 52.9242 32.06H52.6842L52.9042 29.68H54.4642C54.4242 30.0666 54.3842 30.46 54.3442 30.86C54.3175 31.2466 54.3042 31.6266 54.3042 32V39.72H52.6842V37.36H52.9042C52.6908 38.1466 52.2508 38.7666 51.5842 39.22C50.9175 39.6733 50.1442 39.9 49.2642 39.9ZM49.5842 38.58C50.5442 38.58 51.3042 38.2533 51.8642 37.6C52.4242 36.9333 52.7042 35.9666 52.7042 34.7C52.7042 33.42 52.4242 32.4533 51.8642 31.8C51.3042 31.1333 50.5442 30.8 49.5842 30.8C48.6375 30.8 47.8775 31.1333 47.3042 31.8C46.7442 32.4533 46.4642 33.42 46.4642 34.7C46.4642 35.9666 46.7442 36.9333 47.3042 37.6C47.8775 38.2533 48.6375 38.58 49.5842 38.58ZM57.5712 39.72V29.68H62.4112C63.5712 29.68 64.4379 29.9066 65.0112 30.36C65.5979 30.8 65.8912 31.4533 65.8912 32.32C65.8912 32.96 65.6645 33.5 65.2112 33.94C64.7712 34.3666 64.1979 34.62 63.4912 34.7V34.46C64.3179 34.4866 64.9779 34.7266 65.4712 35.18C65.9645 35.6333 66.2112 36.22 66.2112 36.94C66.2112 37.8066 65.8912 38.4866 65.2512 38.98C64.6245 39.4733 63.7312 39.72 62.5712 39.72H57.5712ZM59.1112 38.62H62.4912C63.1979 38.62 63.7379 38.4733 64.1112 38.18C64.4979 37.8733 64.6912 37.44 64.6912 36.88C64.6912 36.32 64.4979 35.8933 64.1112 35.6C63.7379 35.3066 63.1979 35.16 62.4912 35.16H59.1112V38.62ZM59.1112 34.06H62.3112C62.9645 34.06 63.4712 33.9133 63.8312 33.62C64.1912 33.3266 64.3712 32.92 64.3712 32.4C64.3712 31.88 64.1912 31.48 63.8312 31.2C63.4712 30.9066 62.9645 30.76 62.3112 30.76H59.1112V34.06ZM68.7235 39.72V29.68H70.3435V33.9H72.2435L75.5635 29.68H77.3435L73.5435 34.54L73.1035 34.04C73.4902 34.08 73.8235 34.1733 74.1035 34.32C74.3835 34.4666 74.6502 34.6866 74.9035 34.98C75.1702 35.2733 75.4569 35.68 75.7635 36.2L77.8435 39.72H76.1035L74.2635 36.6C74.0369 36.2133 73.8169 35.92 73.6035 35.72C73.4035 35.52 73.1702 35.38 72.9035 35.3C72.6502 35.22 72.3302 35.18 71.9435 35.18H70.3435V39.72H68.7235ZM79.4853 39.72V29.68H80.9653V38.22H80.4253L86.8253 29.68H88.1853V39.72H86.7253V31.16H87.2653L80.8653 39.72H79.4853ZM96.5946 39.72V29.68H105.295V39.72H103.675V30.96H98.2146V39.72H96.5946ZM112.689 39.9C111.729 39.9 110.889 39.6933 110.169 39.28C109.462 38.8533 108.916 38.2533 108.529 37.48C108.142 36.6933 107.949 35.7666 107.949 34.7C107.949 33.62 108.142 32.6933 108.529 31.92C108.916 31.1466 109.462 30.5533 110.169 30.14C110.889 29.7133 111.729 29.5 112.689 29.5C113.662 29.5 114.502 29.7133 115.209 30.14C115.929 30.5533 116.482 31.1466 116.869 31.92C117.269 32.6933 117.469 33.62 117.469 34.7C117.469 35.7666 117.269 36.6933 116.869 37.48C116.482 38.2533 115.929 38.8533 115.209 39.28C114.502 39.6933 113.662 39.9 112.689 39.9ZM112.689 38.58C113.649 38.58 114.409 38.2533 114.969 37.6C115.529 36.9333 115.809 35.9666 115.809 34.7C115.809 33.42 115.522 32.4533 114.949 31.8C114.389 31.1333 113.636 30.8 112.689 30.8C111.742 30.8 110.989 31.1333 110.429 31.8C109.869 32.4533 109.589 33.42 109.589 34.7C109.589 35.9666 109.869 36.9333 110.429 37.6C110.989 38.2533 111.742 38.58 112.689 38.58ZM124.41 39.9C123.424 39.9 122.564 39.6866 121.83 39.26C121.11 38.8333 120.55 38.2266 120.15 37.44C119.764 36.6533 119.57 35.72 119.57 34.64C119.57 33.5466 119.77 32.62 120.17 31.86C120.57 31.0866 121.13 30.5 121.85 30.1C122.584 29.7 123.437 29.5 124.41 29.5C125.05 29.5 125.67 29.6133 126.27 29.84C126.884 30.0666 127.39 30.3866 127.79 30.8L127.21 31.96C126.81 31.5733 126.37 31.2866 125.89 31.1C125.424 30.9133 124.964 30.82 124.51 30.82C123.47 30.82 122.664 31.1466 122.09 31.8C121.517 32.4533 121.23 33.4066 121.23 34.66C121.23 35.9 121.517 36.86 122.09 37.54C122.664 38.22 123.47 38.56 124.51 38.56C124.95 38.56 125.404 38.4733 125.87 38.3C126.35 38.1266 126.797 37.84 127.21 37.44L127.79 38.58C127.377 39.0066 126.864 39.3333 126.25 39.56C125.637 39.7866 125.024 39.9 124.41 39.9ZM132.348 39.72V30.98H128.708V29.68H137.628V30.98H133.968V39.72H132.348ZM143.209 39.9C142.316 39.9 141.536 39.6933 140.869 39.28C140.203 38.8533 139.683 38.2533 139.309 37.48C138.949 36.7066 138.769 35.78 138.769 34.7C138.769 33.6066 138.949 32.6733 139.309 31.9C139.683 31.1266 140.203 30.5333 140.869 30.12C141.536 29.7066 142.316 29.5 143.209 29.5C144.116 29.5 144.896 29.7333 145.549 30.2C146.216 30.6533 146.656 31.2733 146.869 32.06H146.629L146.849 29.68H148.409C148.369 30.0666 148.329 30.46 148.289 30.86C148.263 31.2466 148.249 31.6266 148.249 32V39.72H146.629V37.36H146.849C146.636 38.1466 146.196 38.7666 145.529 39.22C144.863 39.6733 144.089 39.9 143.209 39.9ZM143.529 38.58C144.489 38.58 145.249 38.2533 145.809 37.6C146.369 36.9333 146.649 35.9666 146.649 34.7C146.649 33.42 146.369 32.4533 145.809 31.8C145.249 31.1333 144.489 30.8 143.529 30.8C142.583 30.8 141.823 31.1333 141.249 31.8C140.689 32.4533 140.409 33.42 140.409 34.7C140.409 35.9666 140.689 36.9333 141.249 37.6C141.823 38.2533 142.583 38.58 143.529 38.58ZM151.517 39.72V29.68H156.357C157.517 29.68 158.383 29.9066 158.957 30.36C159.543 30.8 159.837 31.4533 159.837 32.32C159.837 32.96 159.61 33.5 159.157 33.94C158.717 34.3666 158.143 34.62 157.437 34.7V34.46C158.263 34.4866 158.923 34.7266 159.417 35.18C159.91 35.6333 160.157 36.22 160.157 36.94C160.157 37.8066 159.837 38.4866 159.197 38.98C158.57 39.4733 157.677 39.72 156.517 39.72H151.517ZM153.057 38.62H156.437C157.143 38.62 157.683 38.4733 158.057 38.18C158.443 37.8733 158.637 37.44 158.637 36.88C158.637 36.32 158.443 35.8933 158.057 35.6C157.683 35.3066 157.143 35.16 156.437 35.16H153.057V38.62ZM153.057 34.06H156.257C156.91 34.06 157.417 33.9133 157.777 33.62C158.137 33.3266 158.317 32.92 158.317 32.4C158.317 31.88 158.137 31.48 157.777 31.2C157.417 30.9066 156.91 30.76 156.257 30.76H153.057V34.06ZM176.009 42.32V39.72H162.669V29.68H164.209V38.44H168.469V29.68H169.989V38.44H174.249V29.68H175.809V38.44H177.389V42.32H176.009ZM179.524 39.72V29.68H181.004V38.22H180.464L186.864 29.68H188.224V39.72H186.764V31.16H187.304L180.904 39.72H179.524ZM191.419 39.72V29.68H193.039V33.9H194.939L198.259 29.68H200.039L196.239 34.54L195.799 34.04C196.186 34.08 196.519 34.1733 196.799 34.32C197.079 34.4666 197.346 34.6866 197.599 34.98C197.866 35.2733 198.152 35.68 198.459 36.2L200.539 39.72H198.799L196.959 36.6C196.732 36.2133 196.512 35.92 196.299 35.72C196.099 35.52 195.866 35.38 195.599 35.3C195.346 35.22 195.026 35.18 194.639 35.18H193.039V39.72H191.419ZM206.081 39.9C205.187 39.9 204.407 39.6933 203.741 39.28C203.074 38.8533 202.554 38.2533 202.181 37.48C201.821 36.7066 201.641 35.78 201.641 34.7C201.641 33.6066 201.821 32.6733 202.181 31.9C202.554 31.1266 203.074 30.5333 203.741 30.12C204.407 29.7066 205.187 29.5 206.081 29.5C206.987 29.5 207.767 29.7333 208.421 30.2C209.087 30.6533 209.527 31.2733 209.741 32.06H209.501L209.721 29.68H211.281C211.241 30.0666 211.201 30.46 211.161 30.86C211.134 31.2466 211.121 31.6266 211.121 32V39.72H209.501V37.36H209.721C209.507 38.1466 209.067 38.7666 208.401 39.22C207.734 39.6733 206.961 39.9 206.081 39.9ZM206.401 38.58C207.361 38.58 208.121 38.2533 208.681 37.6C209.241 36.9333 209.521 35.9666 209.521 34.7C209.521 33.42 209.241 32.4533 208.681 31.8C208.121 31.1333 207.361 30.8 206.401 30.8C205.454 30.8 204.694 31.1333 204.121 31.8C203.561 32.4533 203.281 33.42 203.281 34.7C203.281 35.9666 203.561 36.9333 204.121 37.6C204.694 38.2533 205.454 38.58 206.401 38.58ZM214.388 39.72V29.68H215.748L219.508 36.42L223.288 29.68H224.648V39.72H223.208V31.48H223.628L219.928 38.1H219.108L215.388 31.46H215.828V39.72H214.388ZM228.345 42L227.585 41.42C227.945 41.0466 228.178 40.6933 228.285 40.36C228.405 40.04 228.465 39.7133 228.465 39.38L228.825 39.72H227.505V37.68H229.545V39.12C229.545 39.6533 229.458 40.1533 229.285 40.62C229.111 41.1 228.798 41.56 228.345 42ZM241.51 39.9C240.617 39.9 239.837 39.6933 239.17 39.28C238.504 38.8533 237.984 38.2533 237.61 37.48C237.25 36.7066 237.07 35.78 237.07 34.7C237.07 33.6066 237.25 32.6733 237.61 31.9C237.984 31.1266 238.504 30.5333 239.17 30.12C239.837 29.7066 240.617 29.5 241.51 29.5C242.417 29.5 243.197 29.7333 243.85 30.2C244.517 30.6533 244.957 31.2733 245.17 32.06H244.93L245.15 29.68H246.71C246.67 30.0666 246.63 30.46 246.59 30.86C246.564 31.2466 246.55 31.6266 246.55 32V39.72H244.93V37.36H245.15C244.937 38.1466 244.497 38.7666 243.83 39.22C243.164 39.6733 242.39 39.9 241.51 39.9ZM241.83 38.58C242.79 38.58 243.55 38.2533 244.11 37.6C244.67 36.9333 244.95 35.9666 244.95 34.7C244.95 33.42 244.67 32.4533 244.11 31.8C243.55 31.1333 242.79 30.8 241.83 30.8C240.884 30.8 240.124 31.1333 239.55 31.8C238.99 32.4533 238.71 33.42 238.71 34.7C238.71 35.9666 238.99 36.9333 239.55 37.6C240.124 38.2533 240.884 38.58 241.83 38.58ZM249.817 39.72V29.68H254.657C255.817 29.68 256.684 29.9066 257.257 30.36C257.844 30.8 258.137 31.4533 258.137 32.32C258.137 32.96 257.911 33.5 257.457 33.94C257.017 34.3666 256.444 34.62 255.737 34.7V34.46C256.564 34.4866 257.224 34.7266 257.717 35.18C258.211 35.6333 258.457 36.22 258.457 36.94C258.457 37.8066 258.137 38.4866 257.497 38.98C256.871 39.4733 255.977 39.72 254.817 39.72H249.817ZM251.357 38.62H254.737C255.444 38.62 255.984 38.4733 256.357 38.18C256.744 37.8733 256.937 37.44 256.937 36.88C256.937 36.32 256.744 35.8933 256.357 35.6C255.984 35.3066 255.444 35.16 254.737 35.16H251.357V38.62ZM251.357 34.06H254.557C255.211 34.06 255.717 33.9133 256.077 33.62C256.437 33.3266 256.617 32.92 256.617 32.4C256.617 31.88 256.437 31.48 256.077 31.2C255.717 30.9066 255.211 30.76 254.557 30.76H251.357V34.06ZM263.305 39.72V30.98H259.665V29.68H268.585V30.98H264.925V39.72H263.305ZM274.427 39.9C273.467 39.9 272.627 39.6933 271.907 39.28C271.201 38.8533 270.654 38.2533 270.267 37.48C269.881 36.6933 269.687 35.7666 269.687 34.7C269.687 33.62 269.881 32.6933 270.267 31.92C270.654 31.1466 271.201 30.5533 271.907 30.14C272.627 29.7133 273.467 29.5 274.427 29.5C275.401 29.5 276.241 29.7133 276.947 30.14C277.667 30.5533 278.221 31.1466 278.607 31.92C279.007 32.6933 279.207 33.62 279.207 34.7C279.207 35.7666 279.007 36.6933 278.607 37.48C278.221 38.2533 277.667 38.8533 276.947 39.28C276.241 39.6933 275.401 39.9 274.427 39.9ZM274.427 38.58C275.387 38.58 276.147 38.2533 276.707 37.6C277.267 36.9333 277.547 35.9666 277.547 34.7C277.547 33.42 277.261 32.4533 276.687 31.8C276.127 31.1333 275.374 30.8 274.427 30.8C273.481 30.8 272.727 31.1333 272.167 31.8C271.607 32.4533 271.327 33.42 271.327 34.7C271.327 35.9666 271.607 36.9333 272.167 37.6C272.727 38.2533 273.481 38.58 274.427 38.58ZM281.849 39.72V29.68H283.209L286.969 36.42L290.749 29.68H292.109V39.72H290.669V31.48H291.089L287.389 38.1H286.569L282.849 31.46H283.289V39.72H281.849ZM299.206 39.9C298.312 39.9 297.532 39.6933 296.866 39.28C296.199 38.8533 295.679 38.2533 295.306 37.48C294.946 36.7066 294.766 35.78 294.766 34.7C294.766 33.6066 294.946 32.6733 295.306 31.9C295.679 31.1266 296.199 30.5333 296.866 30.12C297.532 29.7066 298.312 29.5 299.206 29.5C300.112 29.5 300.892 29.7333 301.546 30.2C302.212 30.6533 302.652 31.2733 302.866 32.06H302.626L302.846 29.68H304.406C304.366 30.0666 304.326 30.46 304.286 30.86C304.259 31.2466 304.246 31.6266 304.246 32V39.72H302.626V37.36H302.846C302.632 38.1466 302.192 38.7666 301.526 39.22C300.859 39.6733 300.086 39.9 299.206 39.9ZM299.526 38.58C300.486 38.58 301.246 38.2533 301.806 37.6C302.366 36.9333 302.646 35.9666 302.646 34.7C302.646 33.42 302.366 32.4533 301.806 31.8C301.246 31.1333 300.486 30.8 299.526 30.8C298.579 30.8 297.819 31.1333 297.246 31.8C296.686 32.4533 296.406 33.42 296.406 34.7C296.406 35.9666 296.686 36.9333 297.246 37.6C297.819 38.2533 298.579 38.58 299.526 38.58ZM309.653 39.72V30.98H306.013V29.68H314.933V30.98H311.273V39.72H309.653ZM316.614 39.72V29.68H318.094V38.22H317.554L323.954 29.68H325.314V39.72H323.854V31.16H324.394L317.994 39.72H316.614ZM334.989 39.72V35.64C334.602 35.8666 334.182 36.04 333.729 36.16C333.275 36.28 332.789 36.34 332.269 36.34C330.855 36.34 329.802 36.0133 329.109 35.36C328.429 34.6933 328.089 33.6866 328.089 32.34V29.68H329.709V32.22C329.709 33.1933 329.929 33.9 330.369 34.34C330.822 34.7666 331.529 34.98 332.489 34.98C332.982 34.98 333.422 34.9266 333.809 34.82C334.195 34.7133 334.575 34.5333 334.949 34.28V29.68H336.569V39.72H334.989ZM344.318 39.9C342.745 39.9 341.505 39.4466 340.598 38.54C339.692 37.62 339.238 36.3466 339.238 34.72C339.238 33.6666 339.438 32.7533 339.838 31.98C340.238 31.1933 340.798 30.5866 341.518 30.16C342.238 29.72 343.065 29.5 343.998 29.5C344.918 29.5 345.692 29.6933 346.318 30.08C346.945 30.4666 347.425 31.02 347.758 31.74C348.092 32.4466 348.258 33.2866 348.258 34.26V34.86H340.478V33.84H347.198L346.858 34.1C346.858 33.0333 346.618 32.2 346.138 31.6C345.658 31 344.945 30.7 343.998 30.7C342.998 30.7 342.218 31.0533 341.658 31.76C341.098 32.4533 340.818 33.3933 340.818 34.58V34.76C340.818 36.0133 341.125 36.9666 341.738 37.62C342.365 38.26 343.238 38.58 344.358 38.58C344.958 38.58 345.518 38.4933 346.038 38.32C346.572 38.1333 347.078 37.8333 347.558 37.42L348.118 38.56C347.678 38.9866 347.118 39.32 346.438 39.56C345.772 39.7866 345.065 39.9 344.318 39.9ZM355.152 39.9C354.166 39.9 353.306 39.6866 352.572 39.26C351.852 38.8333 351.292 38.2266 350.892 37.44C350.506 36.6533 350.312 35.72 350.312 34.64C350.312 33.5466 350.512 32.62 350.912 31.86C351.312 31.0866 351.872 30.5 352.592 30.1C353.326 29.7 354.179 29.5 355.152 29.5C355.792 29.5 356.412 29.6133 357.012 29.84C357.626 30.0666 358.132 30.3866 358.532 30.8L357.952 31.96C357.552 31.5733 357.112 31.2866 356.632 31.1C356.166 30.9133 355.706 30.82 355.252 30.82C354.212 30.82 353.406 31.1466 352.832 31.8C352.259 32.4533 351.972 33.4066 351.972 34.66C351.972 35.9 352.259 36.86 352.832 37.54C353.406 38.22 354.212 38.56 355.252 38.56C355.692 38.56 356.146 38.4733 356.612 38.3C357.092 38.1266 357.539 37.84 357.952 37.44L358.532 38.58C358.119 39.0066 357.606 39.3333 356.992 39.56C356.379 39.7866 355.766 39.9 355.152 39.9ZM360.95 39.72V29.68H362.57V33.9H364.47L367.79 29.68H369.57L365.77 34.54L365.33 34.04C365.717 34.08 366.05 34.1733 366.33 34.32C366.61 34.4666 366.877 34.6866 367.13 34.98C367.397 35.2733 367.683 35.68 367.99 36.2L370.07 39.72H368.33L366.49 36.6C366.263 36.2133 366.043 35.92 365.83 35.72C365.63 35.52 365.397 35.38 365.13 35.3C364.877 35.22 364.557 35.18 364.17 35.18H362.57V39.72H360.95ZM371.712 39.72V29.68H373.192V38.22H372.652L379.052 29.68H380.412V39.72H378.952V31.16H379.492L373.092 39.72H371.712ZM388.501 44.26L388.121 42.92C388.748 42.7733 389.268 42.6 389.681 42.4C390.108 42.2133 390.461 41.96 390.741 41.64C391.021 41.32 391.261 40.92 391.461 40.44L391.981 39.26L391.941 39.94L387.561 29.68H389.321L392.941 38.5H392.421L396.001 29.68H397.701L393.061 40.56C392.795 41.2 392.501 41.7333 392.181 42.16C391.861 42.6 391.515 42.9533 391.141 43.22C390.781 43.5 390.381 43.72 389.941 43.88C389.501 44.04 389.021 44.1666 388.501 44.26ZM406.122 39.72V35.64C405.735 35.8666 405.315 36.04 404.862 36.16C404.408 36.28 403.922 36.34 403.402 36.34C401.988 36.34 400.935 36.0133 400.242 35.36C399.562 34.6933 399.222 33.6866 399.222 32.34V29.68H400.842V32.22C400.842 33.1933 401.062 33.9 401.502 34.34C401.955 34.7666 402.662 34.98 403.622 34.98C404.115 34.98 404.555 34.9266 404.942 34.82C405.328 34.7133 405.708 34.5333 406.082 34.28V29.68H407.702V39.72H406.122ZM410.911 39.72V29.68H412.391V38.22H411.851L418.251 29.68H419.611V39.72H418.151V31.16H418.691L412.291 39.72H410.911ZM424.946 39.72V30.98H421.306V29.68H430.226V30.98H426.566V39.72H424.946ZM431.907 39.72V29.68H433.527V33.28H436.547C437.84 33.28 438.814 33.56 439.467 34.12C440.134 34.6666 440.467 35.4466 440.467 36.46C440.467 37.14 440.314 37.7266 440.007 38.22C439.714 38.7 439.274 39.0733 438.687 39.34C438.114 39.5933 437.4 39.72 436.547 39.72H431.907ZM433.527 38.56H436.407C437.22 38.56 437.84 38.3933 438.267 38.06C438.694 37.7133 438.907 37.1866 438.907 36.48C438.907 35.7733 438.694 35.26 438.267 34.94C437.854 34.6066 437.234 34.44 436.407 34.44H433.527V38.56ZM441.987 39.72V29.68H443.587V39.72H441.987ZM446.79 39.72V29.68H451.63C452.79 29.68 453.657 29.9066 454.23 30.36C454.817 30.8 455.11 31.4533 455.11 32.32C455.11 32.96 454.883 33.5 454.43 33.94C453.99 34.3666 453.417 34.62 452.71 34.7V34.46C453.537 34.4866 454.197 34.7266 454.69 35.18C455.183 35.6333 455.43 36.22 455.43 36.94C455.43 37.8066 455.11 38.4866 454.47 38.98C453.843 39.4733 452.95 39.72 451.79 39.72H446.79ZM448.33 38.62H451.71C452.417 38.62 452.957 38.4733 453.33 38.18C453.717 37.8733 453.91 37.44 453.91 36.88C453.91 36.32 453.717 35.8933 453.33 35.6C452.957 35.3066 452.417 35.16 451.71 35.16H448.33V38.62ZM448.33 34.06H451.53C452.183 34.06 452.69 33.9133 453.05 33.62C453.41 33.3266 453.59 32.92 453.59 32.4C453.59 31.88 453.41 31.48 453.05 31.2C452.69 30.9066 452.183 30.76 451.53 30.76H448.33V34.06ZM461.842 39.9C460.949 39.9 460.169 39.6933 459.502 39.28C458.836 38.8533 458.316 38.2533 457.942 37.48C457.582 36.7066 457.402 35.78 457.402 34.7C457.402 33.6066 457.582 32.6733 457.942 31.9C458.316 31.1266 458.836 30.5333 459.502 30.12C460.169 29.7066 460.949 29.5 461.842 29.5C462.749 29.5 463.529 29.7333 464.182 30.2C464.849 30.6533 465.289 31.2733 465.502 32.06H465.262L465.482 29.68H467.042C467.002 30.0666 466.962 30.46 466.922 30.86C466.896 31.2466 466.882 31.6266 466.882 32V39.72H465.262V37.36H465.482C465.269 38.1466 464.829 38.7666 464.162 39.22C463.496 39.6733 462.722 39.9 461.842 39.9ZM462.162 38.58C463.122 38.58 463.882 38.2533 464.442 37.6C465.002 36.9333 465.282 35.9666 465.282 34.7C465.282 33.42 465.002 32.4533 464.442 31.8C463.882 31.1333 463.122 30.8 462.162 30.8C461.216 30.8 460.456 31.1333 459.882 31.8C459.322 32.4533 459.042 33.42 459.042 34.7C459.042 35.9666 459.322 36.9333 459.882 37.6C460.456 38.2533 461.216 38.58 462.162 38.58ZM469.349 39.72L470.949 36.96C471.203 36.52 471.523 36.1666 471.909 35.9C472.296 35.62 472.703 35.48 473.129 35.48H473.409L473.389 35.66C472.256 35.66 471.376 35.4066 470.749 34.9C470.123 34.38 469.809 33.6333 469.809 32.66C469.809 31.7266 470.116 31 470.729 30.48C471.343 29.9466 472.256 29.68 473.469 29.68H477.929V39.72H476.409V35.84H474.909C474.349 35.84 473.876 35.98 473.489 36.26C473.103 36.54 472.776 36.8933 472.509 37.32L471.149 39.72H469.349ZM473.749 34.7H476.409V30.8H473.749C472.936 30.8 472.329 30.9733 471.929 31.32C471.543 31.6666 471.349 32.14 471.349 32.74C471.349 33.3666 471.543 33.8533 471.929 34.2C472.329 34.5333 472.936 34.7 473.749 34.7ZM0.539942 64.72V54.68H5.37994C6.53994 54.68 7.40661 54.9066 7.97994 55.36C8.56661 55.8 8.85994 56.4533 8.85994 57.32C8.85994 57.96 8.63328 58.5 8.17994 58.94C7.73994 59.3666 7.16661 59.62 6.45994 59.7V59.46C7.28661 59.4866 7.94661 59.7266 8.43994 60.18C8.93328 60.6333 9.17994 61.22 9.17994 61.94C9.17994 62.8066 8.85994 63.4866 8.21994 63.98C7.59328 64.4733 6.69994 64.72 5.53994 64.72H0.539942ZM2.07994 63.62H5.45994C6.16661 63.62 6.70661 63.4733 7.07994 63.18C7.46661 62.8733 7.65994 62.44 7.65994 61.88C7.65994 61.32 7.46661 60.8933 7.07994 60.6C6.70661 60.3066 6.16661 60.16 5.45994 60.16H2.07994V63.62ZM2.07994 59.06H5.27994C5.93328 59.06 6.43994 58.9133 6.79994 58.62C7.15994 58.3266 7.33994 57.92 7.33994 57.4C7.33994 56.88 7.15994 56.48 6.79994 56.2C6.43994 55.9066 5.93328 55.76 5.27994 55.76H2.07994V59.06ZM11.6923 64.72V54.68H13.3123V58.28H16.3323C17.6256 58.28 18.599 58.56 19.2523 59.12C19.919 59.6666 20.2523 60.4466 20.2523 61.46C20.2523 62.14 20.099 62.7266 19.7923 63.22C19.499 63.7 19.059 64.0733 18.4723 64.34C17.899 64.5933 17.1856 64.72 16.3323 64.72H11.6923ZM13.3123 63.56H16.1923C17.0056 63.56 17.6256 63.3933 18.0523 63.06C18.479 62.7133 18.6923 62.1866 18.6923 61.48C18.6923 60.7733 18.479 60.26 18.0523 59.94C17.639 59.6066 17.019 59.44 16.1923 59.44H13.3123V63.56ZM21.7723 64.72V54.68H23.3723V64.72H21.7723ZM30.8351 64.9C29.3684 64.9 28.2018 64.4266 27.3351 63.48C26.4684 62.5333 26.0351 61.1533 26.0351 59.34V57.58C26.0351 55.7266 26.4151 54.2266 27.1751 53.08C27.9351 51.9333 29.1351 51.16 30.7751 50.76L34.4351 49.84L34.9351 51.16L30.8751 52.16C30.1284 52.3466 29.5151 52.6733 29.0351 53.14C28.5551 53.5933 28.1884 54.14 27.9351 54.78C27.6951 55.4066 27.5751 56.0733 27.5751 56.78V57.58H27.3351C27.4951 56.98 27.7551 56.4666 28.1151 56.04C28.4751 55.6 28.9151 55.2666 29.4351 55.04C29.9684 54.8 30.5551 54.68 31.1951 54.68C32.0618 54.68 32.8218 54.8866 33.4751 55.3C34.1284 55.7 34.6351 56.28 34.9951 57.04C35.3684 57.7866 35.5551 58.6866 35.5551 59.74C35.5551 60.7933 35.3618 61.7066 34.9751 62.48C34.5884 63.2533 34.0418 63.8533 33.3351 64.28C32.6284 64.6933 31.7951 64.9 30.8351 64.9ZM30.7951 63.6C31.7684 63.6 32.5351 63.28 33.0951 62.64C33.6551 61.9866 33.9351 61.0333 33.9351 59.78C33.9351 58.54 33.6484 57.6 33.0751 56.96C32.5151 56.3066 31.7551 55.98 30.7951 55.98C29.8351 55.98 29.0684 56.3 28.4951 56.94C27.9351 57.58 27.6551 58.4866 27.6551 59.66C27.6551 60.9666 27.9351 61.9533 28.4951 62.62C29.0551 63.2733 29.8218 63.6 30.7951 63.6ZM38.2957 69.04V57C38.2957 56.6266 38.2757 56.2466 38.2357 55.86C38.2091 55.46 38.1757 55.0666 38.1357 54.68H39.6957L39.9157 57.06H39.6757C39.8891 56.2733 40.3224 55.6533 40.9757 55.2C41.6291 54.7333 42.4091 54.5 43.3157 54.5C44.2224 54.5 45.0024 54.7066 45.6557 55.12C46.3224 55.5333 46.8424 56.1266 47.2157 56.9C47.5891 57.6733 47.7757 58.6066 47.7757 59.7C47.7757 60.78 47.5891 61.7066 47.2157 62.48C46.8557 63.2533 46.3424 63.8533 45.6757 64.28C45.0091 64.6933 44.2224 64.9 43.3157 64.9C42.4224 64.9 41.6491 64.6733 40.9957 64.22C40.3424 63.7666 39.9091 63.1466 39.6957 62.36H39.9157V69.04H38.2957ZM42.9957 63.58C43.9557 63.58 44.7157 63.2533 45.2757 62.6C45.8491 61.9333 46.1357 60.9666 46.1357 59.7C46.1357 58.42 45.8491 57.4533 45.2757 56.8C44.7157 56.1333 43.9557 55.8 42.9957 55.8C42.0491 55.8 41.2891 56.1333 40.7157 56.8C40.1557 57.4533 39.8757 58.42 39.8757 59.7C39.8757 60.9666 40.1557 61.9333 40.7157 62.6C41.2891 63.2533 42.0491 63.58 42.9957 63.58ZM54.3228 64.9C53.4294 64.9 52.6494 64.6933 51.9828 64.28C51.3161 63.8533 50.7961 63.2533 50.4228 62.48C50.0628 61.7066 49.8828 60.78 49.8828 59.7C49.8828 58.6066 50.0628 57.6733 50.4228 56.9C50.7961 56.1266 51.3161 55.5333 51.9828 55.12C52.6494 54.7066 53.4294 54.5 54.3228 54.5C55.2294 54.5 56.0094 54.7333 56.6628 55.2C57.3294 55.6533 57.7694 56.2733 57.9828 57.06H57.7428L57.9628 54.68H59.5228C59.4828 55.0666 59.4428 55.46 59.4028 55.86C59.3761 56.2466 59.3628 56.6266 59.3628 57V64.72H57.7428V62.36H57.9628C57.7494 63.1466 57.3094 63.7666 56.6428 64.22C55.9761 64.6733 55.2028 64.9 54.3228 64.9ZM54.6428 63.58C55.6028 63.58 56.3628 63.2533 56.9228 62.6C57.4828 61.9333 57.7628 60.9666 57.7628 59.7C57.7628 58.42 57.4828 57.4533 56.9228 56.8C56.3628 56.1333 55.6028 55.8 54.6428 55.8C53.6961 55.8 52.9361 56.1333 52.3628 56.8C51.8028 57.4533 51.5228 58.42 51.5228 59.7C51.5228 60.9666 51.8028 61.9333 52.3628 62.6C52.9361 63.2533 53.6961 63.58 54.6428 63.58ZM62.6298 64.72V54.68H64.2498V58.88H69.7698V54.68H71.3898V64.72H69.7698V60.18H64.2498V64.72H62.6298ZM74.5829 64.72V54.68H76.2029V58.88H81.7229V54.68H83.3429V64.72H81.7229V60.18H76.2029V64.72H74.5829ZM86.536 64.72V54.68H88.156V58.28H91.176C92.4694 58.28 93.4427 58.56 94.096 59.12C94.7627 59.6666 95.096 60.4466 95.096 61.46C95.096 62.14 94.9427 62.7266 94.636 63.22C94.3427 63.7 93.9027 64.0733 93.316 64.34C92.7427 64.5933 92.0294 64.72 91.176 64.72H86.536ZM88.156 63.56H91.036C91.8494 63.56 92.4694 63.3933 92.896 63.06C93.3227 62.7133 93.536 62.1866 93.536 61.48C93.536 60.7733 93.3227 60.26 92.896 59.94C92.4827 59.6066 91.8627 59.44 91.036 59.44H88.156V63.56ZM96.616 64.72V54.68H98.216V64.72H96.616ZM105.959 64.9C104.386 64.9 103.146 64.4466 102.239 63.54C101.332 62.62 100.879 61.3466 100.879 59.72C100.879 58.6666 101.079 57.7533 101.479 56.98C101.879 56.1933 102.439 55.5866 103.159 55.16C103.879 54.72 104.706 54.5 105.639 54.5C106.559 54.5 107.332 54.6933 107.959 55.08C108.586 55.4666 109.066 56.02 109.399 56.74C109.732 57.4466 109.899 58.2866 109.899 59.26V59.86H102.119V58.84H108.839L108.499 59.1C108.499 58.0333 108.259 57.2 107.779 56.6C107.299 56 106.586 55.7 105.639 55.7C104.639 55.7 103.859 56.0533 103.299 56.76C102.739 57.4533 102.459 58.3933 102.459 59.58V59.76C102.459 61.0133 102.766 61.9666 103.379 62.62C104.006 63.26 104.879 63.58 105.999 63.58C106.599 63.58 107.159 63.4933 107.679 63.32C108.212 63.1333 108.719 62.8333 109.199 62.42L109.759 63.56C109.319 63.9866 108.759 64.32 108.079 64.56C107.412 64.7866 106.706 64.9 105.959 64.9ZM117.708 64.72V54.68H126.408V64.72H124.788V55.96H119.328V64.72H117.708ZM133.802 64.9C132.842 64.9 132.002 64.6933 131.282 64.28C130.576 63.8533 130.029 63.2533 129.642 62.48C129.256 61.6933 129.062 60.7666 129.062 59.7C129.062 58.62 129.256 57.6933 129.642 56.92C130.029 56.1466 130.576 55.5533 131.282 55.14C132.002 54.7133 132.842 54.5 133.802 54.5C134.776 54.5 135.616 54.7133 136.322 55.14C137.042 55.5533 137.596 56.1466 137.982 56.92C138.382 57.6933 138.582 58.62 138.582 59.7C138.582 60.7666 138.382 61.6933 137.982 62.48C137.596 63.2533 137.042 63.8533 136.322 64.28C135.616 64.6933 134.776 64.9 133.802 64.9ZM133.802 63.58C134.762 63.58 135.522 63.2533 136.082 62.6C136.642 61.9333 136.922 60.9666 136.922 59.7C136.922 58.42 136.636 57.4533 136.062 56.8C135.502 56.1333 134.749 55.8 133.802 55.8C132.856 55.8 132.102 56.1333 131.542 56.8C130.982 57.4533 130.702 58.42 130.702 59.7C130.702 60.9666 130.982 61.9333 131.542 62.6C132.102 63.2533 132.856 63.58 133.802 63.58ZM144.544 64.9C143.69 64.9 142.884 64.7866 142.124 64.56C141.377 64.32 140.764 63.9933 140.284 63.58L140.844 62.44C141.337 62.84 141.89 63.1466 142.504 63.36C143.13 63.56 143.81 63.66 144.544 63.66C145.53 63.66 146.244 63.5066 146.684 63.2C147.124 62.8933 147.344 62.46 147.344 61.9C147.344 61.3533 147.157 60.94 146.784 60.66C146.41 60.3666 145.864 60.22 145.144 60.22H142.784V59.02H144.944C145.584 59.02 146.084 58.88 146.444 58.6C146.817 58.3066 147.004 57.9066 147.004 57.4C147.004 56.88 146.804 56.4733 146.404 56.18C146.004 55.8733 145.377 55.72 144.524 55.72C143.844 55.72 143.21 55.8133 142.624 56C142.05 56.1733 141.504 56.4533 140.984 56.84L140.444 55.74C140.99 55.3133 141.624 55 142.344 54.8C143.064 54.6 143.844 54.5 144.684 54.5C145.937 54.5 146.89 54.7466 147.544 55.24C148.197 55.72 148.524 56.4066 148.524 57.3C148.524 57.9266 148.31 58.4666 147.884 58.92C147.457 59.36 146.89 59.62 146.184 59.7V59.46C146.984 59.4866 147.63 59.7266 148.124 60.18C148.617 60.6333 148.864 61.2266 148.864 61.96C148.864 62.8533 148.497 63.5666 147.764 64.1C147.044 64.6333 145.97 64.9 144.544 64.9ZM151.38 64.72V54.68H152.86V63.22H152.32L158.72 54.68H160.08V64.72H158.62V56.16H159.16L152.76 64.72H151.38ZM171.954 67.32V64.72H163.274V54.68H164.894V63.44H170.154V54.68H171.734V63.44H173.334V67.32H171.954ZM175.501 64.72V54.68H176.981V63.22H176.441L182.841 54.68H184.201V64.72H182.741V56.16H183.281L176.881 64.72H175.501ZM187.395 64.72V54.68H188.875V63.22H188.335L194.735 54.68H196.095V64.72H194.635V56.16H195.175L188.775 64.72H187.395ZM198.95 64.72V62.68H200.99V64.72H198.95Z" fill="#342F2C"/>
</svg>
