<svg width="120" height="120" viewBox="0 0 120 120" fill="none" xmlns="http://www.w3.org/2000/svg">
<g filter="url(#filter0_d_172_105)">
<path d="M69.1195 22.3265C69.1195 27.3656 65.0492 31.4479 60.0101 31.4589H59.9872C54.9481 31.447 50.8777 27.3656 50.8777 22.3265C50.8777 17.2875 54.9601 13.2051 59.9872 13.1941H60.0101C65.0492 13.2051 69.1195 17.2875 69.1195 22.3265Z" fill="#8E9934" stroke="#8E9934" stroke-width="0.390625"/>
<path d="M102.619 50.51L100.635 51.9282L88.8383 60.3574C87.2819 61.4762 85.2631 61.4762 83.7296 60.5305H83.7177C83.4641 60.3574 83.2215 60.1615 83.0027 59.9427L82.7949 59.7816L72.0366 51.0757L72.0485 102.102C72.0485 104.696 69.9382 106.806 67.3436 106.806C66.0408 106.806 64.8644 106.276 64.0111 105.423C63.1578 104.57 62.6277 103.393 62.6277 102.09V75.7865H57.3231V102.1C57.3231 103.403 56.793 104.579 55.9397 105.432C55.0865 106.286 53.91 106.816 52.6072 106.816C50.0126 106.816 47.9023 104.705 47.9023 102.111L47.9142 51.0851L37.1559 59.791L36.96 59.9521C36.7293 60.1709 36.4986 60.3787 36.245 60.5399H36.2331C34.6996 61.4856 32.6818 61.4856 31.1244 60.3668L19.3625 51.9284L17.3795 50.5102C15.304 49.0344 14.8307 46.1513 16.3074 44.0759C17.7833 42.0004 20.6663 41.5271 22.7417 43.0039L33.512 50.6951L44.4552 39.0258C45.378 38.103 46.6002 37.6306 47.8105 37.6306H47.9258L54.4637 37.6296L54.4866 37.6754L59.9991 46.8315L65.5116 37.6754L65.5345 37.6296H72.0614H72.1767C73.3871 37.6296 74.6103 38.0911 75.5321 39.0249L86.4753 50.6942L97.2455 43.0029C99.321 41.5271 102.204 41.9995 103.68 44.075C105.178 46.1514 104.694 49.0344 102.619 50.5103L102.619 50.51Z" fill="#8E9934" stroke="#8E9934" stroke-width="0.390625"/>
<path d="M28.2657 78.4735C25.7515 74.5531 23.2376 70.632 20.7125 66.7116C20.3554 66.1467 19.9974 65.5929 19.6285 65.028C19.1322 64.2443 18.0373 64.2443 17.5411 65.028C15.0269 68.9484 12.513 72.8695 9.98787 76.7898C9.63083 77.3547 9.27284 77.9086 8.90389 78.4735C8.06253 79.7882 10.149 81.0104 10.9913 79.6957C13.5054 75.7753 16.0193 71.8542 18.5445 67.9338C18.9015 67.3689 19.2595 66.8151 19.6285 66.2502H17.5411C20.0552 70.1706 22.5691 74.0917 25.0943 78.0121C25.4513 78.5769 25.8093 79.1308 26.1783 79.6957C27.0087 81.0104 29.107 79.7882 28.2657 78.4735Z" fill="#8E9934" stroke="#8E9934" stroke-width="0.390625"/>
<path d="M30.7336 85.1953C29.0152 89.5999 24.2527 92.7593 18.6487 92.7593C13.0448 92.7593 8.28234 89.5999 6.5639 85.1953H30.7336Z" fill="#8E9934" stroke="#8E9934" stroke-width="0.390625"/>
<path d="M29.9485 84.9774C27.0197 92.2877 16.9416 93.8332 10.9568 89.5212C9.3766 88.3795 8.06275 86.7884 7.33595 84.9774C7.08236 85.3234 6.81685 85.6576 6.56324 86.0037H14.7389H27.7578H30.7332C31.7714 86.0037 31.7714 84.3896 30.7332 84.3896H22.5575H9.53863H6.56324C6.09083 84.3896 5.58271 84.9087 5.79053 85.4159C9.12311 93.7526 20.5048 95.9435 27.4116 90.7315C29.2454 89.3482 30.6636 87.5492 31.5169 85.4159C31.6781 85.0121 31.3439 84.5278 30.952 84.4244C30.4906 84.2852 30.1105 84.5736 29.9485 84.9774Z" fill="#8E9934" stroke="#8E9934" stroke-width="0.390625"/>
<path d="M110.967 78.4735C108.453 74.5531 105.939 70.632 103.414 66.7116C103.057 66.1467 102.699 65.5929 102.33 65.028C101.834 64.2443 100.739 64.2443 100.243 65.028C97.7285 68.9484 95.2146 72.8695 92.6894 76.7898C92.3324 77.3547 91.9744 77.9086 91.6054 78.4735C90.7641 79.7882 92.8505 81.0104 93.6928 79.6957C96.207 75.7753 98.7209 71.8542 101.246 67.9338C101.603 67.3689 101.961 66.8151 102.33 66.2502H100.243C102.757 70.1706 105.271 74.0917 107.796 78.0121C108.153 78.5769 108.511 79.1308 108.88 79.6957C109.721 81.0104 111.821 79.7882 110.967 78.4735Z" fill="#8E9934" stroke="#8E9934" stroke-width="0.390625"/>
<path d="M113.435 85.1953C111.717 89.5999 106.954 92.7593 101.35 92.7593C95.7464 92.7593 90.9839 89.5999 89.2655 85.1953H113.435Z" fill="#8E9934" stroke="#8E9934" stroke-width="0.390625"/>
<path d="M112.664 84.9773C109.735 92.2877 99.6572 93.8332 93.6725 89.5322C92.0923 88.3905 90.7784 86.7994 90.0516 84.9884C89.7861 85.3344 89.5325 85.6686 89.2679 86.0147H97.4436H110.462H113.438C114.476 86.0147 114.476 84.4006 113.438 84.4006H105.262H92.2433H89.2679C88.7955 84.4006 88.2874 84.9197 88.4952 85.4269C91.8278 93.7636 103.209 95.9545 110.116 90.7425C111.95 89.3592 113.368 87.5602 114.222 85.4269C114.383 85.0231 114.049 84.5388 113.657 84.4354C113.194 84.2852 112.825 84.5736 112.664 84.9773Z" fill="#8E9934" stroke="#8E9934" stroke-width="0.390625"/>
</g>
<defs>
<filter id="filter0_d_172_105" x="1.54718" y="12.9988" width="116.911" height="102.012" filterUnits="userSpaceOnUse" color-interpolation-filters="sRGB">
<feFlood flood-opacity="0" result="BackgroundImageFix"/>
<feColorMatrix in="SourceAlpha" type="matrix" values="0 0 0 0 0 0 0 0 0 0 0 0 0 0 0 0 0 0 127 0" result="hardAlpha"/>
<feOffset dy="4"/>
<feGaussianBlur stdDeviation="2"/>
<feComposite in2="hardAlpha" operator="out"/>
<feColorMatrix type="matrix" values="0 0 0 0 0 0 0 0 0 0 0 0 0 0 0 0 0 0 0.25 0"/>
<feBlend mode="normal" in2="BackgroundImageFix" result="effect1_dropShadow_172_105"/>
<feBlend mode="normal" in="SourceGraphic" in2="effect1_dropShadow_172_105" result="shape"/>
</filter>
</defs>
</svg>
