<svg width="218" height="69" viewBox="0 0 218 69" fill="none" xmlns="http://www.w3.org/2000/svg">
<rect x="28.5145" y="9.0719" width="7.60402" height="21.9234" rx="1" fill="#1D252C"/>
<mask id="path-2-inside-1_57_106" fill="white">
<path d="M31.0948 55.3042C31.0745 55.8563 30.61 56.2895 30.0593 56.2456C25.3352 55.8688 20.8222 54.0782 17.1075 51.093C13.1318 47.898 10.2804 43.5035 8.97288 38.5561C7.66536 33.6086 7.9708 28.3695 9.84424 23.6098C11.5943 19.1636 14.6263 15.355 18.5392 12.6673C18.9962 12.3534 19.6172 12.4993 19.9089 12.9708L23.0848 18.104C23.3743 18.5718 23.2293 19.183 22.7824 19.5039C20.3165 21.2742 18.4037 23.7269 17.2832 26.5737C16.0405 29.7308 15.8379 33.2059 16.7052 36.4875C17.5725 39.7691 19.4638 42.684 22.1009 44.8032C24.477 46.7126 27.3454 47.8852 30.3571 48.1905C30.9064 48.2462 31.3377 48.7067 31.3174 49.2585L31.0948 55.3042Z"/>
</mask>
<path d="M31.0948 55.3042C31.0745 55.8563 30.61 56.2895 30.0593 56.2456C25.3352 55.8688 20.8222 54.0782 17.1075 51.093C13.1318 47.898 10.2804 43.5035 8.97288 38.5561C7.66536 33.6086 7.9708 28.3695 9.84424 23.6098C11.5943 19.1636 14.6263 15.355 18.5392 12.6673C18.9962 12.3534 19.6172 12.4993 19.9089 12.9708L23.0848 18.104C23.3743 18.5718 23.2293 19.183 22.7824 19.5039C20.3165 21.2742 18.4037 23.7269 17.2832 26.5737C16.0405 29.7308 15.8379 33.2059 16.7052 36.4875C17.5725 39.7691 19.4638 42.684 22.1009 44.8032C24.477 46.7126 27.3454 47.8852 30.3571 48.1905C30.9064 48.2462 31.3377 48.7067 31.3174 49.2585L31.0948 55.3042Z" fill="#1D252C" stroke="#1D252C" stroke-width="100" mask="url(#path-2-inside-1_57_106)"/>
<mask id="path-3-inside-2_57_106" fill="white">
<path d="M55.3994 31.0582C55.9506 31.0184 56.3672 30.5388 56.3036 29.9898C56.0218 27.5612 55.3626 25.1906 54.3495 22.963C54.1216 22.4619 53.5206 22.2652 53.0285 22.5117L48.171 24.945C47.6755 25.1932 47.4794 25.7958 47.6988 26.3047C48.2801 27.6533 48.6748 29.074 48.872 30.5281C48.9462 31.075 49.4216 31.4895 49.9721 31.4498L55.3994 31.0582Z"/>
</mask>
<path d="M55.3994 31.0582C55.9506 31.0184 56.3672 30.5388 56.3036 29.9898C56.0218 27.5612 55.3626 25.1906 54.3495 22.963C54.1216 22.4619 53.5206 22.2652 53.0285 22.5117L48.171 24.945C47.6755 25.1932 47.4794 25.7958 47.6988 26.3047C48.2801 27.6533 48.6748 29.074 48.872 30.5281C48.9462 31.075 49.4216 31.4895 49.9721 31.4498L55.3994 31.0582Z" fill="#F3DE09" stroke="#F3DE09" stroke-width="100" mask="url(#path-3-inside-2_57_106)"/>
<mask id="path-4-inside-3_57_106" fill="white">
<path d="M52.9366 42.6482C53.4334 42.8903 54.0364 42.6858 54.2593 42.1807C55.2474 39.9418 55.8799 37.5639 56.1343 35.1321C56.1915 34.5848 55.7705 34.1126 55.219 34.0788L49.7917 33.7467C49.2384 33.7129 48.7647 34.1333 48.6965 34.6813C48.5151 36.1388 48.1355 37.5652 47.568 38.9212C47.3551 39.4302 47.5566 40.0264 48.0531 40.2684L52.9366 42.6482Z"/>
</mask>
<path d="M52.9366 42.6482C53.4334 42.8903 54.0364 42.6858 54.2593 42.1807C55.2474 39.9418 55.8799 37.5639 56.1343 35.1321C56.1915 34.5848 55.7705 34.1126 55.219 34.0788L49.7917 33.7467C49.2384 33.7129 48.7647 34.1333 48.6965 34.6813C48.5151 36.1388 48.1355 37.5652 47.568 38.9212C47.3551 39.4302 47.5566 40.0264 48.0531 40.2684L52.9366 42.6482Z" fill="#F3DE09" stroke="#F3DE09" stroke-width="100" mask="url(#path-4-inside-3_57_106)"/>
<mask id="path-5-inside-4_57_106" fill="white">
<path d="M45.0662 51.4436C45.3684 51.9059 45.9904 52.0395 46.4409 51.7208C48.4448 50.303 50.2152 48.5845 51.6887 46.6268C52.0208 46.1856 51.9012 45.5616 51.4429 45.2498L46.9584 42.1987C46.5017 41.888 45.882 42.0055 45.5428 42.4388C44.6336 43.6001 43.5697 44.6331 42.3805 45.5093C41.936 45.8368 41.803 46.4525 42.1054 46.915L45.0662 51.4436Z"/>
</mask>
<path d="M45.0662 51.4436C45.3684 51.9059 45.9904 52.0395 46.4409 51.7208C48.4448 50.303 50.2152 48.5845 51.6887 46.6268C52.0208 46.1856 51.9012 45.5616 51.4429 45.2498L46.9584 42.1987C46.5017 41.888 45.882 42.0055 45.5428 42.4388C44.6336 43.6001 43.5697 44.6331 42.3805 45.5093C41.936 45.8368 41.803 46.4525 42.1054 46.915L45.0662 51.4436Z" fill="#F3DE09" stroke="#F3DE09" stroke-width="100" mask="url(#path-5-inside-4_57_106)"/>
<mask id="path-6-inside-5_57_106" fill="white">
<path d="M33.7912 55.2704C33.8185 55.8217 34.2876 56.2486 34.8373 56.1986C37.2867 55.9759 39.6866 55.3763 41.9509 54.4215C42.4616 54.2062 42.6741 53.6052 42.4352 53.1053L40.1044 48.227C39.8671 47.7303 39.274 47.522 38.7628 47.7264C37.3883 48.2761 35.9449 48.6371 34.4724 48.7995C33.9231 48.8601 33.497 49.3265 33.5243 49.8785L33.7912 55.2704Z"/>
</mask>
<path d="M33.7912 55.2704C33.8185 55.8217 34.2876 56.2486 34.8373 56.1986C37.2867 55.9759 39.6866 55.3763 41.9509 54.4215C42.4616 54.2062 42.6741 53.6052 42.4352 53.1053L40.1044 48.227C39.8671 47.7303 39.274 47.522 38.7628 47.7264C37.3883 48.2761 35.9449 48.6371 34.4724 48.7995C33.9231 48.8601 33.497 49.3265 33.5243 49.8785L33.7912 55.2704Z" fill="#F3DE09" stroke="#F3DE09" stroke-width="100" mask="url(#path-6-inside-5_57_106)"/>
<mask id="path-7-inside-6_57_106" fill="white">
<path d="M51.3507 19.7145C51.813 19.4124 51.9426 18.7923 51.6185 18.3444C50.1824 16.3597 48.4451 14.6086 46.4686 13.1538C46.0238 12.8264 45.4008 12.9465 45.0911 13.4012L42.0424 17.8777C41.7316 18.334 41.8548 18.9535 42.2946 19.2907C43.4644 20.1875 44.5064 21.238 45.3919 22.4134C45.7244 22.8547 46.3432 22.9856 46.8052 22.6838L51.3507 19.7145Z"/>
</mask>
<path d="M51.3507 19.7145C51.813 19.4124 51.9426 18.7923 51.6185 18.3444C50.1824 16.3597 48.4451 14.6086 46.4686 13.1538C46.0238 12.8264 45.4008 12.9465 45.0911 13.4012L42.0424 17.8777C41.7316 18.334 41.8548 18.9535 42.2946 19.2907C43.4644 20.1875 44.5064 21.238 45.3919 22.4134C45.7244 22.8547 46.3432 22.9856 46.8052 22.6838L51.3507 19.7145Z" fill="#F3DE09" stroke="#F3DE09" stroke-width="100" mask="url(#path-7-inside-6_57_106)"/>
<rect x="111.999" y="2.99979" width="86" height="28" fill="#F3DE09"/>
<path d="M66.927 2.64822H75.8547V5.43729H70.468V12.4236H74.6926V15.2127H70.468V23.2107H75.8547V25.9998H66.927V2.64822ZM77.6458 7.17361H80.2844L80.6262 9.18338V9.19705C81.164 8.33117 81.7747 7.74328 82.4583 7.43338C83.1418 7.11437 83.83 6.95486 84.5227 6.95486C85.6165 6.95486 86.4641 7.34223 87.0657 8.11697C87.6672 8.89171 87.968 10.0447 87.968 11.576V25.9998H84.509V11.9861C84.509 11.1567 84.3814 10.5825 84.1262 10.2635C83.871 9.93533 83.4973 9.77127 83.0051 9.77127C82.6588 9.77127 82.3215 9.8852 81.9934 10.1131C81.6653 10.3409 81.3691 10.6554 81.1047 11.0564V25.9998H77.6458V7.17361ZM91.0168 18.2888V14.7342C91.0168 13.2941 91.1399 12.1 91.386 11.1521C91.6321 10.2042 91.9556 9.4477 92.3567 8.8826C92.7668 8.31749 93.2135 7.89822 93.6965 7.62479C94.1887 7.35135 94.6764 7.17361 95.1594 7.09158C95.6425 7.00044 96.0846 6.95486 96.4856 6.95486C97.315 6.95486 98.0806 7.1326 98.7825 7.48807C99.4843 7.83442 100.045 8.43598 100.464 9.29276C100.892 10.1404 101.107 11.3207 101.107 12.8338C101.107 13.5903 101.066 14.365 100.984 15.158C100.902 15.9418 100.792 16.6346 100.656 17.2361H94.4895V19.1502C94.4895 20.7908 94.6262 21.9484 94.8997 22.6228C95.1822 23.2973 95.7154 23.6346 96.4993 23.6346C96.9277 23.6346 97.315 23.4523 97.6614 23.0877C98.0077 22.714 98.1809 22.0304 98.1809 21.0369V20.2166H101.025V21.0779C101.025 22.8644 100.596 24.1678 99.7395 24.9881C98.8918 25.7993 97.6614 26.2049 96.0481 26.2049C94.4257 26.2049 93.1816 25.5851 92.3157 24.3455C91.4498 23.1059 91.0168 21.087 91.0168 18.2888ZM97.8801 14.9119C97.8984 14.7114 97.912 14.4106 97.9211 14.0096C97.9303 13.5994 97.9348 13.2713 97.9348 13.0252C97.9348 11.7765 97.8027 10.8832 97.5383 10.3455C97.274 9.80773 96.8547 9.53429 96.2805 9.52518C95.6698 9.52518 95.2187 9.83507 94.927 10.4549C94.6353 11.0655 94.4895 12.1821 94.4895 13.8045V14.9119H97.8801ZM103.978 7.17361H106.507L106.808 9.08768C107.182 8.37674 107.619 7.84354 108.12 7.48807C108.622 7.1326 109.132 6.95486 109.652 6.95486C111.593 6.95486 112.564 8.17622 112.564 10.6189C112.564 10.9288 112.518 11.339 112.427 11.8494C112.336 12.3507 112.226 12.7928 112.099 13.1756H109.693V11.7127C109.693 10.9562 109.579 10.4457 109.351 10.1814C109.123 9.90799 108.84 9.77127 108.503 9.77127C108.075 9.77127 107.719 10.1085 107.437 10.783V25.9998H103.978V7.17361ZM117.294 27.2849C117.294 28.087 117.445 28.6567 117.745 28.9939C118.055 29.3403 118.52 29.5135 119.14 29.5135C119.486 29.5135 119.805 29.436 120.097 29.281C120.398 29.1352 120.639 28.8618 120.822 28.4607C121.004 28.0597 121.095 27.4763 121.095 26.7107V23.7439C120.785 24.1359 120.389 24.4777 119.906 24.7693C119.422 25.061 118.816 25.2068 118.087 25.2068C117.768 25.2068 117.381 25.1476 116.925 25.0291C116.478 24.9106 116.032 24.6372 115.585 24.2088C115.148 23.7713 114.779 23.0922 114.478 22.1717C114.186 21.2511 114.04 19.9933 114.04 18.3982V13.449C114.04 11.9178 114.186 10.7146 114.478 9.83963C114.779 8.96463 115.148 8.32205 115.585 7.9119C116.032 7.50174 116.488 7.24197 116.952 7.1326C117.426 7.02322 117.832 6.96854 118.169 6.96854C119.09 6.96854 119.796 7.18729 120.288 7.62479C120.79 8.05317 121.168 8.51802 121.423 9.01932L121.738 7.15994H124.431V25.2342C124.431 27.3305 124.016 28.9939 123.187 30.2244C122.357 31.464 121.022 32.0838 119.181 32.0838C118.351 32.0838 117.595 31.979 116.911 31.7693C116.228 31.5688 115.681 31.1997 115.271 30.6619C114.87 30.1241 114.669 29.3631 114.669 28.3787C114.669 28.0688 114.728 27.7042 114.847 27.2849H117.294ZM119.263 22.3904C119.719 22.3904 120.083 22.2491 120.357 21.9666C120.63 21.684 120.84 21.3696 120.986 21.0232V11.1521C120.812 10.7784 120.58 10.4549 120.288 10.1814C120.006 9.90799 119.659 9.77127 119.249 9.77127C118.912 9.77127 118.611 9.86242 118.347 10.0447C118.092 10.2179 117.887 10.5506 117.732 11.0428C117.586 11.5258 117.513 12.2368 117.513 13.1756V18.9451C117.513 19.8748 117.586 20.5903 117.732 21.0916C117.887 21.5838 118.096 21.9256 118.361 22.117C118.625 22.2993 118.926 22.3904 119.263 22.3904ZM127.22 29.6228C128.268 29.7687 129.125 29.5499 129.79 28.9666C130.456 28.3924 130.816 27.4399 130.87 26.1092L126.413 7.17361H129.859L131.841 17.5916L132.415 21.1873H132.525L132.921 17.5916L134.521 7.17361H137.857L133.988 26.6971C133.632 28.5017 133.085 29.8507 132.347 30.7439C131.609 31.6372 130.506 32.0838 129.038 32.0838C128.446 32.0838 127.84 31.9698 127.22 31.742V29.6228Z" fill="#1D252C"/>
<path d="M72.2727 62.2049C71.7076 62.2049 71.0878 62.1228 70.4133 61.9588C69.748 61.7947 69.1145 61.4529 68.5129 60.9334C67.9114 60.4138 67.4192 59.6346 67.0364 58.5955C66.6536 57.5473 66.4622 56.1482 66.4622 54.3982V46.1267C66.4622 44.7231 66.5898 43.5564 66.845 42.6267C67.1093 41.6879 67.4511 40.9405 67.8704 40.3846C68.2987 39.8194 68.7681 39.4002 69.2786 39.1267C69.7981 38.8442 70.3131 38.6619 70.8235 38.5799C71.343 38.4887 71.8215 38.4431 72.259 38.4431C73.4622 38.4431 74.4146 38.6665 75.1165 39.1131C75.8183 39.5597 76.3196 40.1612 76.6204 40.9178C76.9303 41.6652 77.0852 42.49 77.0852 43.3924C77.0852 43.8937 77.0442 44.3585 76.9622 44.7869C76.8892 45.2062 76.8027 45.671 76.7024 46.1814H73.968V45.0603C73.968 42.4991 73.3665 41.2185 72.1633 41.2185C71.5162 41.2185 71.0194 41.5011 70.6731 42.0662C70.3359 42.6222 70.1672 43.6476 70.1672 45.1424V55.6697C70.1672 57.1189 70.3359 58.1079 70.6731 58.6365C71.0194 59.1652 71.5527 59.4295 72.2727 59.4295C72.774 59.4295 73.1887 59.2198 73.5168 58.8006C73.845 58.3722 74.009 57.6886 74.009 56.7498V54.5349H77.1125V56.6951C77.1125 58.5636 76.6978 59.949 75.8684 60.8513C75.039 61.7537 73.8404 62.2049 72.2727 62.2049ZM84.0852 62.2049C83.4836 62.2049 82.8775 62.1183 82.2668 61.9451C81.6562 61.7628 81.0911 61.3982 80.5715 60.8513C80.0611 60.3045 79.651 59.4796 79.3411 58.3767C79.0312 57.2648 78.8762 55.7791 78.8762 53.9197V50.9666C78.8762 49.1346 79.0357 47.6853 79.3547 46.6189C79.6737 45.5434 80.093 44.7459 80.6125 44.2263C81.1321 43.6977 81.6972 43.3559 82.3079 43.201C82.9185 43.0369 83.5155 42.9549 84.0989 42.9549C84.664 42.9549 85.2473 43.0323 85.8489 43.1873C86.4504 43.3331 87.0064 43.6658 87.5168 44.1853C88.0273 44.6957 88.442 45.4933 88.761 46.5779C89.08 47.6534 89.2395 49.1163 89.2395 50.9666V53.9197C89.2395 55.7517 89.0754 57.2192 88.7473 58.3221C88.4192 59.4158 87.9954 60.2452 87.4758 60.8103C86.9563 61.3663 86.3958 61.74 85.7942 61.9314C85.2017 62.1137 84.6321 62.2049 84.0852 62.2049ZM84.1125 59.6346C84.7323 59.6346 85.1607 59.2928 85.3977 58.6092C85.6438 57.9256 85.7668 56.7042 85.7668 54.9451V50.2556C85.7668 48.4874 85.6438 47.2569 85.3977 46.5642C85.1607 45.8715 84.7323 45.5252 84.1125 45.5252C83.4654 45.5252 83.0097 45.8715 82.7454 46.5642C82.481 47.2569 82.3489 48.4874 82.3489 50.2556V54.9451C82.3489 56.7042 82.481 57.9256 82.7454 58.6092C83.0097 59.2928 83.4654 59.6346 84.1125 59.6346ZM92.302 43.1736H94.9543L95.2825 45.1834V45.1971C95.8202 44.3312 96.4309 43.7433 97.1145 43.4334C97.8072 43.1144 98.4999 42.9549 99.1926 42.9549C100.697 42.9549 101.708 43.6658 102.228 45.0877C102.766 44.2765 103.367 43.7205 104.032 43.4197C104.707 43.1098 105.386 42.9549 106.07 42.9549C107.154 42.9549 107.997 43.3422 108.599 44.117C109.2 44.8917 109.501 46.0447 109.501 47.576V61.9998H106.042V47.9861C106.042 47.1567 105.915 46.5825 105.659 46.2635C105.413 45.9353 105.008 45.7713 104.443 45.7713C104.133 45.7713 103.814 45.8898 103.486 46.1267C103.167 46.3637 102.875 46.6827 102.611 47.0838C102.62 47.1658 102.624 47.2478 102.624 47.3299C102.624 47.4119 102.624 47.4939 102.624 47.576V61.9998H99.1653V47.9861C99.1653 47.1567 99.0377 46.5825 98.7825 46.2635C98.5364 45.9353 98.1308 45.7713 97.5657 45.7713C97.2558 45.7713 96.9413 45.8852 96.6223 46.1131C96.3033 46.3409 96.0162 46.6554 95.761 47.0564V61.9998H92.302V43.1736ZM116.474 63.0662V68.0838H113.015V43.1736H115.722L116.036 45.156C116.355 44.6365 116.793 44.1443 117.349 43.6795C117.905 43.2055 118.629 42.9685 119.523 42.9685C119.814 42.9685 120.174 43.0278 120.603 43.1463C121.04 43.2556 121.473 43.5245 121.902 43.9529C122.339 44.3722 122.704 45.0375 122.995 45.949C123.287 46.8605 123.433 48.1183 123.433 49.7224V55.4236C123.433 57.0187 123.282 58.2765 122.982 59.1971C122.69 60.1085 122.321 60.783 121.874 61.2205C121.437 61.6489 120.99 61.9223 120.534 62.0408C120.088 62.1593 119.705 62.2185 119.386 62.2185C118.657 62.2185 118.046 62.0727 117.554 61.781C117.071 61.4894 116.674 61.1476 116.365 60.7556L116.474 63.0662ZM116.474 57.9119C116.629 58.2674 116.838 58.5864 117.103 58.8689C117.376 59.1515 117.745 59.2928 118.21 59.2928C118.547 59.2928 118.844 59.2016 119.099 59.0193C119.363 58.837 119.568 58.4998 119.714 58.0076C119.869 57.5063 119.947 56.7908 119.947 55.8611V49.1892C119.947 48.2504 119.874 47.5395 119.728 47.0564C119.582 46.5642 119.377 46.227 119.113 46.0447C118.857 45.8624 118.561 45.7713 118.224 45.7713C117.795 45.7713 117.44 45.9034 117.157 46.1678C116.875 46.423 116.647 46.7237 116.474 47.0701V57.9119ZM131.308 62.2049C130.706 62.2049 130.1 62.1183 129.49 61.9451C128.879 61.7628 128.314 61.3982 127.794 60.8513C127.284 60.3045 126.874 59.4796 126.564 58.3767C126.254 57.2648 126.099 55.7791 126.099 53.9197V50.9666C126.099 49.1346 126.258 47.6853 126.577 46.6189C126.896 45.5434 127.316 44.7459 127.835 44.2263C128.355 43.6977 128.92 43.3559 129.531 43.201C130.141 43.0369 130.738 42.9549 131.322 42.9549C131.887 42.9549 132.47 43.0323 133.072 43.1873C133.673 43.3331 134.229 43.6658 134.74 44.1853C135.25 44.6957 135.665 45.4933 135.984 46.5779C136.303 47.6534 136.462 49.1163 136.462 50.9666V53.9197C136.462 55.7517 136.298 57.2192 135.97 58.3221C135.642 59.4158 135.218 60.2452 134.698 60.8103C134.179 61.3663 133.618 61.74 133.017 61.9314C132.424 62.1137 131.855 62.2049 131.308 62.2049ZM131.335 59.6346C131.955 59.6346 132.383 59.2928 132.62 58.6092C132.866 57.9256 132.99 56.7042 132.99 54.9451V50.2556C132.99 48.4874 132.866 47.2569 132.62 46.5642C132.383 45.8715 131.955 45.5252 131.335 45.5252C130.688 45.5252 130.232 45.8715 129.968 46.5642C129.704 47.2569 129.572 48.4874 129.572 50.2556V54.9451C129.572 56.7042 129.704 57.9256 129.968 58.6092C130.232 59.2928 130.688 59.6346 131.335 59.6346ZM139.525 43.1736H142.163L142.505 45.1834V45.1971C143.043 44.3312 143.654 43.7433 144.337 43.4334C145.021 43.1144 145.709 42.9549 146.402 42.9549C147.495 42.9549 148.343 43.3422 148.945 44.117C149.546 44.8917 149.847 46.0447 149.847 47.576V61.9998H146.388V47.9861C146.388 47.1567 146.26 46.5825 146.005 46.2635C145.75 45.9353 145.376 45.7713 144.884 45.7713C144.538 45.7713 144.2 45.8852 143.872 46.1131C143.544 46.3409 143.248 46.6554 142.984 47.0564V61.9998H139.525V43.1736ZM152.896 54.2888V50.7342C152.896 49.2941 153.019 48.1 153.265 47.1521C153.511 46.2042 153.835 45.4477 154.236 44.8826C154.646 44.3175 155.092 43.8982 155.575 43.6248C156.068 43.3513 156.555 43.1736 157.038 43.0916C157.521 43.0004 157.963 42.9549 158.365 42.9549C159.194 42.9549 159.96 43.1326 160.661 43.4881C161.363 43.8344 161.924 44.436 162.343 45.2928C162.771 46.1404 162.986 47.3207 162.986 48.8338C162.986 49.5903 162.945 50.365 162.863 51.158C162.781 51.9418 162.671 52.6346 162.534 53.2361H156.368V55.1502C156.368 56.7908 156.505 57.9484 156.779 58.6228C157.061 59.2973 157.594 59.6346 158.378 59.6346C158.807 59.6346 159.194 59.4523 159.54 59.0877C159.887 58.714 160.06 58.0304 160.06 57.0369V56.2166H162.904V57.0779C162.904 58.8644 162.475 60.1678 161.618 60.9881C160.771 61.7993 159.54 62.2049 157.927 62.2049C156.305 62.2049 155.06 61.5851 154.195 60.3455C153.329 59.1059 152.896 57.087 152.896 54.2888ZM159.759 50.9119C159.777 50.7114 159.791 50.4106 159.8 50.0096C159.809 49.5994 159.814 49.2713 159.814 49.0252C159.814 47.7765 159.682 46.8832 159.417 46.3455C159.153 45.8077 158.734 45.5343 158.159 45.5252C157.549 45.5252 157.098 45.8351 156.806 46.4549C156.514 47.0655 156.368 48.1821 156.368 49.8045V50.9119H159.759ZM165.857 43.1736H168.495L168.837 45.1834V45.1971C169.375 44.3312 169.986 43.7433 170.669 43.4334C171.353 43.1144 172.041 42.9549 172.734 42.9549C173.827 42.9549 174.675 43.3422 175.277 44.117C175.878 44.8917 176.179 46.0447 176.179 47.576V61.9998H172.72V47.9861C172.72 47.1567 172.592 46.5825 172.337 46.2635C172.082 45.9353 171.708 45.7713 171.216 45.7713C170.87 45.7713 170.532 45.8852 170.204 46.1131C169.876 46.3409 169.58 46.6554 169.316 47.0564V61.9998H165.857V43.1736ZM179.939 45.7986H178.339V43.1736H180.24L180.937 38.2928H183.398V43.1736H186.542V45.7986H183.398V57.3377C183.398 58.158 183.544 58.6775 183.835 58.8963C184.136 59.115 184.487 59.2244 184.888 59.2244C185.526 59.2244 186.073 59.0831 186.529 58.8006V60.9881C186.137 61.4711 185.681 61.7993 185.161 61.9724C184.642 62.1365 184.141 62.2185 183.657 62.2185C183.019 62.2185 182.413 62.0955 181.839 61.8494C181.274 61.5942 180.814 61.1157 180.458 60.4138C180.112 59.7029 179.939 58.6684 179.939 57.3103V45.7986ZM187.841 58.0623C187.841 57.6521 187.878 57.2556 187.95 56.8728C188.032 56.49 188.11 56.1847 188.183 55.9568H190.616C190.616 57.324 190.785 58.281 191.122 58.8279C191.469 59.3657 191.961 59.6346 192.599 59.6346C193.055 59.6346 193.41 59.4978 193.665 59.2244C193.92 58.9418 194.048 58.6092 194.048 58.2263C194.048 57.8253 193.939 57.4379 193.72 57.0642C193.51 56.6905 193.219 56.2804 192.845 55.8338L190.425 52.8533C189.769 52.0239 189.181 51.158 188.661 50.2556C188.151 49.3442 187.896 48.3416 187.896 47.2478C187.896 46.2726 188.11 45.4705 188.538 44.8416C188.967 44.2036 189.532 43.7296 190.234 43.4197C190.935 43.1098 191.697 42.9549 192.517 42.9549C193.875 42.9549 194.96 43.283 195.771 43.9392C196.582 44.5864 196.988 45.5616 196.988 46.865C196.988 47.2934 196.947 47.7172 196.865 48.1365C196.792 48.5467 196.719 48.8976 196.646 49.1892H194.253C194.235 47.9497 194.089 47.0291 193.816 46.4275C193.542 45.826 193.091 45.5252 192.462 45.5252C191.934 45.5252 191.569 45.6892 191.368 46.0174C191.168 46.3455 191.068 46.7101 191.068 47.1111C191.068 47.5486 191.177 47.9451 191.396 48.3006C191.615 48.6469 191.897 49.0388 192.243 49.4763L194.978 52.7849C195.242 53.1131 195.547 53.5323 195.894 54.0428C196.24 54.5441 196.541 55.1137 196.796 55.7517C197.06 56.3806 197.193 57.0642 197.193 57.8025C197.193 59.1241 196.778 60.1905 195.948 61.0017C195.119 61.8038 193.934 62.2049 192.394 62.2049C191.555 62.2049 190.79 62.0773 190.097 61.8221C189.404 61.5577 188.853 61.1248 188.443 60.5232C188.042 59.9125 187.841 59.0922 187.841 58.0623Z" fill="#1D252C"/>
</svg>
