<svg width="8" height="14" viewBox="0 0 8 14" fill="none" xmlns="http://www.w3.org/2000/svg">
<path d="M5.03323 9.97508L7.21501 6.46689C7.22214 6.45554 7.22811 6.44361 7.23276 6.43124C7.60952 5.81685 7.80844 5.11501 7.80844 4.39847C7.80844 2.24886 6.05959 0.5 3.90997 0.5C1.76035 0.5 0.0113504 2.24886 0.0113504 4.39847C0.0113504 5.11516 0.210567 5.81729 0.587608 6.43211C0.591974 6.44288 0.597067 6.45336 0.603179 6.46354L2.70667 9.98381C1.07379 10.2146 0 10.886 0 11.7005C0 12.7097 1.71495 13.5 3.90415 13.5C6.09335 13.5 7.8083 12.7095 7.8083 11.7005C7.80844 10.8822 6.68459 10.1958 5.03323 9.97508ZM0.979493 6.23551C0.631701 5.68196 0.447909 5.04676 0.447909 4.39847C0.447909 2.48955 2.0009 0.936559 3.90997 0.936559C5.8189 0.936559 7.37188 2.48955 7.37188 4.39847C7.37188 5.04705 7.18809 5.68225 6.84044 6.23551C6.83317 6.24715 6.8272 6.25923 6.8224 6.27175L4.51737 9.9777C4.48273 10.0308 4.47589 10.0429 4.43355 10.1124L3.85147 11.0484L0.998993 6.2748C0.993899 6.26127 0.987351 6.24803 0.979493 6.23551ZM3.90429 13.0634C1.86076 13.0634 0.436704 12.345 0.436704 11.7005C0.436704 11.1155 1.50918 10.5643 2.95172 10.3936L3.6604 11.5797C3.69955 11.6451 3.76969 11.6854 3.84579 11.686C3.84638 11.686 3.8471 11.686 3.84769 11.686C3.92306 11.686 3.99321 11.647 4.03308 11.5829L4.77814 10.385C6.24367 10.5438 7.37174 11.109 7.37174 11.7005C7.37188 12.3452 5.94783 13.0634 3.90429 13.0634Z" fill="#1D252C"/>
<path d="M5.32183 4.39846C5.32183 3.61688 4.68591 2.98096 3.90432 2.98096C3.12274 2.98096 2.48682 3.61688 2.48682 4.39846C2.48682 5.18005 3.12274 5.81597 3.90432 5.81597C4.68591 5.81597 5.32183 5.18005 5.32183 4.39846ZM2.92338 4.39846C2.92338 3.85757 3.36343 3.41752 3.90432 3.41752C4.44522 3.41752 4.88527 3.85757 4.88527 4.39846C4.88527 4.93936 4.44537 5.37941 3.90432 5.37941C3.36328 5.37941 2.92338 4.93936 2.92338 4.39846Z" fill="#1D252C"/>
</svg>
