<svg width="69" height="28" viewBox="0 0 69 28" fill="none" xmlns="http://www.w3.org/2000/svg">
<path d="M7.50284 0H20.3326C22.9366 0 23.8878 0.274375 24.839 0.787337C25.7784 1.28837 26.5513 2.06378 27.0507 3.0062C27.5619 3.96054 27.8354 4.90296 27.8354 7.52742V20.3992C27.8354 23.0117 27.5619 23.9661 27.0507 24.9204C26.5513 25.8628 25.7784 26.6382 24.839 27.1393C23.8878 27.6522 22.9485 27.9266 20.3326 27.9266H7.50284C4.89885 27.9266 3.94761 27.6522 2.99638 27.1393C2.05704 26.6382 1.28416 25.8628 0.784766 24.9204C0.273479 23.978 0 23.0236 0 20.3992V7.52742C0 4.91489 0.273479 3.96054 0.784766 3.0062C1.28416 2.06378 2.05704 1.28837 2.99638 0.787337C3.94761 0.274375 4.89885 0 7.50284 0Z" fill="#EAE60E"/>
<path d="M20.8675 5.66644C21.5929 5.66644 22.1874 6.26291 22.1874 7.00253V10.307H24.9459V7.00253C24.9459 4.73595 23.1148 2.89883 20.8675 2.89883H17.562V5.67837H20.8675V5.66644Z" fill="#63666A"/>
<path d="M22.1874 20.936C22.1874 21.6637 21.5929 22.2602 20.8675 22.2602H17.562V25.0278H20.8675C23.1148 25.0278 24.9459 23.1907 24.9459 20.936V17.6197H22.1874V20.936Z" fill="#63666A"/>
<path d="M5.63601 7.00253C5.63601 6.26291 6.23053 5.66644 6.95585 5.66644H10.2614V2.8869H6.95585C4.69667 2.89883 2.87744 4.73595 2.87744 6.9906V10.295H5.63601V7.00253Z" fill="#63666A"/>
<path d="M6.96806 22.2721C6.24274 22.2721 5.64822 21.6756 5.64822 20.948V17.6316H2.88965V20.948C2.90154 23.2026 4.72077 25.0397 6.96806 25.0397H10.2736V22.2721H6.96806Z" fill="#63666A"/>
<path d="M12.3303 20.602L6.43262 14.685L8.38264 12.7286L12.3303 16.6892L19.4645 9.53156L21.4145 11.488L12.3303 20.602Z" fill="#63666A"/>
<path d="M38.9648 17.8463C39.3453 18.2877 39.5475 18.8245 39.5475 19.4568C39.5475 19.9697 39.4048 20.4469 39.1313 20.8764C38.8222 21.3416 38.3941 21.7114 37.8828 21.9381C37.324 22.2005 36.6224 22.3437 35.7901 22.3437C35.1837 22.3437 34.5773 22.2721 33.9828 22.117C33.4358 21.9858 32.9126 21.7711 32.437 21.4728L33.3288 19.6238C34.0422 20.089 34.8745 20.3395 35.7188 20.3395C36.1349 20.3395 36.4679 20.256 36.7176 20.101C36.9554 19.9339 37.0862 19.7192 37.0862 19.421C37.0862 18.8603 36.6462 18.574 35.7663 18.574H34.7438V17.0232L36.2895 15.3531H32.8888V13.4802H39.1194V15.019L37.3359 16.9516C38.0374 17.1067 38.5844 17.4049 38.9648 17.8463Z" fill="#63666A"/>
<path d="M49.1312 13.4802V22.1528H46.6817V18.7768H43.3405V22.1528H40.8911V13.4802H43.3405V16.7369H46.6817V13.4802H49.1312Z" fill="#63666A"/>
<path d="M56.9668 13.7784C57.5851 14.1005 58.0845 14.6015 58.4174 15.2099C58.7622 15.8302 58.9287 16.5818 58.9287 17.4646V22.1528H56.4793V20.2322H53.0905V22.1528H50.6768V17.4526C50.6768 16.5818 50.8551 15.8183 51.188 15.198C51.521 14.5896 52.0204 14.0886 52.6387 13.7665C53.3045 13.4324 54.0536 13.2654 54.8027 13.2774C55.6113 13.2774 56.3366 13.4444 56.9668 13.7784ZM56.4793 18.3235V17.2379C56.4793 16.6056 56.3247 16.1285 56.0155 15.8064C55.6945 15.4724 55.2546 15.3053 54.7908 15.3292C54.2677 15.3292 53.8515 15.4962 53.5542 15.8064C53.257 16.1285 53.0905 16.6056 53.0905 17.2379V18.3235H56.4793Z" fill="#63666A"/>
<path d="M62.8882 18.0372V22.1528H60.4507V13.4802H62.8882V17.5839H62.9477L65.9916 13.4802H68.9048L65.5754 17.6674L68.9999 22.1409H65.837L62.8882 18.0372Z" fill="#63666A"/>
<path d="M36.8484 6.35834V10.7961H35.3621V9.36453C35.0649 9.44804 34.7914 9.49576 34.5536 9.49576C33.8996 9.49576 33.3883 9.34067 33.0435 9.03051C32.7106 8.73228 32.5322 8.27896 32.5322 7.68249V6.35834H34.0185V7.53934C34.0185 7.80179 34.078 8.00459 34.1969 8.13581C34.3158 8.26703 34.4941 8.33861 34.7438 8.33861C34.9935 8.33861 35.2076 8.30282 35.3621 8.23124V6.35834H36.8484Z" fill="#63666A"/>
<path d="M41.4619 9.65084V10.7841H37.8115V6.35834H41.3786V7.49163H39.2622V8.01652H41.1171V9.09016H39.2622V9.6747H41.4619V9.65084Z" fill="#63666A"/>
<path d="M43.3522 10.4859C42.5912 10.1042 42.1275 9.31683 42.1394 8.46985C42.1275 7.62286 42.6031 6.83552 43.3522 6.45379C43.7327 6.25099 44.1608 6.16748 44.6364 6.16748C45.0763 6.16748 45.4568 6.23906 45.8016 6.39414C46.1465 6.54922 46.4318 6.76395 46.6458 7.05025L45.6946 7.89724C45.4687 7.57514 45.1001 7.38427 44.7077 7.37235C44.3986 7.37235 44.137 7.47971 43.9467 7.67058C43.7565 7.87338 43.6614 8.13582 43.6614 8.48177C43.6614 8.8158 43.7565 9.09017 43.9467 9.28104C44.137 9.47191 44.3986 9.57927 44.7077 9.57927C45.0882 9.57927 45.4092 9.40033 45.6946 9.06631L46.6458 9.90137C46.4199 10.1877 46.1465 10.4024 45.8016 10.5575C45.4568 10.7126 45.0763 10.7841 44.6364 10.7841C44.1489 10.7841 43.7327 10.6887 43.3522 10.4859Z" fill="#63666A"/>
<path d="M51.1527 7.51548H49.8686V10.7841H48.418V7.51548H47.1338V6.34641H51.1646V7.51548H51.1527Z" fill="#63666A"/>
<path d="M56.2414 6.35834V10.7961H54.7313V9.16173H53.3402V10.7961H51.8301V6.35834H53.3402V7.93301H54.7313V6.35834H56.2414Z" fill="#63666A"/>
<path d="M61.4497 9.17366C61.4497 9.68663 61.2714 10.0922 60.9266 10.3666C60.5817 10.641 60.118 10.7722 59.5116 10.7722H57.2881V6.35834H58.7744V7.71828H59.7018C60.2607 7.71828 60.6887 7.83758 60.9979 8.08809C61.2952 8.32668 61.4497 8.69649 61.4497 9.17366ZM59.9278 9.19752C59.9278 8.89929 59.7494 8.75614 59.4046 8.75614H58.7744V9.73434H59.4165C59.5592 9.73434 59.6899 9.68663 59.7851 9.59119C59.8921 9.49576 59.9396 9.3526 59.9278 9.19752ZM61.854 6.35834H63.3403V10.7961H61.854V6.35834Z" fill="#63666A"/>
<path d="M64.3032 6.35833H65.7776V8.6607L67.3115 6.35833H68.7146V10.796H67.2402V8.48176L65.7182 10.7841H64.3032V6.35833ZM65.4447 5.83344C65.2188 5.64257 65.1237 5.3682 65.1237 5.01031H66.1225C66.1225 5.15347 66.1462 5.2489 66.2057 5.32048C66.2651 5.38012 66.3603 5.41591 66.5029 5.41591C66.6456 5.41591 66.7408 5.38012 66.8121 5.32048C66.8716 5.26083 66.9072 5.15347 66.9072 5.01031H67.906C67.906 5.3682 67.7871 5.64257 67.5731 5.82151C67.3472 6.00045 66.9905 6.09589 66.5029 6.09589C66.0154 6.09589 65.6587 6.00045 65.4447 5.83344Z" fill="#63666A"/>
</svg>
