<svg width="20" height="21" viewBox="0 0 20 21" fill="none" xmlns="http://www.w3.org/2000/svg">
<path d="M9.29289 15.2071C9.68342 15.5976 10.3166 15.5976 10.7071 15.2071L17.0711 8.84315C17.4616 8.45262 17.4616 7.81946 17.0711 7.42893C16.6805 7.03841 16.0474 7.03841 15.6569 7.42893L10 13.0858L4.34315 7.42893C3.95262 7.03841 3.31946 7.03841 2.92893 7.42893C2.53841 7.81946 2.53841 8.45262 2.92893 8.84315L9.29289 15.2071ZM9 0.5V14.5H11V0.5L9 0.5Z" fill="#F3DE09"/>
<line y1="19.5" x2="20" y2="19.5" stroke="#F3DE09" stroke-width="2"/>
<line x1="19" y1="16.5" x2="19" y2="19.5" stroke="#F3DE09" stroke-width="2"/>
<line x1="1" y1="16.5" x2="1" y2="19.5" stroke="#F3DE09" stroke-width="2"/>
</svg>
