<svg width="17" height="11" viewBox="0 0 17 11" fill="none" xmlns="http://www.w3.org/2000/svg">
<path d="M15.9029 0.619995H1.08289C1.0101 0.619995 0.940292 0.64891 0.888824 0.700378C0.837356 0.751846 0.808441 0.821652 0.808441 0.89444V10.2256C0.808441 10.2983 0.837356 10.3681 0.888824 10.4196C0.940292 10.4711 1.0101 10.5 1.08289 10.5H15.9029C15.9757 10.5 16.0455 10.4711 16.0969 10.4196C16.1484 10.3681 16.1773 10.2983 16.1773 10.2256V0.89444C16.1773 0.821652 16.1484 0.751846 16.0969 0.700378C16.0455 0.64891 15.9757 0.619995 15.9029 0.619995ZM1.35733 1.52017L5.77406 5.49413L1.35733 9.58518V1.52017ZM8.49288 7.20666L1.78729 1.16888H15.1985L8.49288 7.20666ZM6.18389 5.86371L8.30992 7.77751C8.36024 7.82251 8.42538 7.84739 8.49288 7.84739C8.56039 7.84739 8.62553 7.82251 8.67585 7.77751L10.7598 5.90031L15.2973 9.95111H1.769L6.18389 5.86371ZM11.1715 5.53255L15.6284 1.52017V9.512L11.1715 5.53255Z" fill="#1D252C"/>
</svg>
