<svg width="261" height="88" viewBox="0 0 261 88" fill="none" xmlns="http://www.w3.org/2000/svg">
<rect x="38.605" y="12.2817" width="10.2947" height="29.681" rx="1" fill="white"/>
<mask id="path-2-inside-1_16_127" fill="white">
<path d="M42.0838 75.2274C42.0635 75.7795 41.599 76.2121 41.0479 76.1743C34.5241 75.7265 28.2818 73.288 23.1602 69.1723C17.7777 64.8468 13.9173 58.8973 12.1471 52.1992C10.3769 45.5011 10.7904 38.4083 13.3268 31.9643C15.7398 25.8338 19.9529 20.5986 25.3928 16.9501C25.8533 16.6412 26.4739 16.7867 26.7656 17.2581L31.4377 24.8095C31.7271 25.2774 31.5827 25.8892 31.1306 26.2027C27.6532 28.6132 24.9582 32.0129 23.3979 35.977C21.7156 40.2512 21.4413 44.9559 22.6155 49.3987C23.7896 53.8415 26.3502 57.7878 29.9204 60.6568C33.2297 63.3163 37.2446 64.9199 41.4502 65.2756C42.0004 65.3221 42.4315 65.7834 42.4111 66.3352L42.0838 75.2274Z"/>
</mask>
<path d="M42.0838 75.2274C42.0635 75.7795 41.599 76.2121 41.0479 76.1743C34.5241 75.7265 28.2818 73.288 23.1602 69.1723C17.7777 64.8468 13.9173 58.8973 12.1471 52.1992C10.3769 45.5011 10.7904 38.4083 13.3268 31.9643C15.7398 25.8338 19.9529 20.5986 25.3928 16.9501C25.8533 16.6412 26.4739 16.7867 26.7656 17.2581L31.4377 24.8095C31.7271 25.2774 31.5827 25.8892 31.1306 26.2027C27.6532 28.6132 24.9582 32.0129 23.3979 35.977C21.7156 40.2512 21.4413 44.9559 22.6155 49.3987C23.7896 53.8415 26.3502 57.7878 29.9204 60.6568C33.2297 63.3163 37.2446 64.9199 41.4502 65.2756C42.0004 65.3221 42.4315 65.7834 42.4111 66.3352L42.0838 75.2274Z" fill="white" stroke="white" stroke-width="100" mask="url(#path-2-inside-1_16_127)"/>
<mask id="path-3-inside-2_16_127" fill="white">
<path d="M75.3554 42.0223C75.9065 41.9826 76.3226 41.503 76.265 40.9534C75.8956 37.4258 74.9386 33.9838 73.4331 30.7684C73.1997 30.2699 72.5993 30.0729 72.1072 30.3194L64.8981 33.9307C64.4027 34.1789 64.2057 34.7818 64.4333 35.287C65.3475 37.3166 65.9465 39.4725 66.2097 41.6809C66.275 42.2289 66.7512 42.6432 67.3018 42.6035L75.3554 42.0223Z"/>
</mask>
<path d="M75.3554 42.0223C75.9065 41.9826 76.3226 41.503 76.265 40.9534C75.8956 37.4258 74.9386 33.9838 73.4331 30.7684C73.1997 30.2699 72.5993 30.0729 72.1072 30.3194L64.8981 33.9307C64.4027 34.1789 64.2057 34.7818 64.4333 35.287C65.3475 37.3166 65.9465 39.4725 66.2097 41.6809C66.275 42.2289 66.7512 42.6432 67.3018 42.6035L75.3554 42.0223Z" fill="#F3DE09" stroke="#F3DE09" stroke-width="100" mask="url(#path-3-inside-2_16_127)"/>
<mask id="path-4-inside-3_16_127" fill="white">
<path d="M71.9876 57.8948C72.4844 58.1369 73.0868 57.9321 73.3153 57.4295C74.7847 54.1975 75.7032 50.7449 76.0331 47.2133C76.0843 46.6654 75.6638 46.1933 75.1123 46.1595L67.0568 45.6666C66.5035 45.6328 66.029 46.053 65.9697 46.602C65.7306 48.8145 65.1548 50.9782 64.2619 53.0187C64.0408 53.5243 64.2431 54.1207 64.7396 54.3627L71.9876 57.8948Z"/>
</mask>
<path d="M71.9876 57.8948C72.4844 58.1369 73.0868 57.9321 73.3153 57.4295C74.7847 54.1975 75.7032 50.7449 76.0331 47.2133C76.0843 46.6654 75.6638 46.1933 75.1123 46.1595L67.0568 45.6666C66.5035 45.6328 66.029 46.053 65.9697 46.602C65.7306 48.8145 65.1548 50.9782 64.2619 53.0187C64.0408 53.5243 64.2431 54.1207 64.7396 54.3627L71.9876 57.8948Z" fill="#F3DE09" stroke="#F3DE09" stroke-width="100" mask="url(#path-4-inside-3_16_127)"/>
<mask id="path-5-inside-4_16_127" fill="white">
<path d="M61.2062 69.9433C61.5084 70.4056 62.13 70.5388 62.584 70.225C65.5135 68.2003 68.0839 65.7052 70.1898 62.8419C70.517 62.397 70.3978 61.7735 69.9395 61.4616L63.282 56.9321C62.8253 56.6214 62.205 56.7383 61.8727 57.1769C60.5246 58.957 58.9119 60.5228 57.0901 61.8206C56.6403 62.1409 56.508 62.7572 56.8104 63.2198L61.2062 69.9433Z"/>
</mask>
<path d="M61.2062 69.9433C61.5084 70.4056 62.13 70.5388 62.584 70.225C65.5135 68.2003 68.0839 65.7052 70.1898 62.8419C70.517 62.397 70.3978 61.7735 69.9395 61.4616L63.282 56.9321C62.8253 56.6214 62.205 56.7383 61.8727 57.1769C60.5246 58.957 58.9119 60.5228 57.0901 61.8206C56.6403 62.1409 56.508 62.7572 56.8104 63.2198L61.2062 69.9433Z" fill="#F3DE09" stroke="#F3DE09" stroke-width="100" mask="url(#path-5-inside-4_16_127)"/>
<mask id="path-6-inside-5_16_127" fill="white">
<path d="M45.767 75.1809C45.7943 75.7322 46.2633 76.1586 46.8135 76.1146C50.37 75.8303 53.8543 74.9597 57.1234 73.5386C57.6316 73.3177 57.8443 72.7172 57.6054 72.2173L54.1448 64.9743C53.9075 64.4777 53.3142 64.2686 52.8063 64.4811C50.7394 65.3459 48.5519 65.8929 46.3194 66.1033C45.7692 66.1551 45.3433 66.6223 45.3706 67.1743L45.767 75.1809Z"/>
</mask>
<path d="M45.767 75.1809C45.7943 75.7322 46.2633 76.1586 46.8135 76.1146C50.37 75.8303 53.8543 74.9597 57.1234 73.5386C57.6316 73.3177 57.8443 72.7172 57.6054 72.2173L54.1448 64.9743C53.9075 64.4777 53.3142 64.2686 52.8063 64.4811C50.7394 65.3459 48.5519 65.8929 46.3194 66.1033C45.7692 66.1551 45.3433 66.6223 45.3706 67.1743L45.767 75.1809Z" fill="#F3DE09" stroke="#F3DE09" stroke-width="100" mask="url(#path-6-inside-5_16_127)"/>
<mask id="path-7-inside-6_16_127" fill="white">
<path d="M69.8172 26.4971C70.2795 26.1951 70.4086 25.5753 70.0896 25.124C68.0384 22.222 65.5158 19.6795 62.6254 17.6005C62.177 17.2779 61.5544 17.3976 61.2447 17.8524L56.7197 24.4966C56.4088 24.9529 56.5314 25.573 56.9767 25.9031C58.7709 27.2333 60.3516 28.8268 61.6643 30.629C61.9896 31.0755 62.609 31.2059 63.0711 30.904L69.8172 26.4971Z"/>
</mask>
<path d="M69.8172 26.4971C70.2795 26.1951 70.4086 25.5753 70.0896 25.124C68.0384 22.222 65.5158 19.6795 62.6254 17.6005C62.177 17.2779 61.5544 17.3976 61.2447 17.8524L56.7197 24.4966C56.4088 24.9529 56.5314 25.573 56.9767 25.9031C58.7709 27.2333 60.3516 28.8268 61.6643 30.629C61.9896 31.0755 62.609 31.2059 63.0711 30.904L69.8172 26.4971Z" fill="#F3DE09" stroke="#F3DE09" stroke-width="100" mask="url(#path-7-inside-6_16_127)"/>
<rect x="161" y="8" width="100" height="32" fill="#F3DE09"/>
<path d="M110.203 9.3125H120.406V12.5H114.25V20.4844H119.078V23.6719H114.25V32.8125H120.406V36H110.203V9.3125ZM122.453 14.4844H125.469L125.859 16.7812V16.7969C126.474 15.8073 127.172 15.1354 127.953 14.7812C128.734 14.4167 129.521 14.2344 130.312 14.2344C131.562 14.2344 132.531 14.6771 133.219 15.5625C133.906 16.4479 134.25 17.7656 134.25 19.5156V36H130.297V19.9844C130.297 19.0365 130.151 18.3802 129.859 18.0156C129.568 17.6406 129.141 17.4531 128.578 17.4531C128.182 17.4531 127.797 17.5833 127.422 17.8438C127.047 18.1042 126.708 18.4635 126.406 18.9219V36H122.453V14.4844ZM137.734 27.1875V23.125C137.734 21.4792 137.875 20.1146 138.156 19.0312C138.438 17.9479 138.807 17.0833 139.266 16.4375C139.734 15.7917 140.245 15.3125 140.797 15C141.359 14.6875 141.917 14.4844 142.469 14.3906C143.021 14.2865 143.526 14.2344 143.984 14.2344C144.932 14.2344 145.807 14.4375 146.609 14.8438C147.411 15.2396 148.052 15.9271 148.531 16.9062C149.021 17.875 149.266 19.224 149.266 20.9531C149.266 21.8177 149.219 22.7031 149.125 23.6094C149.031 24.5052 148.906 25.2969 148.75 25.9844H141.703V28.1719C141.703 30.0469 141.859 31.3698 142.172 32.1406C142.495 32.9115 143.104 33.2969 144 33.2969C144.49 33.2969 144.932 33.0885 145.328 32.6719C145.724 32.2448 145.922 31.4635 145.922 30.3281V29.3906H149.172V30.375C149.172 32.4167 148.682 33.9062 147.703 34.8438C146.734 35.7708 145.328 36.2344 143.484 36.2344C141.63 36.2344 140.208 35.526 139.219 34.1094C138.229 32.6927 137.734 30.3854 137.734 27.1875ZM145.578 23.3281C145.599 23.099 145.615 22.7552 145.625 22.2969C145.635 21.8281 145.641 21.4531 145.641 21.1719C145.641 19.7448 145.49 18.724 145.188 18.1094C144.885 17.4948 144.406 17.1823 143.75 17.1719C143.052 17.1719 142.536 17.526 142.203 18.2344C141.87 18.9323 141.703 20.2083 141.703 22.0625V23.3281H145.578ZM152.547 14.4844H155.438L155.781 16.6719C156.208 15.8594 156.708 15.25 157.281 14.8438C157.854 14.4375 158.438 14.2344 159.031 14.2344C161.25 14.2344 162.359 15.6302 162.359 18.4219C162.359 18.776 162.307 19.2448 162.203 19.8281C162.099 20.401 161.974 20.9062 161.828 21.3438H159.078V19.6719C159.078 18.8073 158.948 18.224 158.688 17.9219C158.427 17.6094 158.104 17.4531 157.719 17.4531C157.229 17.4531 156.823 17.8385 156.5 18.6094V36H152.547V14.4844ZM167.766 37.4688C167.766 38.3854 167.938 39.0365 168.281 39.4219C168.635 39.8177 169.167 40.0156 169.875 40.0156C170.271 40.0156 170.635 39.9271 170.969 39.75C171.312 39.5833 171.589 39.2708 171.797 38.8125C172.005 38.3542 172.109 37.6875 172.109 36.8125V33.4219C171.755 33.8698 171.302 34.2604 170.75 34.5938C170.198 34.9271 169.505 35.0938 168.672 35.0938C168.307 35.0938 167.865 35.026 167.344 34.8906C166.833 34.7552 166.323 34.4427 165.812 33.9531C165.312 33.4531 164.891 32.6771 164.547 31.625C164.214 30.5729 164.047 29.1354 164.047 27.3125V21.6562C164.047 19.9062 164.214 18.5312 164.547 17.5312C164.891 16.5312 165.312 15.7969 165.812 15.3281C166.323 14.8594 166.844 14.5625 167.375 14.4375C167.917 14.3125 168.38 14.25 168.766 14.25C169.818 14.25 170.625 14.5 171.188 15C171.76 15.4896 172.193 16.0208 172.484 16.5938L172.844 14.4688H175.922V35.125C175.922 37.5208 175.448 39.4219 174.5 40.8281C173.552 42.2448 172.026 42.9531 169.922 42.9531C168.974 42.9531 168.109 42.8333 167.328 42.5938C166.547 42.3646 165.922 41.9427 165.453 41.3281C164.995 40.7135 164.766 39.8438 164.766 38.7188C164.766 38.3646 164.833 37.9479 164.969 37.4688H167.766ZM170.016 31.875C170.536 31.875 170.953 31.7135 171.266 31.3906C171.578 31.0677 171.818 30.7083 171.984 30.3125V19.0312C171.786 18.6042 171.521 18.2344 171.188 17.9219C170.865 17.6094 170.469 17.4531 170 17.4531C169.615 17.4531 169.271 17.5573 168.969 17.7656C168.677 17.9635 168.443 18.3438 168.266 18.9062C168.099 19.4583 168.016 20.2708 168.016 21.3438V27.9375C168.016 29 168.099 29.8177 168.266 30.3906C168.443 30.9531 168.682 31.3438 168.984 31.5625C169.286 31.7708 169.63 31.875 170.016 31.875ZM179.109 40.1406C180.307 40.3073 181.286 40.0573 182.047 39.3906C182.807 38.7344 183.219 37.6458 183.281 36.125L178.188 14.4844H182.125L184.391 26.3906L185.047 30.5H185.172L185.625 26.3906L187.453 14.4844H191.266L186.844 36.7969C186.438 38.8594 185.812 40.401 184.969 41.4219C184.125 42.4427 182.865 42.9531 181.188 42.9531C180.51 42.9531 179.818 42.8229 179.109 42.5625V40.1406Z" fill="white"/>
<path d="M116.312 76.2344C115.667 76.2344 114.958 76.1406 114.188 75.9531C113.427 75.7656 112.703 75.375 112.016 74.7812C111.328 74.1875 110.766 73.2969 110.328 72.1094C109.891 70.9115 109.672 69.3125 109.672 67.3125V57.8594C109.672 56.2552 109.818 54.9219 110.109 53.8594C110.411 52.7865 110.802 51.9323 111.281 51.2969C111.771 50.651 112.307 50.1719 112.891 49.8594C113.484 49.5365 114.073 49.3281 114.656 49.2344C115.25 49.1302 115.797 49.0781 116.297 49.0781C117.672 49.0781 118.76 49.3333 119.562 49.8438C120.365 50.3542 120.938 51.0417 121.281 51.9062C121.635 52.7604 121.812 53.7031 121.812 54.7344C121.812 55.3073 121.766 55.8385 121.672 56.3281C121.589 56.8073 121.49 57.3385 121.375 57.9219H118.25V56.6406C118.25 53.7135 117.562 52.25 116.188 52.25C115.448 52.25 114.88 52.5729 114.484 53.2188C114.099 53.8542 113.906 55.026 113.906 56.7344V68.7656C113.906 70.4219 114.099 71.5521 114.484 72.1562C114.88 72.7604 115.49 73.0625 116.312 73.0625C116.885 73.0625 117.359 72.8229 117.734 72.3438C118.109 71.8542 118.297 71.0729 118.297 70V67.4688H121.844V69.9375C121.844 72.0729 121.37 73.6562 120.422 74.6875C119.474 75.7188 118.104 76.2344 116.312 76.2344ZM129.812 76.2344C129.125 76.2344 128.432 76.1354 127.734 75.9375C127.036 75.7292 126.391 75.3125 125.797 74.6875C125.214 74.0625 124.745 73.1198 124.391 71.8594C124.036 70.5885 123.859 68.8906 123.859 66.7656V63.3906C123.859 61.2969 124.042 59.6406 124.406 58.4219C124.771 57.1927 125.25 56.2812 125.844 55.6875C126.438 55.0833 127.083 54.6927 127.781 54.5156C128.479 54.3281 129.161 54.2344 129.828 54.2344C130.474 54.2344 131.141 54.3229 131.828 54.5C132.516 54.6667 133.151 55.0469 133.734 55.6406C134.318 56.224 134.792 57.1354 135.156 58.375C135.521 59.6042 135.703 61.276 135.703 63.3906V66.7656C135.703 68.8594 135.516 70.5365 135.141 71.7969C134.766 73.0469 134.281 73.9948 133.688 74.6406C133.094 75.276 132.453 75.7031 131.766 75.9219C131.089 76.1302 130.438 76.2344 129.812 76.2344ZM129.844 73.2969C130.552 73.2969 131.042 72.9062 131.312 72.125C131.594 71.3438 131.734 69.9479 131.734 67.9375V62.5781C131.734 60.5573 131.594 59.151 131.312 58.3594C131.042 57.5677 130.552 57.1719 129.844 57.1719C129.104 57.1719 128.583 57.5677 128.281 58.3594C127.979 59.151 127.828 60.5573 127.828 62.5781V67.9375C127.828 69.9479 127.979 71.3438 128.281 72.125C128.583 72.9062 129.104 73.2969 129.844 73.2969ZM139.203 54.4844H142.234L142.609 56.7812V56.7969C143.224 55.8073 143.922 55.1354 144.703 54.7812C145.495 54.4167 146.286 54.2344 147.078 54.2344C148.797 54.2344 149.953 55.0469 150.547 56.6719C151.161 55.7448 151.849 55.1094 152.609 54.7656C153.38 54.4115 154.156 54.2344 154.938 54.2344C156.177 54.2344 157.141 54.6771 157.828 55.5625C158.516 56.4479 158.859 57.7656 158.859 59.5156V76H154.906V59.9844C154.906 59.0365 154.76 58.3802 154.469 58.0156C154.188 57.6406 153.724 57.4531 153.078 57.4531C152.724 57.4531 152.359 57.5885 151.984 57.8594C151.62 58.1302 151.286 58.4948 150.984 58.9531C150.995 59.0469 151 59.1406 151 59.2344C151 59.3281 151 59.4219 151 59.5156V76H147.047V59.9844C147.047 59.0365 146.901 58.3802 146.609 58.0156C146.328 57.6406 145.865 57.4531 145.219 57.4531C144.865 57.4531 144.505 57.5833 144.141 57.8438C143.776 58.1042 143.448 58.4635 143.156 58.9219V76H139.203V54.4844ZM166.828 77.2188V82.9531H162.875V54.4844H165.969L166.328 56.75C166.693 56.1562 167.193 55.5938 167.828 55.0625C168.464 54.5208 169.292 54.25 170.312 54.25C170.646 54.25 171.057 54.3177 171.547 54.4531C172.047 54.5781 172.542 54.8854 173.031 55.375C173.531 55.8542 173.948 56.6146 174.281 57.6562C174.615 58.6979 174.781 60.1354 174.781 61.9688V68.4844C174.781 70.3073 174.609 71.7448 174.266 72.7969C173.932 73.8385 173.51 74.6094 173 75.1094C172.5 75.599 171.99 75.9115 171.469 76.0469C170.958 76.1823 170.521 76.25 170.156 76.25C169.323 76.25 168.625 76.0833 168.062 75.75C167.51 75.4167 167.057 75.026 166.703 74.5781L166.828 77.2188ZM166.828 71.3281C167.005 71.7344 167.245 72.099 167.547 72.4219C167.859 72.7448 168.281 72.9062 168.812 72.9062C169.198 72.9062 169.536 72.8021 169.828 72.5938C170.13 72.3854 170.365 72 170.531 71.4375C170.708 70.8646 170.797 70.0469 170.797 68.9844V61.3594C170.797 60.2865 170.714 59.474 170.547 58.9219C170.38 58.3594 170.146 57.974 169.844 57.7656C169.552 57.5573 169.214 57.4531 168.828 57.4531C168.339 57.4531 167.932 57.6042 167.609 57.9062C167.286 58.1979 167.026 58.5417 166.828 58.9375V71.3281ZM183.781 76.2344C183.094 76.2344 182.401 76.1354 181.703 75.9375C181.005 75.7292 180.359 75.3125 179.766 74.6875C179.182 74.0625 178.714 73.1198 178.359 71.8594C178.005 70.5885 177.828 68.8906 177.828 66.7656V63.3906C177.828 61.2969 178.01 59.6406 178.375 58.4219C178.74 57.1927 179.219 56.2812 179.812 55.6875C180.406 55.0833 181.052 54.6927 181.75 54.5156C182.448 54.3281 183.13 54.2344 183.797 54.2344C184.443 54.2344 185.109 54.3229 185.797 54.5C186.484 54.6667 187.12 55.0469 187.703 55.6406C188.286 56.224 188.76 57.1354 189.125 58.375C189.49 59.6042 189.672 61.276 189.672 63.3906V66.7656C189.672 68.8594 189.484 70.5365 189.109 71.7969C188.734 73.0469 188.25 73.9948 187.656 74.6406C187.062 75.276 186.422 75.7031 185.734 75.9219C185.057 76.1302 184.406 76.2344 183.781 76.2344ZM183.812 73.2969C184.521 73.2969 185.01 72.9062 185.281 72.125C185.562 71.3438 185.703 69.9479 185.703 67.9375V62.5781C185.703 60.5573 185.562 59.151 185.281 58.3594C185.01 57.5677 184.521 57.1719 183.812 57.1719C183.073 57.1719 182.552 57.5677 182.25 58.3594C181.948 59.151 181.797 60.5573 181.797 62.5781V67.9375C181.797 69.9479 181.948 71.3438 182.25 72.125C182.552 72.9062 183.073 73.2969 183.812 73.2969ZM193.172 54.4844H196.188L196.578 56.7812V56.7969C197.193 55.8073 197.891 55.1354 198.672 54.7812C199.453 54.4167 200.24 54.2344 201.031 54.2344C202.281 54.2344 203.25 54.6771 203.938 55.5625C204.625 56.4479 204.969 57.7656 204.969 59.5156V76H201.016V59.9844C201.016 59.0365 200.87 58.3802 200.578 58.0156C200.286 57.6406 199.859 57.4531 199.297 57.4531C198.901 57.4531 198.516 57.5833 198.141 57.8438C197.766 58.1042 197.427 58.4635 197.125 58.9219V76H193.172V54.4844ZM208.453 67.1875V63.125C208.453 61.4792 208.594 60.1146 208.875 59.0312C209.156 57.9479 209.526 57.0833 209.984 56.4375C210.453 55.7917 210.964 55.3125 211.516 55C212.078 54.6875 212.635 54.4844 213.188 54.3906C213.74 54.2865 214.245 54.2344 214.703 54.2344C215.651 54.2344 216.526 54.4375 217.328 54.8438C218.13 55.2396 218.771 55.9271 219.25 56.9062C219.74 57.875 219.984 59.224 219.984 60.9531C219.984 61.8177 219.938 62.7031 219.844 63.6094C219.75 64.5052 219.625 65.2969 219.469 65.9844H212.422V68.1719C212.422 70.0469 212.578 71.3698 212.891 72.1406C213.214 72.9115 213.823 73.2969 214.719 73.2969C215.208 73.2969 215.651 73.0885 216.047 72.6719C216.443 72.2448 216.641 71.4635 216.641 70.3281V69.3906H219.891V70.375C219.891 72.4167 219.401 73.9062 218.422 74.8438C217.453 75.7708 216.047 76.2344 214.203 76.2344C212.349 76.2344 210.927 75.526 209.938 74.1094C208.948 72.6927 208.453 70.3854 208.453 67.1875ZM216.297 63.3281C216.318 63.099 216.333 62.7552 216.344 62.2969C216.354 61.8281 216.359 61.4531 216.359 61.1719C216.359 59.7448 216.208 58.724 215.906 58.1094C215.604 57.4948 215.125 57.1823 214.469 57.1719C213.771 57.1719 213.255 57.526 212.922 58.2344C212.589 58.9323 212.422 60.2083 212.422 62.0625V63.3281H216.297ZM223.266 54.4844H226.281L226.672 56.7812V56.7969C227.286 55.8073 227.984 55.1354 228.766 54.7812C229.547 54.4167 230.333 54.2344 231.125 54.2344C232.375 54.2344 233.344 54.6771 234.031 55.5625C234.719 56.4479 235.062 57.7656 235.062 59.5156V76H231.109V59.9844C231.109 59.0365 230.964 58.3802 230.672 58.0156C230.38 57.6406 229.953 57.4531 229.391 57.4531C228.995 57.4531 228.609 57.5833 228.234 57.8438C227.859 58.1042 227.521 58.4635 227.219 58.9219V76H223.266V54.4844ZM239.359 57.4844H237.531V54.4844H239.703L240.5 48.9062H243.312V54.4844H246.906V57.4844H243.312V70.6719C243.312 71.6094 243.479 72.2031 243.812 72.4531C244.156 72.7031 244.557 72.8281 245.016 72.8281C245.745 72.8281 246.37 72.6667 246.891 72.3438V74.8438C246.443 75.3958 245.922 75.7708 245.328 75.9688C244.734 76.1562 244.161 76.25 243.609 76.25C242.88 76.25 242.188 76.1094 241.531 75.8281C240.885 75.5365 240.359 74.9896 239.953 74.1875C239.557 73.375 239.359 72.1927 239.359 70.6406V57.4844ZM248.391 71.5C248.391 71.0312 248.432 70.5781 248.516 70.1406C248.609 69.7031 248.698 69.3542 248.781 69.0938H251.562C251.562 70.6562 251.755 71.75 252.141 72.375C252.536 72.9896 253.099 73.2969 253.828 73.2969C254.349 73.2969 254.755 73.1406 255.047 72.8281C255.339 72.5052 255.484 72.125 255.484 71.6875C255.484 71.2292 255.359 70.7865 255.109 70.3594C254.87 69.9323 254.536 69.4635 254.109 68.9531L251.344 65.5469C250.594 64.599 249.922 63.6094 249.328 62.5781C248.745 61.5365 248.453 60.3906 248.453 59.1406C248.453 58.026 248.698 57.1094 249.188 56.3906C249.677 55.6615 250.323 55.1198 251.125 54.7656C251.927 54.4115 252.797 54.2344 253.734 54.2344C255.286 54.2344 256.526 54.6094 257.453 55.3594C258.38 56.099 258.844 57.2135 258.844 58.7031C258.844 59.1927 258.797 59.6771 258.703 60.1562C258.62 60.625 258.536 61.026 258.453 61.3594H255.719C255.698 59.9427 255.531 58.8906 255.219 58.2031C254.906 57.5156 254.391 57.1719 253.672 57.1719C253.068 57.1719 252.651 57.3594 252.422 57.7344C252.193 58.1094 252.078 58.526 252.078 58.9844C252.078 59.4844 252.203 59.9375 252.453 60.3438C252.703 60.7396 253.026 61.1875 253.422 61.6875L256.547 65.4688C256.849 65.8438 257.198 66.3229 257.594 66.9062C257.99 67.4792 258.333 68.1302 258.625 68.8594C258.927 69.5781 259.078 70.3594 259.078 71.2031C259.078 72.7135 258.604 73.9323 257.656 74.8594C256.708 75.776 255.354 76.2344 253.594 76.2344C252.635 76.2344 251.76 76.0885 250.969 75.7969C250.177 75.4948 249.547 75 249.078 74.3125C248.62 73.6146 248.391 72.6771 248.391 71.5Z" fill="white"/>
</svg>
