<svg width="159" height="111" viewBox="0 0 159 111" fill="none" xmlns="http://www.w3.org/2000/svg">
<path d="M133.158 88.952H136.794C138.098 88.952 139.05 89.228 139.65 89.78C140.17 90.268 140.43 90.972 140.43 91.892V92.024C140.43 92.944 140.166 93.652 139.638 94.148C139.03 94.716 138.082 95 136.794 95H130.686V86.072H133.158V88.952ZM136.602 93.032C137.018 93.032 137.33 92.94 137.538 92.756C137.754 92.572 137.862 92.32 137.862 92V91.916C137.862 91.604 137.754 91.36 137.538 91.184C137.33 91.008 137.018 90.92 136.602 90.92H133.158V93.032H136.602ZM144.426 86.072V95H141.954V86.072H144.426Z" fill="white"/>
<path d="M123.113 95V88.112H119.657V86.072H129.029V88.112H125.573V95H123.113Z" fill="white"/>
<path d="M115.533 95V91.412H110.553V95H108.081V86.072H110.553V89.384H115.533V86.072H118.005V95H115.533Z" fill="white"/>
<path d="M97.8618 86.072H106.034V88.016H100.298V89.468H105.854V91.484H100.298V93.032H106.106V95H97.8618V86.072Z" fill="white"/>
<path d="M93.1849 95V91.412H88.2049V95H85.7329V86.072H88.2049V89.384H93.1849V86.072H95.6569V95H93.1849Z" fill="white"/>
<path d="M78.5609 85.928C79.5529 85.928 80.4009 86.06 81.1049 86.324C81.8089 86.58 82.3769 86.936 82.8089 87.392C83.1929 87.8 83.4729 88.26 83.6489 88.772C83.8329 89.284 83.9249 89.804 83.9249 90.332V90.692C83.9249 91.212 83.8329 91.732 83.6489 92.252C83.4729 92.764 83.1929 93.224 82.8089 93.632C82.3689 94.104 81.7969 94.476 81.0929 94.748C80.3889 95.012 79.5449 95.144 78.5609 95.144H78.0329C76.7449 95.144 75.6649 94.9 74.7929 94.412C74.0329 93.988 73.4809 93.416 73.1369 92.696C72.8249 92.08 72.6689 91.412 72.6689 90.692V90.332C72.6689 89.612 72.8249 88.944 73.1369 88.328C73.4889 87.608 74.0409 87.044 74.7929 86.636C75.6569 86.164 76.7369 85.928 78.0329 85.928H78.5609ZM81.3569 90.428C81.3569 89.756 81.1609 89.208 80.7689 88.784C80.2649 88.24 79.4409 87.968 78.2969 87.968C77.1769 87.968 76.3569 88.24 75.8369 88.784C75.4369 89.208 75.2369 89.756 75.2369 90.428V90.596C75.2369 90.892 75.2849 91.184 75.3809 91.472C75.4769 91.76 75.6329 92.016 75.8489 92.24C76.3769 92.808 77.1929 93.092 78.2969 93.092C79.4329 93.092 80.2569 92.808 80.7689 92.24C81.1609 91.816 81.3569 91.268 81.3569 90.596V90.428Z" fill="white"/>
<path d="M61.604 95V86.072H70.856V95H68.384V88.04H64.076V95H61.604Z" fill="white"/>
<path d="M47.2485 95V86.072H50.5365L53.3805 92.12L56.3085 86.072H59.3925V95H56.9805V89.156L54.2685 95H52.3365L49.6245 89.156V95H47.2485Z" fill="white"/>
<path d="M40.0766 85.928C41.0686 85.928 41.9166 86.06 42.6206 86.324C43.3246 86.58 43.8926 86.936 44.3246 87.392C44.7086 87.8 44.9886 88.26 45.1646 88.772C45.3486 89.284 45.4406 89.804 45.4406 90.332V90.692C45.4406 91.212 45.3486 91.732 45.1646 92.252C44.9886 92.764 44.7086 93.224 44.3246 93.632C43.8846 94.104 43.3126 94.476 42.6086 94.748C41.9046 95.012 41.0606 95.144 40.0766 95.144H39.5486C38.2606 95.144 37.1806 94.9 36.3086 94.412C35.5486 93.988 34.9966 93.416 34.6526 92.696C34.3406 92.08 34.1846 91.412 34.1846 90.692V90.332C34.1846 89.612 34.3406 88.944 34.6526 88.328C35.0046 87.608 35.5566 87.044 36.3086 86.636C37.1726 86.164 38.2526 85.928 39.5486 85.928H40.0766ZM42.8726 90.428C42.8726 89.756 42.6766 89.208 42.2846 88.784C41.7806 88.24 40.9566 87.968 39.8126 87.968C38.6926 87.968 37.8726 88.24 37.3526 88.784C36.9526 89.208 36.7526 89.756 36.7526 90.428V90.596C36.7526 90.892 36.8006 91.184 36.8966 91.472C36.9926 91.76 37.1486 92.016 37.3646 92.24C37.8926 92.808 38.7086 93.092 39.8126 93.092C40.9486 93.092 41.7726 92.808 42.2846 92.24C42.6766 91.816 42.8726 91.268 42.8726 90.596V90.428Z" fill="white"/>
<path d="M30.872 95L26.576 90.8V95H24.104V86.072H26.576V89.744L30.752 86.072H33.896L29.192 90.164L34.1 95H30.872Z" fill="white"/>
<path d="M98.9211 110V104L93.7011 110H91.2291V101.072H93.7011V107.072L98.9211 101.072H101.393V110H98.9211Z" fill="white"/>
<path d="M86.5461 110V104L81.3261 110H78.8541V101.072H81.3261V107.072L86.5461 101.072H89.0181V110H86.5461Z" fill="white"/>
<path d="M70.0065 110V101.072H77.4465V103.04H72.4785V110H70.0065Z" fill="white"/>
<path d="M61.0058 107.144V110H58.5338V101.072H64.5818C65.9018 101.072 66.8698 101.348 67.4858 101.9C68.0138 102.388 68.2778 103.1 68.2778 104.036V104.168C68.2778 105.096 68.0098 105.804 67.4738 106.292C66.8578 106.86 65.8938 107.144 64.5818 107.144H61.0058ZM61.0058 105.152H64.4018C65.2738 105.152 65.7098 104.812 65.7098 104.132V104.084C65.7098 103.764 65.6018 103.516 65.3858 103.34C65.1698 103.156 64.8418 103.064 64.4018 103.064H61.0058V105.152Z" fill="white"/>
<path d="M48.3151 101.072H56.4871V103.016H50.7511V104.468H56.3071V106.484H50.7511V108.032H56.5591V110H48.3151V101.072Z" fill="white"/>
<path d="M43.6382 110V106.412H38.6582V110H36.1862V101.072H38.6582V104.384H43.6382V101.072H46.1102V110H43.6382Z" fill="white"/>
<path d="M34.3761 105.692C34.3761 106.196 34.2921 106.704 34.1241 107.216C33.9561 107.728 33.6921 108.188 33.3321 108.596C32.9081 109.068 32.3561 109.444 31.6761 109.724C30.9961 109.996 30.1761 110.132 29.2161 110.132H28.6641C26.9281 110.132 25.6241 109.736 24.7521 108.944C24.3841 108.616 24.1121 108.244 23.9361 107.828C23.7601 107.412 23.6721 106.984 23.6721 106.544V106.508H26.2161C26.2241 106.62 26.2641 106.764 26.3361 106.94C26.4081 107.108 26.5281 107.272 26.6961 107.432C27.1681 107.904 27.9121 108.14 28.9281 108.14C29.7201 108.14 30.3641 107.964 30.8601 107.612C31.2841 107.308 31.5761 106.912 31.7361 106.424H27.6681V104.528H31.7361C31.5761 104.048 31.2841 103.668 30.8601 103.388C30.3801 103.076 29.7401 102.92 28.9401 102.92C27.9401 102.92 27.1961 103.148 26.7081 103.604C26.5161 103.788 26.3881 103.964 26.3241 104.132L26.2161 104.492H23.6721V104.468C23.6721 104.02 23.7601 103.588 23.9361 103.172C24.1121 102.756 24.3881 102.388 24.7641 102.068C25.6361 101.316 26.9361 100.94 28.6641 100.94H29.2161C30.1761 100.94 30.9961 101.076 31.6761 101.348C32.3641 101.612 32.9161 101.976 33.3321 102.44C33.6921 102.848 33.9561 103.308 34.1241 103.82C34.2921 104.324 34.3761 104.828 34.3761 105.332V105.692Z" fill="white"/>
<path d="M159 40.7729C159 44.8851 158.309 49.03 156.928 53.2076C155.547 57.3851 153.377 61.1384 150.417 64.4674C146.931 68.3185 142.393 71.3864 136.803 73.671C131.212 75.8903 124.471 77 116.578 77H112.04C97.7683 77 87.0478 73.7689 79.8789 67.3068C76.8535 64.6305 74.6173 61.5953 73.1704 58.201C71.7235 54.8068 71 51.3146 71 47.7245V47.4308H91.9148C91.9806 48.3446 92.3094 49.5196 92.9013 50.9556C93.4933 52.3264 94.4798 53.6645 95.861 54.97C99.7414 58.8212 105.858 60.7467 114.211 60.7467C120.722 60.7467 126.016 59.3107 130.094 56.4386C133.58 53.9582 135.981 50.7272 137.296 46.7454H103.852V31.2755H137.296C135.981 27.359 133.58 24.2585 130.094 21.9739C126.148 19.4282 120.886 18.1554 114.309 18.1554C106.088 18.1554 99.9716 20.0157 95.9596 23.7363C94.3812 25.2376 93.3288 26.6736 92.8027 28.0444L91.9148 30.9817H71V30.7859C71 27.1306 71.7235 23.6057 73.1704 20.2115C74.6173 16.8172 76.8864 13.8146 79.9776 11.2037C87.1465 5.06789 97.8341 2 112.04 2H116.578C124.471 2 131.212 3.10966 136.803 5.32899C142.459 7.48303 146.997 10.453 150.417 14.2389C153.377 17.5679 155.547 21.3211 156.928 25.4987C158.309 29.611 159 33.7232 159 37.8355V40.7729Z" fill="white" fill-opacity="0.3"/>
<path fill-rule="evenodd" clip-rule="evenodd" d="M0 0L35.5 35H25.5L44.5 70L9 35H19L0 0Z" fill="#F5EA29"/>
<path fill-rule="evenodd" clip-rule="evenodd" d="M24.2 23.8592L0 0L19 35H9L24.2 49.9859V77.0001H44.8V42.0001L80.6 77.0001H107.5L66.6 36.7001L105.8 2.6001H79.6L44.8 33.2001V2.6001H24.2V23.8592ZM24.2 23.8592V49.9859L44.5 70L25.5 35H35.5L24.2 23.8592Z" fill="white"/>
</svg>
