<svg width="159" height="100" viewBox="0 0 159 100" fill="none" xmlns="http://www.w3.org/2000/svg">
<g clip-path="url(#clip0_160_42)">
<path d="M133.158 80.137H136.794C138.098 80.137 139.05 80.3856 139.65 80.8829C140.17 81.3225 140.43 81.9568 140.43 82.7856V82.9045C140.43 83.7334 140.166 84.3712 139.638 84.818C139.03 85.3297 138.082 85.5856 136.794 85.5856H130.686V77.5424H133.158V80.137ZM136.602 83.8126C137.018 83.8126 137.33 83.7297 137.538 83.564C137.754 83.3982 137.862 83.1712 137.862 82.8829V82.8072C137.862 82.5261 137.754 82.3063 137.538 82.1478C137.33 81.9892 137.018 81.9099 136.602 81.9099H133.158V83.8126H136.602ZM144.426 77.5424V85.5856H141.954V77.5424H144.426Z" fill="#342F2C"/>
<path d="M123.113 85.5856V79.3802H119.657V77.5424H129.029V79.3802H125.573V85.5856H123.113Z" fill="#342F2C"/>
<path d="M115.533 85.5856V82.3532H110.553V85.5856H108.081V77.5424H110.553V80.5261H115.533V77.5424H118.005V85.5856H115.533Z" fill="#342F2C"/>
<path d="M97.8618 77.5424H106.034V79.2937H100.298V80.6018H105.854V82.418H100.298V83.8126H106.106V85.5856H97.8618V77.5424Z" fill="#342F2C"/>
<path d="M93.1849 85.5856V82.3532H88.2049V85.5856H85.7329V77.5424H88.2049V80.5261H93.1849V77.5424H95.6569V85.5856H93.1849Z" fill="#342F2C"/>
<path d="M78.5609 77.4126C79.5529 77.4126 80.4009 77.5315 81.1049 77.7694C81.8089 78 82.3769 78.3207 82.8089 78.7315C83.1929 79.0991 83.4729 79.5135 83.6489 79.9748C83.8329 80.436 83.9249 80.9045 83.9249 81.3802V81.7045C83.9249 82.173 83.8329 82.6414 83.6489 83.1099C83.4729 83.5712 83.1929 83.9856 82.8089 84.3531C82.3689 84.7784 81.7969 85.1135 81.0929 85.3585C80.3889 85.5964 79.5449 85.7153 78.5609 85.7153H78.0329C76.7449 85.7153 75.6649 85.4955 74.7929 85.0558C74.0329 84.6739 73.4809 84.1585 73.1369 83.5099C72.8249 82.9549 72.6689 82.3531 72.6689 81.7045V81.3802C72.6689 80.7315 72.8249 80.1297 73.1369 79.5748C73.4889 78.9261 74.0409 78.418 74.7929 78.0504C75.6569 77.6252 76.7369 77.4126 78.0329 77.4126H78.5609ZM81.3569 81.4667C81.3569 80.8612 81.1609 80.3675 80.7689 79.9856C80.2649 79.4955 79.4409 79.2504 78.2969 79.2504C77.1769 79.2504 76.3569 79.4955 75.8369 79.9856C75.4369 80.3675 75.2369 80.8612 75.2369 81.4667V81.618C75.2369 81.8847 75.2849 82.1477 75.3809 82.4072C75.4769 82.6667 75.6329 82.8973 75.8489 83.0991C76.3769 83.6108 77.1929 83.8667 78.2969 83.8667C79.4329 83.8667 80.2569 83.6108 80.7689 83.0991C81.1609 82.7171 81.3569 82.2234 81.3569 81.618V81.4667Z" fill="#342F2C"/>
<path d="M61.604 85.5856V77.5424H70.856V85.5856H68.384V79.3153H64.076V85.5856H61.604Z" fill="#342F2C"/>
<path d="M47.2485 85.5856V77.5424H50.5365L53.3805 82.991L56.3085 77.5424H59.3925V85.5856H56.9805V80.3207L54.2685 85.5856H52.3365L49.6245 80.3207V85.5856H47.2485Z" fill="#342F2C"/>
<path d="M40.0766 77.4126C41.0686 77.4126 41.9166 77.5315 42.6206 77.7694C43.3246 78 43.8926 78.3207 44.3246 78.7315C44.7086 79.0991 44.9886 79.5135 45.1646 79.9748C45.3486 80.436 45.4406 80.9045 45.4406 81.3802V81.7045C45.4406 82.173 45.3486 82.6414 45.1646 83.1099C44.9886 83.5712 44.7086 83.9856 44.3246 84.3531C43.8846 84.7784 43.3126 85.1135 42.6086 85.3585C41.9046 85.5964 41.0606 85.7153 40.0766 85.7153H39.5486C38.2606 85.7153 37.1806 85.4955 36.3086 85.0558C35.5486 84.6739 34.9966 84.1585 34.6526 83.5099C34.3406 82.9549 34.1846 82.3531 34.1846 81.7045V81.3802C34.1846 80.7315 34.3406 80.1297 34.6526 79.5748C35.0046 78.9261 35.5566 78.418 36.3086 78.0504C37.1726 77.6252 38.2526 77.4126 39.5486 77.4126H40.0766ZM42.8726 81.4667C42.8726 80.8612 42.6766 80.3675 42.2846 79.9856C41.7806 79.4955 40.9566 79.2504 39.8126 79.2504C38.6926 79.2504 37.8726 79.4955 37.3526 79.9856C36.9526 80.3675 36.7526 80.8612 36.7526 81.4667V81.618C36.7526 81.8847 36.8006 82.1477 36.8966 82.4072C36.9926 82.6667 37.1486 82.8973 37.3646 83.0991C37.8926 83.6108 38.7086 83.8667 39.8126 83.8667C40.9486 83.8667 41.7726 83.6108 42.2846 83.0991C42.6766 82.7171 42.8726 82.2234 42.8726 81.618V81.4667Z" fill="#342F2C"/>
<path d="M30.872 85.5856L26.576 81.8018V85.5856H24.104V77.5424H26.576V80.8505L30.752 77.5424H33.896L29.192 81.2288L34.1 85.5856H30.872Z" fill="#342F2C"/>
<path d="M98.921 99.0991V93.6937L93.701 99.0991H91.229V91.0558H93.701V96.4613L98.921 91.0558H101.393V99.0991H98.921Z" fill="#342F2C"/>
<path d="M86.546 99.0991V93.6937L81.326 99.0991H78.854V91.0558H81.326V96.4613L86.546 91.0558H89.018V99.0991H86.546Z" fill="#342F2C"/>
<path d="M70.0063 99.0991V91.0558H77.4463V92.8288H72.4783V99.0991H70.0063Z" fill="#342F2C"/>
<path d="M61.0057 96.5261V99.0991H58.5337V91.0558H64.5817C65.9017 91.0558 66.8697 91.3045 67.4857 91.8018C68.0137 92.2414 68.2777 92.8829 68.2777 93.7261V93.845C68.2777 94.6811 68.0097 95.3189 67.4737 95.7586C66.8577 96.2703 65.8937 96.5261 64.5817 96.5261H61.0057ZM61.0057 94.7315H64.4017C65.2737 94.7315 65.7097 94.4252 65.7097 93.8126V93.7694C65.7097 93.4811 65.6017 93.2576 65.3857 93.0991C65.1697 92.9333 64.8417 92.8504 64.4017 92.8504H61.0057V94.7315Z" fill="#342F2C"/>
<path d="M48.3149 91.0558H56.4869V92.8072H50.7509V94.1153H56.3069V95.9315H50.7509V97.3261H56.5589V99.0991H48.3149V91.0558Z" fill="#342F2C"/>
<path d="M43.638 99.0991V95.8667H38.658V99.0991H36.186V91.0558H38.658V94.0396H43.638V91.0558H46.11V99.0991H43.638Z" fill="#342F2C"/>
<path d="M34.3761 95.218C34.3761 95.6721 34.2921 96.1297 34.1241 96.591C33.9561 97.0523 33.6921 97.4667 33.3321 97.8342C32.9081 98.2595 32.3561 98.5982 31.6761 98.8505C30.9961 99.0955 30.1761 99.218 29.2161 99.218H28.6641C26.9281 99.218 25.6241 98.8613 24.7521 98.1478C24.3841 97.8523 24.1121 97.5171 23.9361 97.1424C23.7601 96.7676 23.6721 96.382 23.6721 95.9856V95.9532H26.2161C26.2241 96.0541 26.2641 96.1838 26.3361 96.3424C26.4081 96.4937 26.5281 96.6415 26.6961 96.7856C27.1681 97.2108 27.9121 97.4234 28.9281 97.4234C29.7201 97.4234 30.3641 97.2649 30.8601 96.9478C31.2841 96.6739 31.5761 96.3171 31.7361 95.8775H27.6681V94.1694H31.7361C31.5761 93.7369 31.2841 93.3946 30.8601 93.1424C30.3801 92.8613 29.7401 92.7207 28.9401 92.7207C27.9401 92.7207 27.1961 92.9261 26.7081 93.3369C26.5161 93.5027 26.3881 93.6613 26.3241 93.8126L26.2161 94.1369H23.6721V94.1153C23.6721 93.7117 23.7601 93.3225 23.9361 92.9478C24.1121 92.573 24.3881 92.2415 24.7641 91.9532C25.6361 91.2757 26.9361 90.937 28.6641 90.937H29.2161C30.1761 90.937 30.9961 91.0595 31.6761 91.3045C32.3641 91.5424 32.9161 91.8703 33.3321 92.2883C33.6921 92.6559 33.9561 93.0703 34.1241 93.5315C34.2921 93.9856 34.3761 94.4397 34.3761 94.8937V95.218Z" fill="#342F2C"/>
<path d="M159 36.7324C159 40.437 158.309 44.1712 156.928 47.9348C155.547 51.6983 153.377 55.0797 150.417 58.0788C146.931 61.5482 142.393 64.3121 136.803 66.3703C131.212 68.3697 124.471 69.3694 116.578 69.3694H112.04C97.7683 69.3694 87.0478 66.4585 79.8789 60.6368C76.8535 58.2257 74.6173 55.4913 73.1704 52.4334C71.7235 49.3755 71 46.2294 71 42.9951V42.7305H91.9148C91.9806 43.5537 92.3094 44.6123 92.9013 45.906C93.4933 47.1409 94.4798 48.3464 95.861 49.5225C99.7414 52.9921 105.858 54.7268 114.211 54.7268C120.722 54.7268 126.016 53.4331 130.094 50.8456C133.58 48.611 135.981 45.7002 137.296 42.113H103.852V28.1761H137.296C135.981 24.6478 133.58 21.8545 130.094 19.7963C126.148 17.5029 120.886 16.3562 114.309 16.3562C106.088 16.3562 99.9716 18.0322 95.9596 21.3841C94.3812 22.7366 93.3288 24.0303 92.8027 25.2652L91.9148 27.9115H71V27.7351C71 24.442 71.7235 21.2664 73.1704 18.2086C74.6173 15.1506 76.8864 12.4456 79.9776 10.0934C87.1465 4.56568 97.8341 1.80182 112.04 1.80182H116.578C124.471 1.80182 131.212 2.80151 136.803 4.80091C142.459 6.74149 146.997 9.41713 150.417 12.8279C153.377 15.827 155.547 19.2082 156.928 22.9718C158.309 26.6766 159 30.3813 159 34.0861V36.7324Z" fill="#342F2C" fill-opacity="0.6"/>
<path fill-rule="evenodd" clip-rule="evenodd" d="M0 0L35.5 31.5315H25.5L44.5 63.0631L9 31.5315H19L0 0Z" fill="#F5EA29"/>
<path fill-rule="evenodd" clip-rule="evenodd" d="M24.2 21.4948L0 0L19 31.5315H9L24.2 45.0323V69.3695H44.8V37.8379L80.6 69.3695H107.5L66.6 33.0632L105.8 2.34243H79.6L44.8 29.91V2.34243H24.2V21.4948ZM24.2 21.4948V45.0323L44.5 63.0631L25.5 31.5315H35.5L24.2 21.4948Z" fill="#342F2C"/>
</g>
<defs>
<clipPath id="clip0_160_42">
<rect width="159" height="100" fill="white"/>
</clipPath>
</defs>
</svg>
