<svg width="103" height="65" viewBox="0 0 103 65" fill="none" xmlns="http://www.w3.org/2000/svg">
<g clip-path="url(#clip0_160_42)">
<path d="M86.2596 52.089H88.615C89.4597 52.089 90.0764 52.2506 90.4651 52.5739C90.8019 52.8596 90.9703 53.2719 90.9703 53.8106V53.8879C90.9703 54.4267 90.7993 54.8413 90.4573 55.1317C90.0634 55.4643 89.4493 55.6306 88.615 55.6306H84.6582V50.4025H86.2596V52.089ZM88.4906 54.4782C88.7601 54.4782 88.9622 54.4243 89.0969 54.3166C89.2368 54.2088 89.3068 54.0613 89.3068 53.8739V53.8247C89.3068 53.642 89.2368 53.4991 89.0969 53.396C88.9622 53.293 88.7601 53.2414 88.4906 53.2414H86.2596V54.4782H88.4906ZM93.559 50.4025V55.6306H91.9576V50.4025H93.559Z" fill="#342F2C"/>
<path d="M79.7525 55.6306V51.5971H77.5137V50.4025H83.5848V51.5971H81.346V55.6306H79.7525Z" fill="#342F2C"/>
<path d="M74.8422 55.6306V53.5296H71.6161V55.6306H70.0148V50.4025H71.6161V52.342H74.8422V50.4025H76.4435V55.6306H74.8422Z" fill="#342F2C"/>
<path d="M63.3948 50.4025H68.6887V51.5409H64.9729V52.3912H68.5721V53.5717H64.9729V54.4782H68.7354V55.6306H63.3948V50.4025Z" fill="#342F2C"/>
<path d="M60.3651 55.6306V53.5296H57.1391V55.6306H55.5377V50.4025H57.1391V52.342H60.3651V50.4025H61.9665V55.6306H60.3651Z" fill="#342F2C"/>
<path d="M50.8917 50.3182C51.5343 50.3182 52.0836 50.3955 52.5397 50.5501C52.9957 50.7 53.3637 50.9084 53.6435 51.1755C53.8923 51.4144 54.0736 51.6838 54.1877 51.9836C54.3069 52.2834 54.3664 52.5879 54.3664 52.8971V53.1079C54.3664 53.4124 54.3069 53.7169 54.1877 54.0214C54.0736 54.3212 53.8923 54.5906 53.6435 54.8295C53.3585 55.1059 52.9879 55.3238 52.5319 55.483C52.0758 55.6376 51.5291 55.7149 50.8917 55.7149H50.5496C49.7153 55.7149 49.0156 55.5721 48.4508 55.2863C47.9584 55.038 47.6008 54.703 47.378 54.2814C47.1759 53.9207 47.0748 53.5295 47.0748 53.1079V52.8971C47.0748 52.4755 47.1759 52.0843 47.378 51.7236C47.606 51.302 47.9636 50.9717 48.4508 50.7328C49.0105 50.4564 49.7101 50.3182 50.5496 50.3182H50.8917ZM52.7029 52.9533C52.7029 52.5598 52.5759 52.2389 52.322 51.9906C51.9955 51.672 51.4617 51.5128 50.7206 51.5128C49.9951 51.5128 49.4639 51.672 49.1271 51.9906C48.8679 52.2389 48.7384 52.5598 48.7384 52.9533V53.0517C48.7384 53.225 48.7695 53.396 48.8317 53.5647C48.8938 53.7333 48.9949 53.8832 49.1348 54.0144C49.4769 54.347 50.0055 54.5133 50.7206 54.5133C51.4565 54.5133 51.9903 54.347 52.322 54.0144C52.5759 53.7661 52.7029 53.4452 52.7029 53.0517V52.9533Z" fill="#342F2C"/>
<path d="M39.907 55.6306V50.4025H45.9004V55.6306H44.2991V51.555H41.5083V55.6306H39.907Z" fill="#342F2C"/>
<path d="M30.6075 55.6306V50.4025H32.7375L34.5798 53.9442L36.4766 50.4025H38.4744V55.6306H36.9119V52.2085L35.1551 55.6306H33.9035L32.1467 52.2085V55.6306H30.6075Z" fill="#342F2C"/>
<path d="M25.9616 50.3182C26.6042 50.3182 27.1536 50.3955 27.6096 50.5501C28.0657 50.7 28.4336 50.9084 28.7135 51.1755C28.9622 51.4144 29.1436 51.6838 29.2576 51.9836C29.3768 52.2834 29.4364 52.5879 29.4364 52.8971V53.1079C29.4364 53.4124 29.3768 53.7169 29.2576 54.0214C29.1436 54.3212 28.9622 54.5906 28.7135 54.8295C28.4284 55.1059 28.0579 55.3238 27.6018 55.483C27.1458 55.6376 26.599 55.7149 25.9616 55.7149H25.6196C24.7852 55.7149 24.0856 55.5721 23.5207 55.2863C23.0284 55.038 22.6708 54.703 22.4479 54.2814C22.2458 53.9207 22.1448 53.5295 22.1448 53.1079V52.8971C22.1448 52.4755 22.2458 52.0843 22.4479 51.7236C22.676 51.302 23.0336 50.9717 23.5207 50.7328C24.0804 50.4564 24.78 50.3182 25.6196 50.3182H25.9616ZM27.7729 52.9533C27.7729 52.5598 27.6459 52.2389 27.3919 51.9906C27.0655 51.672 26.5317 51.5128 25.7906 51.5128C25.0651 51.5128 24.5339 51.672 24.197 51.9906C23.9379 52.2389 23.8083 52.5598 23.8083 52.9533V53.0517C23.8083 53.225 23.8394 53.396 23.9016 53.5647C23.9638 53.7333 24.0649 53.8832 24.2048 54.0144C24.5468 54.347 25.0754 54.5133 25.7906 54.5133C26.5265 54.5133 27.0603 54.347 27.3919 54.0144C27.6459 53.7661 27.7729 53.4452 27.7729 53.0517V52.9533Z" fill="#342F2C"/>
<path d="M19.9988 55.6306L17.2159 53.1712V55.6306H15.6145V50.4025H17.2159V52.5528L19.9211 50.4025H21.9577L18.9105 52.7987L22.0899 55.6306H19.9988Z" fill="#342F2C"/>
<path d="M64.0809 64.4144V60.9009L60.6994 64.4144H59.098V59.1863H60.6994V62.6998L64.0809 59.1863H65.6823V64.4144H64.0809Z" fill="#342F2C"/>
<path d="M56.0644 64.4144V60.9009L52.6829 64.4144H51.0815V59.1863H52.6829V62.6998L56.0644 59.1863H57.6658V64.4144H56.0644Z" fill="#342F2C"/>
<path d="M45.35 64.4144V59.1863H50.1696V60.3387H46.9513V64.4144H45.35Z" fill="#342F2C"/>
<path d="M39.5194 62.742V64.4144H37.9181V59.1863H41.836C42.6911 59.1863 43.3181 59.3479 43.7172 59.6711C44.0592 59.9569 44.2302 60.3738 44.2302 60.922V60.9993C44.2302 61.5427 44.0566 61.9573 43.7094 62.243C43.3104 62.5756 42.6859 62.742 41.836 62.742H39.5194ZM39.5194 61.5755H41.7194C42.2843 61.5755 42.5667 61.3764 42.5667 60.9782V60.9501C42.5667 60.7627 42.4967 60.6174 42.3568 60.5144C42.2169 60.4066 42.0044 60.3528 41.7194 60.3528H39.5194V61.5755Z" fill="#342F2C"/>
<path d="M31.2983 59.1863H36.5922V60.3247H32.8764V61.1749H36.4755V62.3555H32.8764V63.262H36.6388V64.4144H31.2983V59.1863Z" fill="#342F2C"/>
<path d="M28.2687 64.4144V62.3133H25.0426V64.4144H23.4413V59.1863H25.0426V61.1257H28.2687V59.1863H29.87V64.4144H28.2687Z" fill="#342F2C"/>
<path d="M22.2688 61.8917C22.2688 62.1868 22.2143 62.4843 22.1055 62.7841C21.9967 63.084 21.8257 63.3533 21.5925 63.5923C21.3178 63.8686 20.9602 64.0888 20.5197 64.2528C20.0792 64.4121 19.548 64.4917 18.9261 64.4917H18.5685C17.4439 64.4917 16.5992 64.2598 16.0343 63.796C15.7959 63.604 15.6197 63.3861 15.5057 63.1425C15.3917 62.8989 15.3347 62.6483 15.3347 62.3906V62.3695H16.9827C16.9879 62.4351 17.0138 62.5195 17.0605 62.6225C17.1071 62.7209 17.1848 62.8169 17.2937 62.9106C17.5994 63.187 18.0814 63.3252 18.7395 63.3252C19.2526 63.3252 19.6698 63.2222 19.9911 63.016C20.2658 62.838 20.4549 62.6061 20.5586 62.3204H17.9233V61.2101H20.5586C20.4549 60.929 20.2658 60.7065 19.9911 60.5425C19.6802 60.3598 19.2656 60.2685 18.7473 60.2685C18.0995 60.2685 17.6176 60.402 17.3014 60.669C17.1771 60.7768 17.0941 60.8798 17.0527 60.9782L16.9827 61.189H15.3347V61.175C15.3347 60.9126 15.3917 60.6596 15.5057 60.416C15.6197 60.1724 15.7985 59.9569 16.0421 59.7695C16.607 59.3292 17.4491 59.109 18.5685 59.109H18.9261C19.548 59.109 20.0792 59.1886 20.5197 59.3479C20.9654 59.5025 21.323 59.7157 21.5925 59.9874C21.8257 60.2263 21.9967 60.4957 22.1055 60.7955C22.2143 61.0906 22.2688 61.3858 22.2688 61.6809V61.8917Z" fill="#342F2C"/>
<path d="M103 23.876C103 26.284 102.552 28.7112 101.658 31.1576C100.763 33.6039 99.3574 35.8017 97.4399 37.7512C95.1817 40.0063 92.2419 41.8028 88.6208 43.1406C84.9989 44.4402 80.6321 45.0901 75.519 45.0901H72.5793C63.3341 45.0901 56.3894 43.198 51.7454 39.4139C49.7855 37.8467 48.3369 36.0693 47.3996 34.0816C46.4623 32.094 45.9937 30.0491 45.9937 27.9468V27.7748H59.5422C59.5849 28.3099 59.7979 28.9979 60.1813 29.8388C60.5648 30.6416 61.2038 31.4251 62.0986 32.1896C64.6123 34.4448 68.5746 35.5724 73.9857 35.5724C78.2035 35.5724 81.6329 34.7315 84.2747 33.0496C86.5329 31.5971 88.0883 29.7051 88.9401 27.3734H67.2751V18.3145H88.9401C88.0883 16.021 86.5329 14.2054 84.2747 12.8676C81.7185 11.3768 78.3097 10.6315 74.0492 10.6315C68.7236 10.6315 64.7614 11.7209 62.1625 13.8996C61.14 14.7787 60.4582 15.6196 60.1174 16.4224L59.5422 18.1424H45.9937V18.0278C45.9937 15.8873 46.4623 13.8231 47.3996 11.8355C48.3369 9.84788 49.8069 8.0896 51.8093 6.5607C56.4533 2.96765 63.3767 1.17114 72.5793 1.17114H75.519C80.6321 1.17114 84.9989 1.82094 88.6208 3.12055C92.2847 4.38193 95.2244 6.1211 97.4399 8.33807C99.3574 10.2875 100.763 12.4853 101.658 14.9316C102.552 17.3397 103 19.7478 103 22.1559V23.876Z" fill="#342F2C" fill-opacity="0.6"/>
<path fill-rule="evenodd" clip-rule="evenodd" d="M0 0L22.9969 20.4955H16.5189L28.827 40.991L5.83019 20.4955H12.3082L0 0Z" fill="#F5EA29"/>
<path fill-rule="evenodd" clip-rule="evenodd" d="M15.6767 13.9716L0 0L12.3082 20.4955H5.83019L15.6767 29.271V45.0901H29.0214V24.5947L52.2126 45.0901H69.6384L43.1434 21.491L68.5371 1.52258H51.5648L29.0214 19.4415V1.52258H15.6767V13.9716ZM15.6767 13.9716V29.271L28.827 40.991L16.5189 20.4955H22.9969L15.6767 13.9716Z" fill="#342F2C"/>
</g>
<defs>
<clipPath id="clip0_160_42">
<rect width="103" height="65" fill="white"/>
</clipPath>
</defs>
</svg>
