<svg width="80" height="56" viewBox="0 0 80 56" fill="none" xmlns="http://www.w3.org/2000/svg">
<g clip-path="url(#clip0_304_49)">
<path d="M66.9977 44.8767H68.8271C69.4832 44.8767 69.9622 45.0159 70.2641 45.2944C70.5257 45.5406 70.6565 45.8958 70.6565 46.3599V46.4265C70.6565 46.8907 70.5237 47.2479 70.258 47.4981C69.9521 47.7846 69.4752 47.9279 68.8271 47.9279H65.7539V43.4237H66.9977V44.8767ZM68.7305 46.9351C68.9398 46.9351 69.0968 46.8886 69.2014 46.7958C69.3101 46.703 69.3645 46.5758 69.3645 46.4144V46.372C69.3645 46.2146 69.3101 46.0915 69.2014 46.0027C69.0968 45.9139 68.9398 45.8695 68.7305 45.8695H66.9977V46.9351H68.7305ZM72.6671 43.4237V47.9279H71.4233V43.4237H72.6671Z" fill="white"/>
<path d="M61.9435 47.9279V44.4529H60.2046V43.4237H64.9201V44.4529H63.1812V47.9279H61.9435Z" fill="white"/>
<path d="M58.1298 47.9279V46.1178H55.6241V47.9279H54.3804V43.4237H55.6241V45.0946H58.1298V43.4237H59.3736V47.9279H58.1298Z" fill="white"/>
<path d="M49.2388 43.4237H53.3506V44.4045H50.4645V45.137H53.26V46.1541H50.4645V46.9351H53.3868V47.9279H49.2388V43.4237Z" fill="white"/>
<path d="M46.8857 47.9279V46.1178H44.38V47.9279H43.1362V43.4237H44.38V45.0946H46.8857V43.4237H48.1294V47.9279H46.8857Z" fill="white"/>
<path d="M39.5275 43.3511C40.0266 43.3511 40.4533 43.4177 40.8075 43.5509C41.1617 43.68 41.4475 43.8596 41.6649 44.0897C41.8581 44.2955 41.999 44.5276 42.0875 44.7859C42.1801 45.0442 42.2264 45.3065 42.2264 45.5729V45.7545C42.2264 46.0169 42.1801 46.2792 42.0875 46.5416C41.999 46.7999 41.8581 47.0319 41.6649 47.2378C41.4435 47.4759 41.1557 47.6636 40.8015 47.8008C40.4473 47.934 40.0226 48.0006 39.5275 48.0006H39.2619C38.6138 48.0006 38.0704 47.8775 37.6317 47.6313C37.2493 47.4174 36.9715 47.1288 36.7985 46.7656C36.6415 46.4548 36.563 46.1178 36.563 45.7545V45.5729C36.563 45.2097 36.6415 44.8727 36.7985 44.5619C36.9756 44.1986 37.2533 43.9141 37.6317 43.7083C38.0664 43.4701 38.6098 43.3511 39.2619 43.3511H39.5275ZM40.9343 45.6213C40.9343 45.2823 40.8357 45.0058 40.6385 44.7919C40.3849 44.5175 39.9703 44.3803 39.3947 44.3803C38.8312 44.3803 38.4186 44.5175 38.1569 44.7919C37.9557 45.0058 37.8551 45.2823 37.8551 45.6213V45.7061C37.8551 45.8554 37.8792 46.0028 37.9275 46.1481C37.9758 46.2933 38.0543 46.4225 38.163 46.5355C38.4286 46.8221 38.8392 46.9654 39.3947 46.9654C39.9663 46.9654 40.3808 46.8221 40.6385 46.5355C40.8357 46.3216 40.9343 46.0451 40.9343 45.7061V45.6213Z" fill="white"/>
<path d="M30.9956 47.9279V43.4237H35.6507V47.9279H34.4069V44.4166H32.2394V47.9279H30.9956Z" fill="white"/>
<path d="M23.7729 47.9279V43.4237H25.4273L26.8582 46.475L28.3314 43.4237H29.8831V47.9279H28.6696V44.9796L27.305 47.9279H26.3329L24.9684 44.9796V47.9279H23.7729Z" fill="white"/>
<path d="M20.1642 43.3511C20.6634 43.3511 21.09 43.4177 21.4442 43.5509C21.7985 43.68 22.0842 43.8596 22.3016 44.0897C22.4948 44.2955 22.6357 44.5276 22.7242 44.7859C22.8168 45.0442 22.8631 45.3065 22.8631 45.5729V45.7545C22.8631 46.0169 22.8168 46.2792 22.7242 46.5416C22.6357 46.7999 22.4948 47.0319 22.3016 47.2378C22.0802 47.4759 21.7924 47.6636 21.4382 47.8008C21.084 47.934 20.6593 48.0006 20.1642 48.0006H19.8986C19.2505 48.0006 18.7071 47.8775 18.2684 47.6313C17.886 47.4174 17.6083 47.1288 17.4352 46.7656C17.2782 46.4548 17.1997 46.1178 17.1997 45.7545V45.5729C17.1997 45.2097 17.2782 44.8727 17.4352 44.5619C17.6123 44.1986 17.89 43.9141 18.2684 43.7083C18.7031 43.4701 19.2465 43.3511 19.8986 43.3511H20.1642ZM21.571 45.6213C21.571 45.2823 21.4724 45.0058 21.2752 44.7919C21.0216 44.5175 20.607 44.3803 20.0314 44.3803C19.4679 44.3803 19.0553 44.5175 18.7937 44.7919C18.5924 45.0058 18.4918 45.2823 18.4918 45.6213V45.7061C18.4918 45.8554 18.5159 46.0028 18.5642 46.1481C18.6125 46.2933 18.691 46.4225 18.7997 46.5355C19.0654 46.8221 19.4759 46.9654 20.0314 46.9654C20.603 46.9654 21.0176 46.8221 21.2752 46.5355C21.4724 46.3216 21.571 46.0451 21.571 45.7061V45.6213Z" fill="white"/>
<path d="M15.5332 47.9279L13.3717 45.809V47.9279H12.1279V43.4237H13.3717V45.2762L15.4728 43.4237H17.0547L14.6879 45.4881L17.1574 47.9279H15.5332Z" fill="white"/>
<path d="M49.7716 55.4954V52.4684L47.1451 55.4954H45.9014V50.9912H47.1451V54.0182L49.7716 50.9912H51.0153V55.4954H49.7716Z" fill="white"/>
<path d="M43.545 55.4954V52.4684L40.9186 55.4954H39.6748V50.9912H40.9186V54.0182L43.545 50.9912H44.7888V55.4954H43.545Z" fill="white"/>
<path d="M35.2236 55.4954V50.9912H38.967V51.9841H36.4674V55.4954H35.2236Z" fill="white"/>
<path d="M30.6949 54.0546V55.4954H29.4512V50.9912H32.4942C33.1583 50.9912 33.6454 51.1305 33.9553 51.4089C34.221 51.6551 34.3538 52.0143 34.3538 52.4866V52.5532C34.3538 53.0213 34.219 53.3785 33.9493 53.6247C33.6393 53.9113 33.1543 54.0546 32.4942 54.0546H30.6949ZM30.6949 53.0496H32.4036C32.8424 53.0496 33.0617 52.8781 33.0617 52.535V52.5108C33.0617 52.3493 33.0074 52.2242 32.8987 52.1354C32.79 52.0426 32.625 51.9962 32.4036 51.9962H30.6949V53.0496Z" fill="white"/>
<path d="M24.3096 50.9912H28.4213V51.972H25.5352V52.7045H28.3307V53.7216H25.5352V54.5026H28.4575V55.4954H24.3096V50.9912Z" fill="white"/>
<path d="M21.9565 55.4954V53.6853H19.4508V55.4954H18.207V50.9912H19.4508V52.6621H21.9565V50.9912H23.2002V55.4954H21.9565Z" fill="white"/>
<path d="M17.2963 53.3221C17.2963 53.5763 17.254 53.8326 17.1695 54.0909C17.085 54.3492 16.9521 54.5813 16.771 54.7871C16.5577 55.0253 16.2799 55.215 15.9378 55.3562C15.5957 55.4934 15.1831 55.5621 14.7001 55.5621H14.4223C13.5489 55.5621 12.8928 55.3623 12.454 54.9627C12.2689 54.7972 12.132 54.6096 12.0435 54.3997C11.9549 54.1898 11.9106 53.9739 11.9106 53.7519V53.7337H13.1906C13.1947 53.7902 13.2148 53.8629 13.251 53.9517C13.2872 54.0364 13.3476 54.1192 13.4322 54.1999C13.6696 54.438 14.044 54.5571 14.5552 54.5571C14.9537 54.5571 15.2777 54.4683 15.5272 54.2907C15.7406 54.1373 15.8875 53.9376 15.968 53.6914H13.9212V52.7348H15.968C15.8875 52.4927 15.7406 52.3009 15.5272 52.1597C15.2857 52.0023 14.9637 51.9236 14.5612 51.9236C14.0581 51.9236 13.6837 52.0386 13.4382 52.2687C13.3416 52.3615 13.2772 52.4503 13.245 52.535L13.1906 52.7167H11.9106V52.7045C11.9106 52.4785 11.9549 52.2606 12.0435 52.0507C12.132 51.8408 12.2709 51.6552 12.4601 51.4937C12.8988 51.1143 13.5529 50.9247 14.4223 50.9247H14.7001C15.1831 50.9247 15.5957 50.9933 15.9378 51.1305C16.284 51.2637 16.5617 51.4473 16.771 51.6814C16.9521 51.8872 17.085 52.1193 17.1695 52.3776C17.254 52.6319 17.2963 52.8862 17.2963 53.1404V53.3221Z" fill="white"/>
<path d="M79.9999 20.5701C79.9999 22.6447 79.6522 24.7359 78.9574 26.8435C78.2625 28.9511 77.1707 30.8446 75.6814 32.5241C73.9274 34.467 71.6441 36.0148 68.8316 37.1674C66.0185 38.287 62.6268 38.8469 58.6555 38.8469H56.3722C49.1915 38.8469 43.7975 37.2168 40.1905 33.9566C38.6683 32.6064 37.5432 31.0751 36.8152 29.3627C36.0872 27.6503 35.7231 25.8885 35.7231 24.0772V23.9291H46.2463C46.2794 24.3901 46.4449 24.9829 46.7427 25.7073C47.0405 26.3989 47.5369 27.074 48.2318 27.7326C50.1842 29.6756 53.2618 30.647 57.4645 30.647C60.7405 30.647 63.4041 29.9225 65.456 28.4735C67.2099 27.2222 68.418 25.5921 69.0796 23.5833H52.2525V15.7786H69.0796C68.418 13.8027 67.2099 12.2385 65.456 11.0859C63.4706 9.80162 60.823 9.15948 57.5138 9.15948C53.3775 9.15948 50.3001 10.098 48.2814 11.9751C47.4873 12.7325 46.9578 13.457 46.6931 14.1485L46.2463 15.6304H35.7231V15.5316C35.7231 13.6875 36.0872 11.9092 36.8152 10.1968C37.5432 8.48435 38.6849 6.96953 40.2402 5.65232C43.8472 2.55677 49.2246 1.009 56.3722 1.009H58.6555C62.6268 1.009 66.0185 1.56883 68.8316 2.68849C71.6774 3.77522 73.9606 5.27358 75.6814 7.18359C77.1707 8.86309 78.2625 10.7566 78.9574 12.8642C79.6522 14.9389 79.9999 17.0135 79.9999 19.0882V20.5701Z" fill="white" fill-opacity="0.3"/>
<path fill-rule="evenodd" clip-rule="evenodd" d="M0 0L17.8617 17.6577H12.8302L22.39 35.3153L4.52831 17.6577H9.55976L0 0Z" fill="#F5EA29"/>
<path fill-rule="evenodd" clip-rule="evenodd" d="M12.1761 12.0371L0 0L9.55974 17.6577H4.5283L12.1761 25.2181V38.8469H22.5409V21.1892L40.5534 38.8469H54.088L33.5094 18.5154L53.2327 1.31176H40.0503L22.5409 16.7496V1.31176H12.1761V12.0371ZM12.1761 12.0371V25.2181L22.3899 35.3153L12.8302 17.6577H17.8616L12.1761 12.0371Z" fill="white"/>
</g>
<defs>
<clipPath id="clip0_304_49">
<rect width="80" height="56" fill="white"/>
</clipPath>
</defs>
</svg>
