<svg width="193" height="66" viewBox="0 0 193 66" fill="none" xmlns="http://www.w3.org/2000/svg">
<rect x="28.5151" y="9.07211" width="7.60402" height="21.9234" rx="1" fill="#1D252C"/>
<mask id="path-2-inside-1_57_195" fill="white">
<path d="M31.0957 55.3044C31.0754 55.8565 30.6109 56.2897 30.0602 56.2458C25.336 55.869 20.8231 54.0784 17.1084 51.0932C13.1327 47.8983 10.2813 43.5037 8.97374 38.5563C7.66622 33.6088 7.97165 28.3698 9.84509 23.61C11.5951 19.1638 14.6271 15.3552 18.5401 12.6675C18.9971 12.3536 19.6181 12.4995 19.9098 12.971L23.0857 18.1042C23.3751 18.572 23.2302 19.1833 22.7833 19.5041C20.3173 21.2744 18.4045 23.7271 17.284 26.5739C16.0414 29.731 15.8388 33.2061 16.706 36.4877C17.5733 39.7693 19.4647 42.6842 22.1017 44.8034C24.4778 46.7128 27.3463 47.8854 30.358 48.1908C30.9073 48.2464 31.3386 48.7069 31.3182 49.2587L31.0957 55.3044Z"/>
</mask>
<path d="M31.0957 55.3044C31.0754 55.8565 30.6109 56.2897 30.0602 56.2458C25.336 55.869 20.8231 54.0784 17.1084 51.0932C13.1327 47.8983 10.2813 43.5037 8.97374 38.5563C7.66622 33.6088 7.97165 28.3698 9.84509 23.61C11.5951 19.1638 14.6271 15.3552 18.5401 12.6675C18.9971 12.3536 19.6181 12.4995 19.9098 12.971L23.0857 18.1042C23.3751 18.572 23.2302 19.1833 22.7833 19.5041C20.3173 21.2744 18.4045 23.7271 17.284 26.5739C16.0414 29.731 15.8388 33.2061 16.706 36.4877C17.5733 39.7693 19.4647 42.6842 22.1017 44.8034C24.4778 46.7128 27.3463 47.8854 30.358 48.1908C30.9073 48.2464 31.3386 48.7069 31.3182 49.2587L31.0957 55.3044Z" fill="#1D252C" stroke="#1D252C" stroke-width="100" mask="url(#path-2-inside-1_57_195)"/>
<mask id="path-3-inside-2_57_195" fill="white">
<path d="M55.4001 31.0584C55.9513 31.0186 56.368 30.539 56.3043 29.99C56.0226 27.5614 55.3634 25.1908 54.3502 22.9632C54.1223 22.4621 53.5214 22.2654 53.0292 22.5119L48.1717 24.9452C47.6763 25.1934 47.4802 25.7961 47.6995 26.3049C48.2808 27.6535 48.6755 29.0743 48.8727 30.5283C48.9469 31.0753 49.4223 31.4897 49.9728 31.45L55.4001 31.0584Z"/>
</mask>
<path d="M55.4001 31.0584C55.9513 31.0186 56.368 30.539 56.3043 29.99C56.0226 27.5614 55.3634 25.1908 54.3502 22.9632C54.1223 22.4621 53.5214 22.2654 53.0292 22.5119L48.1717 24.9452C47.6763 25.1934 47.4802 25.7961 47.6995 26.3049C48.2808 27.6535 48.6755 29.0743 48.8727 30.5283C48.9469 31.0753 49.4223 31.4897 49.9728 31.45L55.4001 31.0584Z" fill="#F3DE09" stroke="#F3DE09" stroke-width="100" mask="url(#path-3-inside-2_57_195)"/>
<mask id="path-4-inside-3_57_195" fill="white">
<path d="M52.9372 42.6485C53.434 42.8906 54.037 42.686 54.2599 42.1809C55.248 39.942 55.8805 37.5641 56.1349 35.1323C56.1921 34.585 55.7711 34.1128 55.2196 34.079L49.7923 33.7469C49.239 33.7131 48.7653 34.1336 48.6971 34.6815C48.5157 36.139 48.1361 37.5654 47.5686 38.9214C47.3557 39.4304 47.5572 40.0266 48.0537 40.2686L52.9372 42.6485Z"/>
</mask>
<path d="M52.9372 42.6485C53.434 42.8906 54.037 42.686 54.2599 42.1809C55.248 39.942 55.8805 37.5641 56.1349 35.1323C56.1921 34.585 55.7711 34.1128 55.2196 34.079L49.7923 33.7469C49.239 33.7131 48.7653 34.1336 48.6971 34.6815C48.5157 36.139 48.1361 37.5654 47.5686 38.9214C47.3557 39.4304 47.5572 40.0266 48.0537 40.2686L52.9372 42.6485Z" fill="#F3DE09" stroke="#F3DE09" stroke-width="100" mask="url(#path-4-inside-3_57_195)"/>
<mask id="path-5-inside-4_57_195" fill="white">
<path d="M45.0671 51.4438C45.3693 51.9061 45.9913 52.0397 46.4417 51.721C48.4456 50.3033 50.216 48.5847 51.6896 46.627C52.0217 46.1858 51.902 45.5618 51.4437 45.25L46.9593 42.199C46.5026 41.8882 45.8829 42.0057 45.5436 42.439C44.6345 43.6003 43.5706 44.6333 42.3814 45.5095C41.9369 45.837 41.8039 46.4527 42.1063 46.9153L45.0671 51.4438Z"/>
</mask>
<path d="M45.0671 51.4438C45.3693 51.9061 45.9913 52.0397 46.4417 51.721C48.4456 50.3033 50.216 48.5847 51.6896 46.627C52.0217 46.1858 51.902 45.5618 51.4437 45.25L46.9593 42.199C46.5026 41.8882 45.8829 42.0057 45.5436 42.439C44.6345 43.6003 43.5706 44.6333 42.3814 45.5095C41.9369 45.837 41.8039 46.4527 42.1063 46.9153L45.0671 51.4438Z" fill="#F3DE09" stroke="#F3DE09" stroke-width="100" mask="url(#path-5-inside-4_57_195)"/>
<mask id="path-6-inside-5_57_195" fill="white">
<path d="M33.7919 55.2706C33.8192 55.8219 34.2883 56.2488 34.838 56.1988C37.2875 55.9761 39.6873 55.3766 41.9517 54.4217C42.4623 54.2064 42.6748 53.6054 42.4359 53.1055L40.1051 48.2272C39.8678 47.7305 39.2747 47.5222 38.7636 47.7266C37.3891 48.2763 35.9456 48.6373 34.4731 48.7997C33.9238 48.8603 33.4977 49.3267 33.525 49.8787L33.7919 55.2706Z"/>
</mask>
<path d="M33.7919 55.2706C33.8192 55.8219 34.2883 56.2488 34.838 56.1988C37.2875 55.9761 39.6873 55.3766 41.9517 54.4217C42.4623 54.2064 42.6748 53.6054 42.4359 53.1055L40.1051 48.2272C39.8678 47.7305 39.2747 47.5222 38.7636 47.7266C37.3891 48.2763 35.9456 48.6373 34.4731 48.7997C33.9238 48.8603 33.4977 49.3267 33.525 49.8787L33.7919 55.2706Z" fill="#F3DE09" stroke="#F3DE09" stroke-width="100" mask="url(#path-6-inside-5_57_195)"/>
<mask id="path-7-inside-6_57_195" fill="white">
<path d="M51.3514 19.7147C51.8138 19.4126 51.9433 18.7925 51.6193 18.3446C50.1832 16.3599 48.4458 14.6088 46.4694 13.154C46.0245 12.8266 45.4015 12.9467 45.0918 13.4015L42.0431 17.8779C41.7323 18.3343 41.8555 18.9538 42.2954 19.2909C43.4652 20.1877 44.5071 21.2382 45.3927 22.4136C45.7251 22.8549 46.3439 22.9858 46.806 22.684L51.3514 19.7147Z"/>
</mask>
<path d="M51.3514 19.7147C51.8138 19.4126 51.9433 18.7925 51.6193 18.3446C50.1832 16.3599 48.4458 14.6088 46.4694 13.154C46.0245 12.8266 45.4015 12.9467 45.0918 13.4015L42.0431 17.8779C41.7323 18.3343 41.8555 18.9538 42.2954 19.2909C43.4652 20.1877 44.5071 21.2382 45.3927 22.4136C45.7251 22.8549 46.3439 22.9858 46.806 22.684L51.3514 19.7147Z" fill="#F3DE09" stroke="#F3DE09" stroke-width="100" mask="url(#path-7-inside-6_57_195)"/>
<rect x="102" y="3" width="71.9477" height="24" fill="#F3DE09"/>
<path d="M66.6523 3.98438H74.3047V6.375H69.6875V12.3633H73.3086V14.7539H69.6875V21.6094H74.3047V24H66.6523V3.98438ZM75.8398 7.86328H78.1016L78.3945 9.58594V9.59766C78.8555 8.85547 79.3789 8.35156 79.9648 8.08594C80.5508 7.8125 81.1406 7.67578 81.7344 7.67578C82.6719 7.67578 83.3984 8.00781 83.9141 8.67188C84.4297 9.33594 84.6875 10.3242 84.6875 11.6367V24H81.7227V11.9883C81.7227 11.2773 81.6133 10.7852 81.3945 10.5117C81.1758 10.2305 80.8555 10.0898 80.4336 10.0898C80.1367 10.0898 79.8477 10.1875 79.5664 10.3828C79.2852 10.5781 79.0312 10.8477 78.8047 11.1914V24H75.8398V7.86328ZM87.3008 17.3906V14.3438C87.3008 13.1094 87.4062 12.0859 87.6172 11.2734C87.8281 10.4609 88.1055 9.8125 88.4492 9.32812C88.8008 8.84375 89.1836 8.48438 89.5977 8.25C90.0195 8.01562 90.4375 7.86328 90.8516 7.79297C91.2656 7.71484 91.6445 7.67578 91.9883 7.67578C92.6992 7.67578 93.3555 7.82812 93.957 8.13281C94.5586 8.42969 95.0391 8.94531 95.3984 9.67969C95.7656 10.4062 95.9492 11.418 95.9492 12.7148C95.9492 13.3633 95.9141 14.0273 95.8438 14.707C95.7734 15.3789 95.6797 15.9727 95.5625 16.4883H90.2773V18.1289C90.2773 19.5352 90.3945 20.5273 90.6289 21.1055C90.8711 21.6836 91.3281 21.9727 92 21.9727C92.3672 21.9727 92.6992 21.8164 92.9961 21.5039C93.293 21.1836 93.4414 20.5977 93.4414 19.7461V19.043H95.8789V19.7812C95.8789 21.3125 95.5117 22.4297 94.7773 23.1328C94.0508 23.8281 92.9961 24.1758 91.6133 24.1758C90.2227 24.1758 89.1562 23.6445 88.4141 22.582C87.6719 21.5195 87.3008 19.7891 87.3008 17.3906ZM93.1836 14.4961C93.1992 14.3242 93.2109 14.0664 93.2188 13.7227C93.2266 13.3711 93.2305 13.0898 93.2305 12.8789C93.2305 11.8086 93.1172 11.043 92.8906 10.582C92.6641 10.1211 92.3047 9.88672 91.8125 9.87891C91.2891 9.87891 90.9023 10.1445 90.6523 10.6758C90.4023 11.1992 90.2773 12.1562 90.2773 13.5469V14.4961H93.1836ZM98.4102 7.86328H100.578L100.836 9.50391C101.156 8.89453 101.531 8.4375 101.961 8.13281C102.391 7.82812 102.828 7.67578 103.273 7.67578C104.938 7.67578 105.77 8.72266 105.77 10.8164C105.77 11.082 105.73 11.4336 105.652 11.8711C105.574 12.3008 105.48 12.6797 105.371 13.0078H103.309V11.7539C103.309 11.1055 103.211 10.668 103.016 10.4414C102.82 10.207 102.578 10.0898 102.289 10.0898C101.922 10.0898 101.617 10.3789 101.375 10.957V24H98.4102V7.86328ZM109.824 25.1016C109.824 25.7891 109.953 26.2773 110.211 26.5664C110.477 26.8633 110.875 27.0117 111.406 27.0117C111.703 27.0117 111.977 26.9453 112.227 26.8125C112.484 26.6875 112.691 26.4531 112.848 26.1094C113.004 25.7656 113.082 25.2656 113.082 24.6094V22.0664C112.816 22.4023 112.477 22.6953 112.062 22.9453C111.648 23.1953 111.129 23.3203 110.504 23.3203C110.23 23.3203 109.898 23.2695 109.508 23.168C109.125 23.0664 108.742 22.832 108.359 22.4648C107.984 22.0898 107.668 21.5078 107.41 20.7188C107.16 19.9297 107.035 18.8516 107.035 17.4844V13.2422C107.035 11.9297 107.16 10.8984 107.41 10.1484C107.668 9.39844 107.984 8.84766 108.359 8.49609C108.742 8.14453 109.133 7.92188 109.531 7.82812C109.938 7.73438 110.285 7.6875 110.574 7.6875C111.363 7.6875 111.969 7.875 112.391 8.25C112.82 8.61719 113.145 9.01562 113.363 9.44531L113.633 7.85156H115.941V23.3438C115.941 25.1406 115.586 26.5664 114.875 27.6211C114.164 28.6836 113.02 29.2148 111.441 29.2148C110.73 29.2148 110.082 29.125 109.496 28.9453C108.91 28.7734 108.441 28.457 108.09 27.9961C107.746 27.5352 107.574 26.8828 107.574 26.0391C107.574 25.7734 107.625 25.4609 107.727 25.1016H109.824ZM111.512 20.9062C111.902 20.9062 112.215 20.7852 112.449 20.543C112.684 20.3008 112.863 20.0312 112.988 19.7344V11.2734C112.84 10.9531 112.641 10.6758 112.391 10.4414C112.148 10.207 111.852 10.0898 111.5 10.0898C111.211 10.0898 110.953 10.168 110.727 10.3242C110.508 10.4727 110.332 10.7578 110.199 11.1797C110.074 11.5938 110.012 12.2031 110.012 13.0078V17.9531C110.012 18.75 110.074 19.3633 110.199 19.793C110.332 20.2148 110.512 20.5078 110.738 20.6719C110.965 20.8281 111.223 20.9062 111.512 20.9062ZM118.332 27.1055C119.23 27.2305 119.965 27.043 120.535 26.543C121.105 26.0508 121.414 25.2344 121.461 24.0938L117.641 7.86328H120.594L122.293 16.793L122.785 19.875H122.879L123.219 16.793L124.59 7.86328H127.449L124.133 24.5977C123.828 26.1445 123.359 27.3008 122.727 28.0664C122.094 28.832 121.148 29.2148 119.891 29.2148C119.383 29.2148 118.863 29.1172 118.332 28.9219V27.1055Z" fill="#1D252C"/>
<path d="M71.2344 60.1758C70.75 60.1758 70.2188 60.1055 69.6406 59.9648C69.0703 59.8242 68.5273 59.5312 68.0117 59.0859C67.4961 58.6406 67.0742 57.9727 66.7461 57.082C66.418 56.1836 66.2539 54.9844 66.2539 53.4844V46.3945C66.2539 45.1914 66.3633 44.1914 66.582 43.3945C66.8086 42.5898 67.1016 41.9492 67.4609 41.4727C67.8281 40.9883 68.2305 40.6289 68.668 40.3945C69.1133 40.1523 69.5547 39.9961 69.9922 39.9258C70.4375 39.8477 70.8477 39.8086 71.2227 39.8086C72.2539 39.8086 73.0703 40 73.6719 40.3828C74.2734 40.7656 74.7031 41.2812 74.9609 41.9297C75.2266 42.5703 75.3594 43.2773 75.3594 44.0508C75.3594 44.4805 75.3242 44.8789 75.2539 45.2461C75.1914 45.6055 75.1172 46.0039 75.0312 46.4414H72.6875V45.4805C72.6875 43.2852 72.1719 42.1875 71.1406 42.1875C70.5859 42.1875 70.1602 42.4297 69.8633 42.9141C69.5742 43.3906 69.4297 44.2695 69.4297 45.5508V54.5742C69.4297 55.8164 69.5742 56.6641 69.8633 57.1172C70.1602 57.5703 70.6172 57.7969 71.2344 57.7969C71.6641 57.7969 72.0195 57.6172 72.3008 57.2578C72.582 56.8906 72.7227 56.3047 72.7227 55.5V53.6016H75.3828V55.4531C75.3828 57.0547 75.0273 58.2422 74.3164 59.0156C73.6055 59.7891 72.5781 60.1758 71.2344 60.1758ZM81.3594 60.1758C80.8438 60.1758 80.3242 60.1016 79.8008 59.9531C79.2773 59.7969 78.793 59.4844 78.3477 59.0156C77.9102 58.5469 77.5586 57.8398 77.293 56.8945C77.0273 55.9414 76.8945 54.668 76.8945 53.0742V50.543C76.8945 48.9727 77.0312 47.7305 77.3047 46.8164C77.5781 45.8945 77.9375 45.2109 78.3828 44.7656C78.8281 44.3125 79.3125 44.0195 79.8359 43.8867C80.3594 43.7461 80.8711 43.6758 81.3711 43.6758C81.8555 43.6758 82.3555 43.7422 82.8711 43.875C83.3867 44 83.8633 44.2852 84.3008 44.7305C84.7383 45.168 85.0938 45.8516 85.3672 46.7812C85.6406 47.7031 85.7773 48.957 85.7773 50.543V53.0742C85.7773 54.6445 85.6367 55.9023 85.3555 56.8477C85.0742 57.7852 84.7109 58.4961 84.2656 58.9805C83.8203 59.457 83.3398 59.7773 82.8242 59.9414C82.3164 60.0977 81.8281 60.1758 81.3594 60.1758ZM81.3828 57.9727C81.9141 57.9727 82.2812 57.6797 82.4844 57.0938C82.6953 56.5078 82.8008 55.4609 82.8008 53.9531V49.9336C82.8008 48.418 82.6953 47.3633 82.4844 46.7695C82.2812 46.1758 81.9141 45.8789 81.3828 45.8789C80.8281 45.8789 80.4375 46.1758 80.2109 46.7695C79.9844 47.3633 79.8711 48.418 79.8711 49.9336V53.9531C79.8711 55.4609 79.9844 56.5078 80.2109 57.0938C80.4375 57.6797 80.8281 57.9727 81.3828 57.9727ZM88.4023 43.8633H90.6758L90.957 45.5859V45.5977C91.418 44.8555 91.9414 44.3516 92.5273 44.0859C93.1211 43.8125 93.7148 43.6758 94.3086 43.6758C95.5977 43.6758 96.4648 44.2852 96.9102 45.5039C97.3711 44.8086 97.8867 44.332 98.457 44.0742C99.0352 43.8086 99.6172 43.6758 100.203 43.6758C101.133 43.6758 101.855 44.0078 102.371 44.6719C102.887 45.3359 103.145 46.3242 103.145 47.6367V60H100.18V47.9883C100.18 47.2773 100.07 46.7852 99.8516 46.5117C99.6406 46.2305 99.293 46.0898 98.8086 46.0898C98.543 46.0898 98.2695 46.1914 97.9883 46.3945C97.7148 46.5977 97.4648 46.8711 97.2383 47.2148C97.2461 47.2852 97.25 47.3555 97.25 47.4258C97.25 47.4961 97.25 47.5664 97.25 47.6367V60H94.2852V47.9883C94.2852 47.2773 94.1758 46.7852 93.957 46.5117C93.7461 46.2305 93.3984 46.0898 92.9141 46.0898C92.6484 46.0898 92.3789 46.1875 92.1055 46.3828C91.832 46.5781 91.5859 46.8477 91.3672 47.1914V60H88.4023V43.8633ZM109.121 60.9141V65.2148H106.156V43.8633H108.477L108.746 45.5625C109.02 45.1172 109.395 44.6953 109.871 44.2969C110.348 43.8906 110.969 43.6875 111.734 43.6875C111.984 43.6875 112.293 43.7383 112.66 43.8398C113.035 43.9336 113.406 44.1641 113.773 44.5312C114.148 44.8906 114.461 45.4609 114.711 46.2422C114.961 47.0234 115.086 48.1016 115.086 49.4766V54.3633C115.086 55.7305 114.957 56.8086 114.699 57.5977C114.449 58.3789 114.133 58.957 113.75 59.332C113.375 59.6992 112.992 59.9336 112.602 60.0352C112.219 60.1367 111.891 60.1875 111.617 60.1875C110.992 60.1875 110.469 60.0625 110.047 59.8125C109.633 59.5625 109.293 59.2695 109.027 58.9336L109.121 60.9141ZM109.121 56.4961C109.254 56.8008 109.434 57.0742 109.66 57.3164C109.895 57.5586 110.211 57.6797 110.609 57.6797C110.898 57.6797 111.152 57.6016 111.371 57.4453C111.598 57.2891 111.773 57 111.898 56.5781C112.031 56.1484 112.098 55.5352 112.098 54.7383V49.0195C112.098 48.2148 112.035 47.6055 111.91 47.1914C111.785 46.7695 111.609 46.4805 111.383 46.3242C111.164 46.168 110.91 46.0898 110.621 46.0898C110.254 46.0898 109.949 46.2031 109.707 46.4297C109.465 46.6484 109.27 46.9062 109.121 47.2031V56.4961ZM121.836 60.1758C121.32 60.1758 120.801 60.1016 120.277 59.9531C119.754 59.7969 119.27 59.4844 118.824 59.0156C118.387 58.5469 118.035 57.8398 117.77 56.8945C117.504 55.9414 117.371 54.668 117.371 53.0742V50.543C117.371 48.9727 117.508 47.7305 117.781 46.8164C118.055 45.8945 118.414 45.2109 118.859 44.7656C119.305 44.3125 119.789 44.0195 120.312 43.8867C120.836 43.7461 121.348 43.6758 121.848 43.6758C122.332 43.6758 122.832 43.7422 123.348 43.875C123.863 44 124.34 44.2852 124.777 44.7305C125.215 45.168 125.57 45.8516 125.844 46.7812C126.117 47.7031 126.254 48.957 126.254 50.543V53.0742C126.254 54.6445 126.113 55.9023 125.832 56.8477C125.551 57.7852 125.188 58.4961 124.742 58.9805C124.297 59.457 123.816 59.7773 123.301 59.9414C122.793 60.0977 122.305 60.1758 121.836 60.1758ZM121.859 57.9727C122.391 57.9727 122.758 57.6797 122.961 57.0938C123.172 56.5078 123.277 55.4609 123.277 53.9531V49.9336C123.277 48.418 123.172 47.3633 122.961 46.7695C122.758 46.1758 122.391 45.8789 121.859 45.8789C121.305 45.8789 120.914 46.1758 120.688 46.7695C120.461 47.3633 120.348 48.418 120.348 49.9336V53.9531C120.348 55.4609 120.461 56.5078 120.688 57.0938C120.914 57.6797 121.305 57.9727 121.859 57.9727ZM128.879 43.8633H131.141L131.434 45.5859V45.5977C131.895 44.8555 132.418 44.3516 133.004 44.0859C133.59 43.8125 134.18 43.6758 134.773 43.6758C135.711 43.6758 136.438 44.0078 136.953 44.6719C137.469 45.3359 137.727 46.3242 137.727 47.6367V60H134.762V47.9883C134.762 47.2773 134.652 46.7852 134.434 46.5117C134.215 46.2305 133.895 46.0898 133.473 46.0898C133.176 46.0898 132.887 46.1875 132.605 46.3828C132.324 46.5781 132.07 46.8477 131.844 47.1914V60H128.879V43.8633ZM140.34 53.3906V50.3438C140.34 49.1094 140.445 48.0859 140.656 47.2734C140.867 46.4609 141.145 45.8125 141.488 45.3281C141.84 44.8438 142.223 44.4844 142.637 44.25C143.059 44.0156 143.477 43.8633 143.891 43.793C144.305 43.7148 144.684 43.6758 145.027 43.6758C145.738 43.6758 146.395 43.8281 146.996 44.1328C147.598 44.4297 148.078 44.9453 148.438 45.6797C148.805 46.4062 148.988 47.418 148.988 48.7148C148.988 49.3633 148.953 50.0273 148.883 50.707C148.812 51.3789 148.719 51.9727 148.602 52.4883H143.316V54.1289C143.316 55.5352 143.434 56.5273 143.668 57.1055C143.91 57.6836 144.367 57.9727 145.039 57.9727C145.406 57.9727 145.738 57.8164 146.035 57.5039C146.332 57.1836 146.48 56.5977 146.48 55.7461V55.043H148.918V55.7812C148.918 57.3125 148.551 58.4297 147.816 59.1328C147.09 59.8281 146.035 60.1758 144.652 60.1758C143.262 60.1758 142.195 59.6445 141.453 58.582C140.711 57.5195 140.34 55.7891 140.34 53.3906ZM146.223 50.4961C146.238 50.3242 146.25 50.0664 146.258 49.7227C146.266 49.3711 146.27 49.0898 146.27 48.8789C146.27 47.8086 146.156 47.043 145.93 46.582C145.703 46.1211 145.344 45.8867 144.852 45.8789C144.328 45.8789 143.941 46.1445 143.691 46.6758C143.441 47.1992 143.316 48.1562 143.316 49.5469V50.4961H146.223ZM151.449 43.8633H153.711L154.004 45.5859V45.5977C154.465 44.8555 154.988 44.3516 155.574 44.0859C156.16 43.8125 156.75 43.6758 157.344 43.6758C158.281 43.6758 159.008 44.0078 159.523 44.6719C160.039 45.3359 160.297 46.3242 160.297 47.6367V60H157.332V47.9883C157.332 47.2773 157.223 46.7852 157.004 46.5117C156.785 46.2305 156.465 46.0898 156.043 46.0898C155.746 46.0898 155.457 46.1875 155.176 46.3828C154.895 46.5781 154.641 46.8477 154.414 47.1914V60H151.449V43.8633ZM163.52 46.1133H162.148V43.8633H163.777L164.375 39.6797H166.484V43.8633H169.18V46.1133H166.484V56.0039C166.484 56.707 166.609 57.1523 166.859 57.3398C167.117 57.5273 167.418 57.6211 167.762 57.6211C168.309 57.6211 168.777 57.5 169.168 57.2578V59.1328C168.832 59.5469 168.441 59.8281 167.996 59.9766C167.551 60.1172 167.121 60.1875 166.707 60.1875C166.16 60.1875 165.641 60.082 165.148 59.8711C164.664 59.6523 164.27 59.2422 163.965 58.6406C163.668 58.0312 163.52 57.1445 163.52 55.9805V46.1133ZM170.293 56.625C170.293 56.2734 170.324 55.9336 170.387 55.6055C170.457 55.2773 170.523 55.0156 170.586 54.8203H172.672C172.672 55.9922 172.816 56.8125 173.105 57.2812C173.402 57.7422 173.824 57.9727 174.371 57.9727C174.762 57.9727 175.066 57.8555 175.285 57.6211C175.504 57.3789 175.613 57.0938 175.613 56.7656C175.613 56.4219 175.52 56.0898 175.332 55.7695C175.152 55.4492 174.902 55.0977 174.582 54.7148L172.508 52.1602C171.945 51.4492 171.441 50.707 170.996 49.9336C170.559 49.1523 170.34 48.293 170.34 47.3555C170.34 46.5195 170.523 45.832 170.891 45.293C171.258 44.7461 171.742 44.3398 172.344 44.0742C172.945 43.8086 173.598 43.6758 174.301 43.6758C175.465 43.6758 176.395 43.957 177.09 44.5195C177.785 45.0742 178.133 45.9102 178.133 47.0273C178.133 47.3945 178.098 47.7578 178.027 48.1172C177.965 48.4688 177.902 48.7695 177.84 49.0195H175.789C175.773 47.957 175.648 47.168 175.414 46.6523C175.18 46.1367 174.793 45.8789 174.254 45.8789C173.801 45.8789 173.488 46.0195 173.316 46.3008C173.145 46.582 173.059 46.8945 173.059 47.2383C173.059 47.6133 173.152 47.9531 173.34 48.2578C173.527 48.5547 173.77 48.8906 174.066 49.2656L176.41 52.1016C176.637 52.3828 176.898 52.7422 177.195 53.1797C177.492 53.6094 177.75 54.0977 177.969 54.6445C178.195 55.1836 178.309 55.7695 178.309 56.4023C178.309 57.5352 177.953 58.4492 177.242 59.1445C176.531 59.832 175.516 60.1758 174.195 60.1758C173.477 60.1758 172.82 60.0664 172.227 59.8477C171.633 59.6211 171.16 59.25 170.809 58.7344C170.465 58.2109 170.293 57.5078 170.293 56.625Z" fill="#1D252C"/>
</svg>
