<svg width="10" height="14" viewBox="0 0 16 23" fill="none" xmlns="http://www.w3.org/2000/svg">
    <path d="M15.5 19C15.5 19.8132 14.8278 20.6839 13.4332 21.3812C12.0686 22.0635 10.1483 22.5 8 22.5C5.85165 22.5 3.93141 22.0635 2.56675 21.3812C1.17219 20.6839 0.5 19.8132 0.5 19C0.5 18.1868 1.17219 17.3161 2.56675 16.6188C3.93141 15.9365 5.85165 15.5 8 15.5C10.1483 15.5 12.0686 15.9365 13.4332 16.6188C14.8278 17.3161 15.5 18.1868 15.5 19Z" fill="white" stroke="white" />
    <path d="M15 8C15 9.91318 14.2524 11.5757 12.9023 13.2876C11.6746 14.8443 10.0035 16.3761 8.03632 18.1293C7.63593 17.7369 7.24276 17.3573 6.85911 16.9869C5.51287 15.6873 4.28397 14.5009 3.27215 13.2714C1.84129 11.5327 1 9.87855 1 8C1 4.13401 4.13401 1 8 1C11.866 1 15 4.13401 15 8Z" fill="white" stroke="#6F7172" stroke-width="1" />
    <circle cx="8" cy="8" r="2.5" fill="#6F7172" stroke="#6F7172" />
</svg>