<svg width="14" height="14" viewBox="0 0 25 25" fill="none" xmlns="http://www.w3.org/2000/svg">
    <g clip-path="url(#clip0_55_46)">
        <path d="M22.6612 18.0873C21.9165 17.449 21.0661 16.9174 20.3214 16.3854C18.7258 15.2155 17.237 15.2155 16.0671 17.0237C15.4287 18.0873 14.4714 18.0873 13.5147 17.6621C10.8554 16.3859 8.72826 14.5776 7.45206 11.8121C6.92002 10.6422 6.92002 9.47231 8.19672 8.62134C8.83507 8.1961 9.57923 7.66406 9.47292 6.60047C9.36662 5.32427 6.28216 0.963614 5.00596 0.537881C4.47392 0.325263 3.94237 0.325263 3.41033 0.537881C0.538498 1.49516 -0.737707 3.94126 0.432189 6.70678C3.83557 15.2155 10.0045 21.0655 18.3005 24.6814C18.8321 24.8941 19.3641 24.8941 19.5767 25.0004C21.4913 25.0004 23.7248 23.1921 24.3631 21.3844C25.0015 19.6824 23.7248 18.9383 22.6612 18.0873Z" fill="white" />
        <path d="M13.3011 1.28238C14.2732 1.43589 15.1545 1.64453 15.9672 1.90235C16.1048 1.94607 16.2489 1.98532 16.382 2.03201C16.4297 2.0489 16.4729 2.06927 16.5201 2.08666C17.381 2.40062 18.1525 2.78015 18.8311 3.24016C21.2176 4.85715 22.5137 7.42496 22.9791 11.2804C22.9791 11.9183 22.7665 12.7692 23.6175 12.7692C24.4685 12.7692 24.2563 11.9183 24.2563 11.3867C24.316 8.0961 22.7268 4.97389 20.2837 2.8338C18.8212 1.55312 17.0527 0.62615 15.149 0.223766C14.9325 0.178063 14.7144 0.136831 14.4948 0.104541C14.1361 0.0523798 13.7735 0.0190961 13.4079 0.0061801C13.3552 0.0195929 13.2941 0.0245606 13.2275 0.0245606C13.0656 0.0250574 12.8763 -0.00226501 12.696 0.000715618C12.3458 0.000218847 12.0273 0.0916246 12.0253 0.639563C12.0253 0.641053 12.0248 0.642544 12.0244 0.644531C12.0248 1.28238 12.7695 1.17608 13.3011 1.28238Z" fill="white" />
        <path d="M14.3656 3.09036C13.8341 2.98405 12.9831 2.66463 12.8768 3.5156C12.7705 4.36656 13.621 4.26026 14.153 4.36656C17.9816 5.21753 19.2578 6.60005 19.8962 10.3228C20.0025 10.8544 19.7899 11.7054 20.7471 11.5991C21.4913 11.4927 21.1724 10.7481 21.2787 10.3228C21.2787 6.70685 18.1942 3.51609 14.3656 3.09036Z" fill="white" />
        <path d="M14.6841 6.06767C14.2583 6.06767 13.8331 6.06767 13.7268 6.49291C13.5142 7.13126 14.0462 7.23757 14.4714 7.34388C16.0666 7.55699 16.9175 8.40746 17.0238 10.0031C17.1302 10.4288 17.3433 10.7478 17.7685 10.7478C18.4069 10.6414 18.4069 10.1094 18.4069 9.68416C18.4069 7.87641 16.4923 5.96186 14.6841 6.06767Z" fill="white" />
    </g>
    <defs>
        <clipPath id="clip0_55_46">
            <rect width="24.534" height="25" fill="white" />
        </clipPath>
    </defs>
</svg>