<svg width="16" height="16" viewBox="0 0 16 16" fill="none" xmlns="http://www.w3.org/2000/svg">
<path d="M6.30001 13.6539C6.93377 14.0088 7.55797 14.187 8.13943 14.187C8.62619 14.1869 9.08298 14.0619 9.48955 13.8109L10.9881 12.8865C11.0421 12.8532 11.0807 12.7999 11.0954 12.7381C11.1101 12.6763 11.0994 12.6113 11.0661 12.5572L9.76713 10.452C9.73381 10.3981 9.68039 10.3595 9.61869 10.3449C9.55651 10.3304 9.49178 10.3409 9.43789 10.3742L7.92802 11.3061C7.69588 11.4493 7.39805 11.4951 7.11154 11.4321C6.82503 11.369 6.58046 11.2028 6.44047 10.9758L4.38835 7.65004C4.09164 7.16917 4.24119 6.53652 4.72174 6.23981L4.7219 6.23965L6.289 5.27217C6.40141 5.20282 6.43617 5.05549 6.36681 4.94309L5.06772 2.83834C4.99836 2.72593 4.85088 2.6907 4.73864 2.76037L3.1728 3.72689C1.42761 4.80406 1.48883 7.63171 3.32204 10.6033C4.16243 11.9659 5.22014 13.0493 6.30001 13.6539ZM3.42424 4.13378L4.78647 3.29306L5.83445 4.99076L4.47078 5.8326C4.47046 5.83276 4.47015 5.83308 4.47015 5.83308C3.76575 6.2685 3.54637 7.19596 3.98147 7.901L6.03359 11.2266C6.24101 11.5631 6.59656 11.8082 7.00886 11.8991C7.41559 11.9882 7.8424 11.9208 8.17929 11.7129L9.48556 10.9066L10.5334 12.6046L9.23828 13.4035C8.29249 13.9871 7.24547 13.6347 6.53374 13.2363C5.52371 12.6706 4.52754 11.6464 3.72908 10.3521C2.04383 7.62023 1.91851 5.06315 3.42424 4.13378Z" fill="#1D252C"/>
<path d="M7.90488 5.34949C8.67879 5.39525 9.36373 5.79289 9.78433 6.44069C10.1864 7.05803 10.2832 7.81457 10.0496 8.51642C10.0079 8.64174 10.0756 8.77726 10.2009 8.81872C10.226 8.82717 10.2513 8.83099 10.2765 8.83099C10.3768 8.83099 10.4701 8.76769 10.5034 8.66741C10.7834 7.82653 10.6673 6.91964 10.1853 6.17984C9.68882 5.41486 8.84668 4.92586 7.9331 4.87181C7.79997 4.86623 7.68805 4.9646 7.68024 5.09646C7.67242 5.22847 7.77303 5.34167 7.90488 5.34949Z" fill="#1D252C"/>
<path d="M8.2397 3.57429C9.49288 3.71826 10.6053 4.40592 11.2916 5.46061C11.9567 6.48309 12.1451 7.74202 11.8085 8.91469C11.772 9.04176 11.8454 9.1741 11.9723 9.21045C11.9944 9.21683 12.0164 9.21986 12.0384 9.21986C12.1422 9.21986 12.2381 9.15146 12.268 9.04671C12.6429 7.74075 12.4331 6.33848 11.6925 5.19977C10.9281 4.02518 9.68962 3.25956 8.29423 3.09916C8.16556 3.08402 8.04455 3.17824 8.0294 3.30946C8.01426 3.44068 8.10832 3.55914 8.2397 3.57429Z" fill="#1D252C"/>
<path d="M8.56672 2.01083C10.2311 2.24218 11.711 3.18287 12.6271 4.59183C13.5246 5.9705 13.7937 7.6733 13.3658 9.26355C13.3313 9.3911 13.4071 9.52231 13.5346 9.55659C13.5554 9.56217 13.5764 9.56489 13.597 9.56489C13.7024 9.56489 13.7991 9.49473 13.8277 9.38791C14.291 7.66661 13.9995 5.82333 13.0281 4.33099C12.0364 2.80596 10.4344 1.78762 8.63289 1.53714C8.50263 1.51976 8.38114 1.61016 8.36312 1.74106C8.34479 1.8718 8.43599 1.99266 8.56672 2.01083Z" fill="#1D252C"/>
</svg>
