<svg width="25" height="17" viewBox="0 0 25 17" fill="none" xmlns="http://www.w3.org/2000/svg">
    <g clip-path="url(#clip0_55_58)">
        <path d="M17.4486 8.33278L25 15.8842V0.781738L17.4486 8.33278Z" fill="white" />
        <path d="M13.2255 11.0651L24.2854 0.00522508C24.2765 0.00482315 24.2689 0 24.2601 0H0.771706L11.836 11.0643C12.2046 11.4341 12.8569 11.4337 13.2255 11.0651Z" fill="white" />
        <path d="M13.9715 11.8101C13.5876 12.1931 13.0768 12.4049 12.5313 12.4049C11.9855 12.4049 11.4739 12.1939 11.0904 11.8101L8.26768 8.9873L0.644291 16.6107C0.677249 16.6151 0.70659 16.63 0.740754 16.63H24.2552L16.7038 9.07854L13.9715 11.8101Z" fill="white" />
        <path d="M0.00321543 0.723633C0.00321543 0.729662 0 0.734485 0 0.740112V15.763L7.5213 8.24172L0.00321543 0.723633Z" fill="white" />
    </g>
    <defs>
        <clipPath id="clip0_55_58">
            <rect width="25" height="16.6302" fill="white" />
        </clipPath>
    </defs>
</svg>