<svg width="20" height="16" viewBox="0 0 20 16" fill="none" xmlns="http://www.w3.org/2000/svg">
<path d="M7.96129 14.9805C8.17577 14.9805 8.34964 14.7872 8.34964 14.5488C8.34964 14.3104 8.17577 14.1172 7.96129 14.1172C7.74681 14.1172 7.57294 14.3104 7.57294 14.5488C7.57294 14.7872 7.74681 14.9805 7.96129 14.9805Z" fill="black"/>
<path d="M12.0875 1.16849C12.3288 1.16849 12.5244 0.951073 12.5244 0.682877C12.5244 0.414681 12.3288 0.197266 12.0875 0.197266C11.8462 0.197266 11.6506 0.414681 11.6506 0.682877C11.6506 0.951073 11.8462 1.16849 12.0875 1.16849Z" fill="black"/>
<path d="M13.1554 3.32669C13.3967 3.32669 13.5923 3.10928 13.5923 2.84108C13.5923 2.57288 13.3967 2.35547 13.1554 2.35547C12.9141 2.35547 12.7185 2.57288 12.7185 2.84108C12.7185 3.10928 12.9141 3.32669 13.1554 3.32669Z" fill="black"/>
<path d="M14.2232 5.91654C14.4645 5.91654 14.6601 5.69912 14.6601 5.43092C14.6601 5.16273 14.4645 4.94531 14.2232 4.94531C13.9819 4.94531 13.7863 5.16273 13.7863 5.43092C13.7863 5.69912 13.9819 5.91654 14.2232 5.91654Z" fill="black"/>
<path d="M15.2429 7.85843C15.511 7.85843 15.7283 7.61686 15.7283 7.31886C15.7283 7.02087 15.511 6.7793 15.2429 6.7793C14.9748 6.7793 14.7574 7.02087 14.7574 7.31886C14.7574 7.61686 14.9748 7.85843 15.2429 7.85843Z" fill="black"/>
<path d="M14.2718 9.90921C14.5399 9.90921 14.7572 9.66764 14.7572 9.36965C14.7572 9.07165 14.5399 8.83008 14.2718 8.83008C14.0037 8.83008 13.7863 9.07165 13.7863 9.36965C13.7863 9.66764 14.0037 9.90921 14.2718 9.90921Z" fill="black"/>
<path d="M12.136 9.90921C12.4041 9.90921 12.6214 9.66764 12.6214 9.36965C12.6214 9.07165 12.4041 8.83008 12.136 8.83008C11.8679 8.83008 11.6506 9.07165 11.6506 9.36965C11.6506 9.66764 11.8679 9.90921 12.136 9.90921Z" fill="black"/>
<path d="M15.2429 3.97367C15.511 3.97367 15.7283 3.73209 15.7283 3.4341C15.7283 3.1361 15.511 2.89453 15.2429 2.89453C14.9748 2.89453 14.7574 3.1361 14.7574 3.4341C14.7574 3.73209 14.9748 3.97367 15.2429 3.97367Z" fill="black"/>
<path d="M16.7477 5.70072C17.0426 5.70072 17.2817 5.43499 17.2817 5.1072C17.2817 4.7794 17.0426 4.51367 16.7477 4.51367C16.4528 4.51367 16.2137 4.7794 16.2137 5.1072C16.2137 5.43499 16.4528 5.70072 16.7477 5.70072Z" fill="black"/>
<path d="M17.3301 7.96635C17.625 7.96635 17.864 7.70062 17.864 7.37282C17.864 7.04503 17.625 6.7793 17.3301 6.7793C17.0352 6.7793 16.7961 7.04503 16.7961 7.37282C16.7961 7.70062 17.0352 7.96635 17.3301 7.96635Z" fill="black"/>
<path d="M16.7477 10.3413C17.0426 10.3413 17.2817 10.0756 17.2817 9.74782C17.2817 9.42003 17.0426 9.1543 16.7477 9.1543C16.4528 9.1543 16.2137 9.42003 16.2137 9.74782C16.2137 10.0756 16.4528 10.3413 16.7477 10.3413Z" fill="black"/>
<path d="M15.2914 12.0669C15.6399 12.0669 15.9224 11.7529 15.9224 11.3655C15.9224 10.9781 15.6399 10.6641 15.2914 10.6641C14.9428 10.6641 14.6603 10.9781 14.6603 11.3655C14.6603 11.7529 14.9428 12.0669 15.2914 12.0669Z" fill="black"/>
<path d="M13.1553 12.7154C13.5038 12.7154 13.7864 12.4013 13.7864 12.0139C13.7864 11.6265 13.5038 11.3125 13.1553 11.3125C12.8068 11.3125 12.5242 11.6265 12.5242 12.0139C12.5242 12.4013 12.8068 12.7154 13.1553 12.7154Z" fill="black"/>
<path d="M11.0681 12.1749C11.4434 12.1749 11.7477 11.8367 11.7477 11.4195C11.7477 11.0023 11.4434 10.6641 11.0681 10.6641C10.6927 10.6641 10.3885 11.0023 10.3885 11.4195C10.3885 11.8367 10.6927 12.1749 11.0681 12.1749Z" fill="black"/>
<path d="M9.56324 10.5562C9.96539 10.5562 10.2914 10.1938 10.2914 9.74685C10.2914 9.29986 9.96539 8.9375 9.56324 8.9375C9.16109 8.9375 8.83508 9.29986 8.83508 9.74685C8.83508 10.1938 9.16109 10.5562 9.56324 10.5562Z" fill="black"/>
<path d="M14.2718 1.168C14.5399 1.168 14.7572 0.92643 14.7572 0.628435C14.7572 0.33044 14.5399 0.0888672 14.2718 0.0888672C14.0037 0.0888672 13.7863 0.33044 13.7863 0.628435C13.7863 0.92643 14.0037 1.168 14.2718 1.168Z" fill="black"/>
<path d="M16.2622 2.0308C16.5571 2.0308 16.7961 1.76507 16.7961 1.43728C16.7961 1.10948 16.5571 0.84375 16.2622 0.84375C15.9673 0.84375 15.7282 1.10948 15.7282 1.43728C15.7282 1.76507 15.9673 2.0308 16.2622 2.0308Z" fill="black"/>
<path d="M17.9611 3.54203C18.2828 3.54203 18.5437 3.25215 18.5437 2.89455C18.5437 2.53696 18.2828 2.24707 17.9611 2.24707C17.6394 2.24707 17.3786 2.53696 17.3786 2.89455C17.3786 3.25215 17.6394 3.54203 17.9611 3.54203Z" fill="black"/>
<path d="M19.0291 5.70024C19.3508 5.70024 19.6116 5.41035 19.6116 5.05275C19.6116 4.69516 19.3508 4.40527 19.0291 4.40527C18.7073 4.40527 18.4465 4.69516 18.4465 5.05275C18.4465 5.41035 18.7073 5.70024 19.0291 5.70024Z" fill="black"/>
<path d="M19.369 8.18217C19.7175 8.18217 20.0001 7.86813 20.0001 7.48074C20.0001 7.09334 19.7175 6.7793 19.369 6.7793C19.0205 6.7793 18.7379 7.09334 18.7379 7.48074C18.7379 7.86813 19.0205 8.18217 19.369 8.18217Z" fill="black"/>
<path d="M18.9805 10.5572C19.329 10.5572 19.6116 10.2431 19.6116 9.85574C19.6116 9.46834 19.329 9.1543 18.9805 9.1543C18.632 9.1543 18.3494 9.46834 18.3494 9.85574C18.3494 10.2431 18.632 10.5572 18.9805 10.5572Z" fill="black"/>
<path d="M17.9611 12.6065C18.3364 12.6065 18.6407 12.2683 18.6407 11.8511C18.6407 11.4339 18.3364 11.0957 17.9611 11.0957C17.5858 11.0957 17.2815 11.4339 17.2815 11.8511C17.2815 12.2683 17.5858 12.6065 17.9611 12.6065Z" fill="black"/>
<path d="M16.3107 14.1182C16.686 14.1182 16.9903 13.78 16.9903 13.3628C16.9903 12.9456 16.686 12.6074 16.3107 12.6074C15.9353 12.6074 15.631 12.9456 15.631 13.3628C15.631 13.78 15.9353 14.1182 16.3107 14.1182Z" fill="black"/>
<path d="M14.3203 14.981C14.7225 14.981 15.0485 14.6186 15.0485 14.1717C15.0485 13.7247 14.7225 13.3623 14.3203 13.3623C13.9182 13.3623 13.5922 13.7247 13.5922 14.1717C13.5922 14.6186 13.9182 14.981 14.3203 14.981Z" fill="black"/>
<path d="M12.0388 15.0889C12.4678 15.0889 12.8155 14.7024 12.8155 14.2256C12.8155 13.7488 12.4678 13.3623 12.0388 13.3623C11.6099 13.3623 11.2621 13.7488 11.2621 14.2256C11.2621 14.7024 11.6099 15.0889 12.0388 15.0889Z" fill="black"/>
<path d="M10 14.2256C10.429 14.2256 10.7767 13.8391 10.7767 13.3623C10.7767 12.8855 10.429 12.499 10 12.499C9.57104 12.499 9.2233 12.8855 9.2233 13.3623C9.2233 13.8391 9.57104 14.2256 10 14.2256Z" fill="black"/>
<path d="M8.49523 12.8228C8.951 12.8228 9.32047 12.4121 9.32047 11.9055C9.32047 11.399 8.951 10.9883 8.49523 10.9883C8.03946 10.9883 7.66998 11.399 7.66998 11.9055C7.66998 12.4121 8.03946 12.8228 8.49523 12.8228Z" fill="black"/>
<path d="M7.47566 10.7725C7.95824 10.7725 8.34945 10.3377 8.34945 9.8013C8.34945 9.26491 7.95824 8.83008 7.47566 8.83008C6.99308 8.83008 6.60187 9.26491 6.60187 9.8013C6.60187 10.3377 6.99308 10.7725 7.47566 10.7725Z" fill="black"/>
<path d="M5.67951 14.981C5.9208 14.981 6.1164 14.7636 6.1164 14.4954C6.1164 14.2272 5.9208 14.0098 5.67951 14.0098C5.43822 14.0098 5.24261 14.2272 5.24261 14.4954C5.24261 14.7636 5.43822 14.981 5.67951 14.981Z" fill="black"/>
<path d="M3.68942 14.2256C3.95752 14.2256 4.17485 13.984 4.17485 13.6861C4.17485 13.3881 3.95752 13.1465 3.68942 13.1465C3.42132 13.1465 3.20398 13.3881 3.20398 13.6861C3.20398 13.984 3.42132 14.2256 3.68942 14.2256Z" fill="black"/>
<path d="M2.08739 12.8228C2.3823 12.8228 2.62137 12.5571 2.62137 12.2293C2.62137 11.9015 2.3823 11.6357 2.08739 11.6357C1.79248 11.6357 1.55341 11.9015 1.55341 12.2293C1.55341 12.5571 1.79248 12.8228 2.08739 12.8228Z" fill="black"/>
<path d="M1.06806 10.7725C1.38978 10.7725 1.65058 10.4826 1.65058 10.125C1.65058 9.76743 1.38978 9.47754 1.06806 9.47754C0.74634 9.47754 0.485535 9.76743 0.485535 10.125C0.485535 10.4826 0.74634 10.7725 1.06806 10.7725Z" fill="black"/>
<path d="M0.582525 8.39848C0.904244 8.39848 1.16505 8.10859 1.16505 7.751C1.16505 7.3934 0.904244 7.10352 0.582525 7.10352C0.260805 7.10352 0 7.3934 0 7.751C0 8.10859 0.260805 8.39848 0.582525 8.39848Z" fill="black"/>
<path d="M0.970983 5.91606C1.2927 5.91606 1.55351 5.62617 1.55351 5.26858C1.55351 4.91098 1.2927 4.62109 0.970983 4.62109C0.649264 4.62109 0.388458 4.91098 0.388458 5.26858C0.388458 5.62617 0.649264 5.91606 0.970983 5.91606Z" fill="black"/>
<path d="M2.0874 3.97319C2.43593 3.97319 2.71846 3.65914 2.71846 3.27175C2.71846 2.88436 2.43593 2.57031 2.0874 2.57031C1.73887 2.57031 1.45633 2.88436 1.45633 3.27175C1.45633 3.65914 1.73887 3.97319 2.0874 3.97319Z" fill="black"/>
<path d="M3.68938 2.57134C4.06472 2.57134 4.36899 2.23314 4.36899 1.81594C4.36899 1.39875 4.06472 1.06055 3.68938 1.06055C3.31404 1.06055 3.00977 1.39875 3.00977 1.81594C3.00977 2.23314 3.31404 2.57134 3.68938 2.57134Z" fill="black"/>
<path d="M5.77668 1.70757C6.17883 1.70757 6.50483 1.34521 6.50483 0.898219C6.50483 0.451226 6.17883 0.0888672 5.77668 0.0888672C5.37453 0.0888672 5.04852 0.451226 5.04852 0.898219C5.04852 1.34521 5.37453 1.70757 5.77668 1.70757Z" fill="black"/>
<path d="M7.91264 1.70757C8.31478 1.70757 8.64079 1.34521 8.64079 0.898219C8.64079 0.451226 8.31478 0.0888672 7.91264 0.0888672C7.51049 0.0888672 7.18448 0.451226 7.18448 0.898219C7.18448 1.34521 7.51049 1.70757 7.91264 1.70757Z" fill="black"/>
<path d="M9.95145 2.57085C10.3536 2.57085 10.6796 2.20849 10.6796 1.7615C10.6796 1.31451 10.3536 0.952148 9.95145 0.952148C9.5493 0.952148 9.2233 1.31451 9.2233 1.7615C9.2233 2.20849 9.5493 2.57085 9.95145 2.57085Z" fill="black"/>
<path d="M11.6019 4.19C12.0577 4.19 12.4272 3.77933 12.4272 3.27273C12.4272 2.76614 12.0577 2.35547 11.6019 2.35547C11.1462 2.35547 10.7767 2.76614 10.7767 3.27273C10.7767 3.77933 11.1462 4.19 11.6019 4.19Z" fill="black"/>
<path d="M12.67 6.2398C13.1258 6.2398 13.4953 5.82913 13.4953 5.32254C13.4953 4.81595 13.1258 4.40527 12.67 4.40527C12.2143 4.40527 11.8448 4.81595 11.8448 5.32254C11.8448 5.82913 12.2143 6.2398 12.67 6.2398Z" fill="black"/>
<path d="M13.0097 8.72174C13.4923 8.72174 13.8835 8.28691 13.8835 7.75052C13.8835 7.21413 13.4923 6.7793 13.0097 6.7793C12.5271 6.7793 12.1359 7.21413 12.1359 7.75052C12.1359 8.28691 12.5271 8.72174 13.0097 8.72174Z" fill="black"/>
<path d="M6.79613 12.7149C7.0106 12.7149 7.18447 12.5216 7.18447 12.2832C7.18447 12.0448 7.0106 11.8516 6.79613 11.8516C6.58165 11.8516 6.40778 12.0448 6.40778 12.2832C6.40778 12.5216 6.58165 12.7149 6.79613 12.7149Z" fill="black"/>
<path d="M5.72807 10.125C5.94255 10.125 6.11642 9.93177 6.11642 9.69337C6.11642 9.45498 5.94255 9.26172 5.72807 9.26172C5.51359 9.26172 5.33972 9.45498 5.33972 9.69337C5.33972 9.93177 5.51359 10.125 5.72807 10.125Z" fill="black"/>
<path d="M5.72807 10.125C5.94255 10.125 6.11642 9.93177 6.11642 9.69337C6.11642 9.45498 5.94255 9.26172 5.72807 9.26172C5.51359 9.26172 5.33972 9.45498 5.33972 9.69337C5.33972 9.93177 5.51359 10.125 5.72807 10.125Z" fill="black"/>
<path d="M6.84467 8.18216C7.08596 8.18216 7.28156 7.96474 7.28156 7.69655C7.28156 7.42835 7.08596 7.21094 6.84467 7.21094C6.60338 7.21094 6.40778 7.42835 6.40778 7.69655C6.40778 7.96474 6.60338 8.18216 6.84467 8.18216Z" fill="black"/>
<path d="M4.70874 8.18216C4.95003 8.18216 5.14564 7.96474 5.14564 7.69655C5.14564 7.42835 4.95003 7.21094 4.70874 7.21094C4.46745 7.21094 4.27185 7.42835 4.27185 7.69655C4.27185 7.96474 4.46745 8.18216 4.70874 8.18216Z" fill="black"/>
<path d="M4.75729 12.2832C5.02539 12.2832 5.24272 12.0417 5.24272 11.7437C5.24272 11.4457 5.02539 11.2041 4.75729 11.2041C4.48919 11.2041 4.27185 11.4457 4.27185 11.7437C4.27185 12.0417 4.48919 12.2832 4.75729 12.2832Z" fill="black"/>
<path d="M3.3495 10.6646C3.64441 10.6646 3.88348 10.3989 3.88348 10.0711C3.88348 9.74327 3.64441 9.47754 3.3495 9.47754C3.05459 9.47754 2.81552 9.74327 2.81552 10.0711C2.81552 10.3989 3.05459 10.6646 3.3495 10.6646Z" fill="black"/>
<path d="M2.66991 8.29057C2.96481 8.29057 3.20389 8.02484 3.20389 7.69704C3.20389 7.36925 2.96481 7.10352 2.66991 7.10352C2.375 7.10352 2.13593 7.36925 2.13593 7.69704C2.13593 8.02484 2.375 8.29057 2.66991 8.29057Z" fill="black"/>
<path d="M3.30097 6.13188C3.62269 6.13188 3.88349 5.84199 3.88349 5.4844C3.88349 5.1268 3.62269 4.83691 3.30097 4.83691C2.97925 4.83691 2.71844 5.1268 2.71844 5.4844C2.71844 5.84199 2.97925 6.13188 3.30097 6.13188Z" fill="black"/>
<path d="M4.75727 4.40531C5.07899 4.40531 5.33979 4.11543 5.33979 3.75783C5.33979 3.40024 5.07899 3.11035 4.75727 3.11035C4.43555 3.11035 4.17474 3.40024 4.17474 3.75783C4.17474 4.11543 4.43555 4.40531 4.75727 4.40531Z" fill="black"/>
<path d="M6.84475 3.86577C7.19328 3.86577 7.47582 3.55172 7.47582 3.16433C7.47582 2.77694 7.19328 2.46289 6.84475 2.46289C6.49622 2.46289 6.21368 2.77694 6.21368 3.16433C6.21368 3.55172 6.49622 3.86577 6.84475 3.86577Z" fill="black"/>
<path d="M8.93199 4.51274C9.30733 4.51274 9.6116 4.17454 9.6116 3.75735C9.6116 3.34016 9.30733 3.00195 8.93199 3.00195C8.55665 3.00195 8.25238 3.34016 8.25238 3.75735C8.25238 4.17454 8.55665 4.51274 8.93199 4.51274Z" fill="black"/>
<path d="M10.3883 6.13189C10.7636 6.13189 11.0679 5.79368 11.0679 5.37649C11.0679 4.9593 10.7636 4.62109 10.3883 4.62109C10.013 4.62109 9.70868 4.9593 9.70868 5.37649C9.70868 5.79368 10.013 6.13189 10.3883 6.13189Z" fill="black"/>
<path d="M11.0195 8.50542C11.4217 8.50542 11.7477 8.14306 11.7477 7.69607C11.7477 7.24908 11.4217 6.88672 11.0195 6.88672C10.6174 6.88672 10.2914 7.24908 10.2914 7.69607C10.2914 8.14306 10.6174 8.50542 11.0195 8.50542Z" fill="black"/>
<path d="M5.82516 6.23929C6.09326 6.23929 6.3106 5.99772 6.3106 5.69972C6.3106 5.40173 6.09326 5.16016 5.82516 5.16016C5.55706 5.16016 5.33972 5.40173 5.33972 5.69972C5.33972 5.99772 5.55706 6.23929 5.82516 6.23929Z" fill="black"/>
<path d="M7.9127 6.34721C8.20761 6.34721 8.44668 6.08148 8.44668 5.75368C8.44668 5.42589 8.20761 5.16016 7.9127 5.16016C7.61779 5.16016 7.37872 5.42589 7.37872 5.75368C7.37872 6.08148 7.61779 6.34721 7.9127 6.34721Z" fill="black"/>
<path d="M8.88347 8.29057C9.17838 8.29057 9.41745 8.02484 9.41745 7.69704C9.41745 7.36925 9.17838 7.10352 8.88347 7.10352C8.58856 7.10352 8.34949 7.36925 8.34949 7.69704C8.34949 8.02484 8.58856 8.29057 8.88347 8.29057Z" fill="black"/>
</svg>
