<svg width="100" height="100" viewBox="0 0 100 100" fill="none" xmlns="http://www.w3.org/2000/svg">
<path d="M42.5 79H15V36H80V41.5C80 41.8978 80.158 42.2794 80.4393 42.5607C80.7206 42.842 81.1022 43 81.5 43C81.8978 43 82.2794 42.842 82.5607 42.5607C82.842 42.2794 83 41.8978 83 41.5V20.5C83 20.1022 82.842 19.7206 82.5607 19.4393C82.2794 19.158 81.8978 19 81.5 19H13.5C13.1022 19 12.7206 19.158 12.4393 19.4393C12.158 19.7206 12 20.1022 12 20.5V80.5C12 80.8978 12.158 81.2794 12.4393 81.5607C12.7206 81.842 13.1022 82 13.5 82H42.5C42.8978 82 43.2794 81.842 43.5607 81.5607C43.842 81.2794 44 80.8978 44 80.5C44 80.1022 43.842 79.7206 43.5607 79.4393C43.2794 79.158 42.8978 79 42.5 79ZM80 22V33H15V22H80Z" fill="black"/>
<path d="M20.5 29H25.5C25.8978 29 26.2794 28.842 26.5607 28.5607C26.842 28.2794 27 27.8978 27 27.5C27 27.1022 26.842 26.7206 26.5607 26.4393C26.2794 26.158 25.8978 26 25.5 26H20.5C20.1022 26 19.7206 26.158 19.4393 26.4393C19.158 26.7206 19 27.1022 19 27.5C19 27.8978 19.158 28.2794 19.4393 28.5607C19.7206 28.842 20.1022 29 20.5 29Z" fill="black"/>
<path d="M31.5 29H36.5C36.8978 29 37.2794 28.842 37.5607 28.5607C37.842 28.2794 38 27.8978 38 27.5C38 27.1022 37.842 26.7206 37.5607 26.4393C37.2794 26.158 36.8978 26 36.5 26H31.5C31.1022 26 30.7206 26.158 30.4393 26.4393C30.158 26.7206 30 27.1022 30 27.5C30 27.8978 30.158 28.2794 30.4393 28.5607C30.7206 28.842 31.1022 29 31.5 29Z" fill="black"/>
<path d="M67 57C65.0222 57 63.0888 57.5865 61.4443 58.6853C59.7998 59.7841 58.5181 61.3459 57.7612 63.1732C57.0043 65.0004 56.8063 67.0111 57.1922 68.9509C57.578 70.8907 58.5304 72.6725 59.9289 74.0711C61.3275 75.4696 63.1093 76.422 65.0491 76.8079C66.9889 77.1937 68.9996 76.9957 70.8268 76.2388C72.6541 75.4819 74.2159 74.2002 75.3147 72.5557C76.4135 70.9112 77 68.9778 77 67C77 64.3478 75.9464 61.8043 74.0711 59.9289C72.1957 58.0536 69.6522 57 67 57ZM67 74C65.6155 74 64.2622 73.5895 63.111 72.8203C61.9599 72.0511 61.0627 70.9579 60.5329 69.6788C60.003 68.3997 59.8644 66.9922 60.1345 65.6344C60.4046 64.2765 61.0713 63.0292 62.0503 62.0503C63.0292 61.0713 64.2765 60.4046 65.6344 60.1345C66.9922 59.8644 68.3997 60.003 69.6788 60.5328C70.9579 61.0627 72.0511 61.9599 72.8203 63.111C73.5895 64.2622 74 65.6155 74 67C74 68.8565 73.2625 70.637 71.9498 71.9497C70.637 73.2625 68.8565 74 67 74Z" fill="black"/>
<path d="M89.72 61.65L84 60.78C83.708 59.8834 83.3469 59.0108 82.92 58.17L86.36 53.5C86.5863 53.2069 86.6961 52.8405 86.6684 52.4712C86.6407 52.102 86.4774 51.7561 86.21 51.5L81.45 46.74C81.1939 46.4726 80.848 46.3093 80.4788 46.2816C80.1095 46.2539 79.7431 46.3637 79.45 46.59L74.8 50.02C73.9638 49.6148 73.0979 49.2739 72.21 49L71.35 43.3C71.3017 42.9412 71.1253 42.6119 70.8533 42.373C70.5813 42.1341 70.232 42.0016 69.87 42H63.13C62.7709 42.0009 62.4241 42.1306 62.1526 42.3655C61.881 42.6003 61.7027 42.9248 61.65 43.28L60.79 49C59.8864 49.2946 59.0071 49.659 58.16 50.09L53.51 46.66C53.2169 46.4337 52.8505 46.3239 52.4812 46.3516C52.112 46.3793 51.7661 46.5426 51.51 46.81L46.75 51.57C46.4826 51.8261 46.3193 52.172 46.2916 52.5412C46.2639 52.9105 46.3737 53.2769 46.6 53.57L50.04 58.24C49.6301 59.0594 49.2824 59.9084 49 60.78L43.26 61.65C42.9085 61.707 42.5887 61.8872 42.3579 62.1583C42.127 62.4295 42.0002 62.7739 42 63.13V69.87C42.0009 70.2291 42.1306 70.5759 42.3655 70.8475C42.6003 71.119 42.9248 71.2973 43.28 71.35L49.05 72.22C49.3409 73.0994 49.6986 73.9552 50.12 74.78L46.65 79.48C46.4238 79.7731 46.3139 80.1395 46.3416 80.5088C46.3693 80.878 46.5326 81.2239 46.8 81.48L51.56 86.24C51.8161 86.5074 52.162 86.6707 52.5312 86.6984C52.9005 86.7261 53.2669 86.6162 53.56 86.39L58.28 82.91C59.0991 83.3233 59.9482 83.6743 60.82 83.96L61.7 89.76C61.7596 90.0995 61.9343 90.4082 62.1947 90.634C62.4552 90.8599 62.7855 90.9891 63.13 91H69.87C70.2291 90.9991 70.5759 90.8694 70.8475 90.6346C71.119 90.3997 71.2973 90.0752 71.35 89.72L72.23 83.92C73.1018 83.6342 73.9509 83.2832 74.77 82.87L79.49 86.35C79.7831 86.5762 80.1495 86.6861 80.5188 86.6584C80.888 86.6307 81.2339 86.4674 81.49 86.2L86.25 81.44C86.5174 81.1839 86.6807 80.838 86.7084 80.4688C86.7361 80.0995 86.6263 79.7331 86.4 79.44L82.93 74.74C83.3495 73.9281 83.7072 73.0857 84 72.22L89.77 71.35C90.116 71.2867 90.4288 71.1038 90.6536 70.8332C90.8785 70.5627 91.0011 70.2218 91 69.87V63.13C90.9991 62.7709 90.8694 62.4241 90.6346 62.1526C90.3997 61.881 90.0752 61.7027 89.72 61.65ZM88 68.58L82.57 69.4C82.283 69.4441 82.0149 69.5706 81.7983 69.764C81.5818 69.9575 81.426 70.2097 81.35 70.49C81.0016 71.7746 80.4873 73.0083 79.82 74.16C79.6739 74.4125 79.6046 74.7021 79.6206 74.9934C79.6366 75.2847 79.7372 75.565 79.91 75.8L83.18 80.23L80.24 83.17L75.79 79.89C75.555 79.7171 75.2747 79.6166 74.9834 79.6006C74.6921 79.5846 74.4025 79.6539 74.15 79.8C73.0038 80.4592 71.7769 80.9668 70.5 81.31C70.2197 81.386 69.9675 81.5418 69.774 81.7583C69.5805 81.9749 69.4541 82.243 69.41 82.53L68.58 88H64.42L63.59 82.53C63.5459 82.243 63.4195 81.9749 63.226 81.7583C63.0325 81.5418 62.7803 81.386 62.5 81.31C61.2231 80.9667 59.9962 80.4591 58.85 79.8C58.5975 79.6539 58.3079 79.5846 58.0166 79.6006C57.7253 79.6166 57.445 79.7171 57.21 79.89L52.76 83.17L49.82 80.23L53.1 75.8C53.2729 75.565 53.3734 75.2847 53.3894 74.9934C53.4054 74.7021 53.3361 74.4125 53.19 74.16C52.5227 73.0083 52.0084 71.7746 51.66 70.49C51.584 70.2097 51.4282 69.9575 51.2117 69.764C50.9951 69.5706 50.727 69.4441 50.44 69.4L45 68.58V64.42L50.41 63.6C50.7001 63.557 50.9712 63.4298 51.1898 63.2343C51.4085 63.0388 51.565 62.7835 51.64 62.5C51.9846 61.2014 52.499 59.954 53.17 58.79C53.3161 58.5375 53.3854 58.2479 53.3694 57.9566C53.3534 57.6653 53.2529 57.385 53.08 57.15L49.84 52.76L52.78 49.82L57.16 53.05C57.395 53.2229 57.6753 53.3234 57.9666 53.3394C58.2579 53.3554 58.5475 53.2861 58.8 53.14C59.9693 52.4607 61.2236 51.9394 62.53 51.59C62.8135 51.515 63.0688 51.3585 63.2643 51.1399C63.4598 50.9212 63.587 50.6501 63.63 50.36L64.42 45H68.58L69.39 50.37C69.433 50.6601 69.5602 50.9312 69.7557 51.1498C69.9512 51.3685 70.2065 51.525 70.49 51.6C71.7964 51.9494 73.0507 52.4707 74.22 53.15C74.4721 53.2974 74.762 53.3674 75.0535 53.3514C75.3451 53.3354 75.6255 53.2341 75.86 53.06L80.24 49.83L83.18 52.77L79.94 57.16C79.7672 57.395 79.6666 57.6753 79.6506 57.9666C79.6346 58.2579 79.7039 58.5475 79.85 58.8C80.521 59.964 81.0354 61.2114 81.38 62.51C81.455 62.7935 81.6115 63.0488 81.8301 63.2443C82.0488 63.4398 82.3199 63.567 82.61 63.61L88.02 64.43L88 68.58Z" fill="black"/>
</svg>
