<svg width="118" height="120" viewBox="0 0 118 120" fill="none" xmlns="http://www.w3.org/2000/svg">
<rect x="1.81531" y="20.2335" width="99" height="99" rx="3.5" transform="rotate(-10 1.81531 20.2335)" fill="#F5F5F5" stroke="#6F7172"/>
<path d="M49.3469 64.4007C47.4411 64.0733 45.5069 63.9879 43.5443 64.1444C41.6655 64.2388 39.7447 64.3642 37.7821 64.5207C39.5771 64.4886 41.414 64.4253 43.2929 64.3309C45.2636 64.2204 47.1681 64.4058 49.0063 64.8873C48.8548 65.1035 48.6994 65.2968 48.5399 65.4671C48.3803 65.6373 48.2087 65.7387 48.0248 65.7711C47.3814 65.8846 46.7488 65.925 46.1271 65.8925C45.4972 65.814 44.8376 65.8355 44.1482 65.9571L44.0024 65.1299C43.7807 65.2163 43.463 65.296 43.0494 65.369C41.9005 65.5716 40.7461 65.6092 39.5864 65.482C38.4267 65.3548 37.2724 65.3925 36.1235 65.5951C35.526 65.7004 34.9637 65.8707 34.4365 66.1058L34.4851 66.3815C35.972 66.2141 37.494 66.1116 39.0511 66.074C40.6461 65.9823 42.2762 65.9555 43.9414 65.9936C42.4303 66.0231 40.8082 66.0959 39.0754 66.2119C37.3885 66.3198 35.8097 66.5034 34.3391 66.7627C33.7416 66.868 33.1712 66.9923 32.6278 67.1355C32.1223 67.2246 31.6208 67.3368 31.1234 67.4719C31.2936 68.437 31.5151 69.5589 31.7879 70.8376C32.0608 72.1163 32.3756 73.3639 32.7322 74.5805C33.0808 75.7511 33.428 76.7797 33.7739 77.6665C34.1198 78.5532 34.455 79.1101 34.7793 79.3373L35.6186 80.4687C36.4699 82.0719 38.4581 82.598 41.5832 82.0469C42.2726 81.9254 43.0836 81.6876 44.0163 81.3336C44.949 80.9796 45.8777 80.6026 46.8023 80.2027C47.7647 79.7486 48.6663 79.3527 49.5071 79.0149C50.3938 78.669 51.1589 78.4393 51.8023 78.3259C52.4457 78.2124 52.8296 78.2395 52.9539 78.4071C53.0783 78.5748 53.1688 78.8194 53.2255 79.1411C51.3358 79.7113 49.5353 80.3842 47.824 81.1598C46.3344 81.8489 44.8745 82.438 43.4444 82.9271C44.8745 82.438 46.3195 81.8989 47.7794 81.3098C49.4988 80.5801 51.2574 79.9383 53.0552 79.3844C53.0119 79.6764 52.9983 79.8683 53.0145 79.9602C53.0632 80.236 53.2186 80.4455 53.4808 80.5888L54.4216 80.2808C54.6892 80.1862 54.9609 80.1146 55.2367 80.066C55.5043 79.9714 55.7449 79.8579 55.9585 79.7254C56.8263 79.8094 57.4453 79.9608 57.8156 80.1799C58.2319 80.3908 58.4684 80.6571 58.5251 80.9788C58.6305 81.5762 58.4047 82.0425 57.8478 82.3777C57.3368 82.7047 56.8731 83.1656 56.4567 83.7602L56.181 83.8088C54.8482 84.0438 53.5816 84.3856 52.3813 84.8342C51.1728 85.2369 49.9685 85.6625 48.7681 86.111C47.6137 86.5515 46.4134 87.0001 45.1671 87.4568C43.9586 87.8594 42.688 88.1782 41.3553 88.4133L40.3902 88.5834L39.9765 88.6564C40.8659 88.5943 41.8162 88.4741 42.8272 88.2959C44.1141 88.069 45.2968 87.7893 46.3755 87.457C47.5001 87.1165 48.5747 86.7612 49.5993 86.391C50.624 86.0207 51.6067 85.6816 52.5475 85.3736C53.5342 85.0574 54.5331 84.8102 55.5442 84.6319C54.8737 85.1292 54.0424 85.6549 53.0502 86.209C52.0499 86.7171 50.9266 87.1994 49.6803 87.6561C48.4421 88.1588 47.1458 88.6006 45.7913 88.9816C44.445 89.4085 43.1055 89.7395 41.7727 89.9745C40.8536 90.1366 39.9493 90.2486 39.0599 90.3107C38.1705 90.3727 37.1757 90.2401 36.0755 89.9129L35.8728 89.1667C35.1889 89.0504 34.4266 88.7583 33.5859 88.2905C32.7831 87.7687 32.0222 87.2157 31.3032 86.6317C30.5842 86.0477 29.9652 85.4934 29.4462 84.9689C28.9273 84.4444 28.6516 84.0902 28.6192 83.9064L28.303 83.3224C27.7354 82.5222 27.2205 81.6178 26.7584 80.6094C26.3422 79.5929 25.972 78.5683 25.6477 77.5356C25.3154 76.4569 25.0101 75.3972 24.7318 74.3563C24.4535 73.3155 24.2103 72.3396 24.0023 71.4285C23.6429 69.9281 23.3066 68.4237 22.9932 66.9152C22.6717 65.3607 22.3732 63.8022 22.0977 62.2397C21.8222 60.6771 21.5467 59.1145 21.2711 57.552C21.0335 55.9353 20.7728 54.3228 20.4892 52.7143L20.2824 52.7507C20.3605 54.5376 20.5184 56.2394 20.7561 57.856C21.0397 59.4645 21.3234 61.0731 21.607 62.6816L22.081 65.3701C22.6483 68.5871 23.4007 71.9137 24.3383 75.3498C25.3218 78.7777 26.8177 82.0206 28.8258 85.0783C27.4527 83.4723 26.4744 81.8205 25.8907 80.1227C25.2989 78.379 24.7544 76.7691 24.2572 75.293C23.633 73.3654 23.0899 71.4946 22.6279 69.6806C22.2118 67.8585 21.8336 65.9824 21.4933 64.0522L21.238 62.6045C20.768 59.9389 20.3588 57.2153 20.0105 54.4335C19.6621 51.6517 19.5612 48.6605 19.7076 45.4598C19.4318 45.5084 19.2697 45.3948 19.221 45.1191C19.1724 44.8433 19.2414 44.4284 19.428 43.8742C19.6606 43.312 19.9661 42.7605 20.3447 42.2199C20.7151 41.6333 21.1477 41.1306 21.6425 40.7116C22.1751 40.2386 22.7172 39.9535 23.2687 39.8563L39.6756 36.9633C41.4327 36.9852 43.1358 36.9692 44.7849 36.9153C46.4717 36.8074 48.2195 36.6414 50.028 36.4173L50.2387 38.015C50.2873 38.2907 50.1899 38.5448 49.9466 38.7773C49.7411 38.9557 49.2018 39.1219 48.3286 39.2758C48.0528 39.3245 47.7082 39.3852 47.2945 39.4582C46.9188 39.477 46.497 39.504 46.0294 39.5391L46.1388 40.1595C48.096 40.2409 49.6557 40.4871 50.8181 40.8982C52.0265 41.3011 52.6792 41.7784 52.7765 42.3299C52.8899 42.9733 52.3384 43.4733 51.1218 43.83C49.9512 44.1785 48.3549 44.5311 46.3327 44.8877C43.7591 45.3415 41.0017 45.8277 38.0604 46.3463C35.1569 46.8109 32.3292 47.1673 29.5772 47.4156L28.4053 47.6223C28.4834 49.4092 28.6386 51.2299 28.8708 53.0844C29.103 54.9389 29.3664 56.8354 29.6607 58.7737C30.3961 58.644 31.1044 58.4955 31.7856 58.3279C32.5047 58.1064 33.2549 57.9267 34.0362 57.7889C34.6796 57.6755 35.4271 57.6148 36.2787 57.6068C37.1681 57.5447 38.0885 57.5246 39.0401 57.5463C40.0376 57.56 41.0203 57.6237 41.9881 57.7373C42.9937 57.7969 43.9115 57.8957 44.7414 58.0337C44.8873 58.0554 45.0522 58.05 45.2361 58.0176L46.408 57.8109C47.0054 57.7056 47.4123 57.7286 47.6285 57.88C47.8907 58.0234 48.0705 58.3708 48.1677 58.9222C47.3864 59.06 46.643 59.1437 45.9374 59.1733C45.2319 59.203 44.5493 59.2286 43.8896 59.2501C44.5736 59.3664 45.2724 59.4328 45.986 59.4491C46.6916 59.4195 47.4431 59.3817 48.2406 59.3359C48.1892 59.5819 48.1568 59.8008 48.1432 59.9928C48.1756 60.1766 48.204 60.3374 48.2283 60.4753C48.7041 60.4862 49.0433 60.6633 49.246 61.0067C49.4866 61.296 49.6433 61.6474 49.7163 62.061C49.8216 62.6585 49.7688 63.1653 49.5579 63.5816C49.3849 63.9438 49.3145 64.2169 49.3469 64.4007ZM26.4548 76.4692C26.8332 77.5398 27.2507 78.6982 27.7073 79.9445C28.2019 81.1368 28.8113 82.3087 29.5357 83.4605C30.2978 84.5581 31.2317 85.5544 32.3372 86.4494C33.2265 87.1929 34.3213 87.7581 35.6215 88.1448C34.1132 87.6526 32.8089 86.8401 31.7088 85.7072C30.4222 84.3229 29.31 82.7184 28.3722 80.8935C27.4804 79.0605 26.7062 77.0883 26.0495 74.9769C25.4389 72.8574 24.8904 70.8218 24.4041 68.8699C24.6688 70.1026 24.9606 71.3543 25.2794 72.6249C25.5982 73.8955 25.99 75.177 26.4548 76.4692ZM40.8646 59.4281C41.6702 59.4282 42.5177 59.3972 43.4071 59.3352C42.5393 59.2513 41.7297 59.2282 40.9782 59.2659C40.2185 59.2577 39.4548 59.2265 38.6871 59.1723C39.3332 59.3427 40.059 59.428 40.8646 59.4281ZM34.5427 89.6856C33.8966 89.5152 33.3114 89.2867 32.787 89C32.4167 88.781 32.0693 88.5579 31.7449 88.3308C32.0693 88.5579 32.4356 88.754 32.8438 88.9189C33.4141 89.1975 33.9804 89.453 34.5427 89.6856ZM36.4406 88.3558L35.7716 88.1894L36.4406 88.3558ZM65.1483 80.1663C65.1078 79.9365 65.1281 79.6486 65.2093 79.3026C65.2904 78.9566 65.2986 78.5998 65.2338 78.2321C65.1772 77.1048 65.1313 76.3073 65.0962 75.8397C65.0531 75.326 64.999 74.8854 64.9342 74.5177C64.5939 72.5875 64.1603 70.5315 63.6334 68.3499C63.1444 66.1142 62.6487 63.9744 62.1461 61.9306C62.0327 61.2872 61.876 60.533 61.6761 59.6679C61.5221 58.7947 61.3546 58.1134 61.1735 57.6241C61.0278 55.9913 60.8631 54.3855 60.6795 52.8067C60.4959 51.2279 60.2623 49.6343 59.9787 48.0258L59.6748 46.3023C59.5694 45.7049 59.4411 45.1115 59.2898 44.5221C59.452 44.6357 59.602 44.6803 59.7399 44.656C59.9237 44.6236 60.0954 44.5223 60.2549 44.352C60.4604 44.1736 60.655 44.0682 60.8389 44.0358C61.1606 43.979 61.4741 44.2792 61.7795 44.9361C62.1308 45.585 62.5132 47.0813 62.9264 49.4251L63.5469 49.3157C63.3229 46.7016 63.3069 44.5957 63.4991 42.9981C63.7372 41.3923 64.109 40.5449 64.6146 40.4557C64.8444 40.4152 65.3012 40.8559 65.985 41.7778C66.6607 42.6538 67.1849 44.1488 67.5577 46.2629L68.0972 44.8883C68.4974 44.2017 68.9395 43.4841 69.4235 42.7353C69.9534 41.9784 70.5645 41.2784 71.2566 40.6351C71.9488 39.9918 72.749 39.4242 73.6574 38.9323C74.5577 38.3945 75.6283 38.0162 76.8691 37.7974C79.2589 37.376 81.4243 37.5628 83.3651 38.3579C85.3439 39.0988 87.0847 40.2372 88.5875 41.7729C90.0822 43.2626 91.3917 45.0457 92.516 47.122C93.6782 49.1442 94.6646 51.2448 95.4753 53.4238C96.2779 55.5569 96.9304 57.6453 97.433 59.6891C97.9355 61.7329 98.3164 63.4901 98.5758 64.9607C98.8108 66.2935 98.8607 67.114 98.7254 67.4221C98.6281 67.6762 98.3767 67.8627 97.9711 67.9816C97.2553 64.4591 96.3893 60.8919 95.3734 57.2801C94.3574 53.6683 92.8562 50.2606 90.8697 47.0569C92.7508 50.4687 94.1641 53.9157 95.1098 57.3977C96.0933 60.8256 96.8971 64.309 97.5211 67.8477C97.221 67.7585 96.9561 67.7341 96.7263 67.7746C96.5425 67.807 96.3938 67.9043 96.2802 68.0665C96.345 68.4342 96.4369 68.8208 96.5558 69.2263C96.6666 69.5858 96.7544 69.9495 96.8192 70.3171C96.93 70.6767 97.0137 71.0173 97.0705 71.339C96.9811 72.4447 96.8391 73.2516 96.6444 73.7598C96.4496 74.268 96.2374 74.5423 96.0076 74.5829C95.7319 74.6315 95.4818 74.5571 95.2575 74.3597C95.025 74.1164 94.7845 73.8271 94.5358 73.4919C94.3331 73.1485 94.1034 72.7862 93.8466 72.405C93.6277 71.9698 93.3439 71.5696 92.9952 71.2046C92.9494 70.4071 92.9089 69.7746 92.8738 69.3069C92.8307 68.7932 92.7807 68.3756 92.724 68.0539C92.5052 66.813 92.2188 65.3234 91.8649 63.5851C91.511 61.8469 91.0531 60.0558 90.491 58.2121C89.9669 56.3143 89.3089 54.4638 88.517 52.6605C87.7631 50.8032 86.8658 49.2082 85.8252 47.8753C84.8224 46.4883 83.6656 45.4366 82.3546 44.72C81.0354 43.9575 79.5716 43.718 77.9631 44.0017C76.8601 44.1961 75.9369 44.738 75.1933 45.6273C74.4957 46.5085 73.9265 47.5803 73.4857 48.8427C73.0909 50.097 72.7852 51.454 72.5687 52.9138C72.3441 54.3276 72.2034 55.6792 72.1464 56.9687C72.3332 55.609 72.5158 54.2262 72.6944 52.8205C72.919 51.4067 73.2328 50.0956 73.6357 48.8873C74.0847 47.6709 74.662 46.645 75.3677 45.8098C76.0652 44.9286 76.9655 44.3908 78.0685 44.1963C79.4932 43.9451 80.7799 44.121 81.9288 44.724C83.1236 45.3189 84.175 46.176 85.0832 47.2953C86.0373 48.4065 86.863 49.7299 87.5603 51.2655C88.2954 52.747 88.9237 54.2947 89.4452 55.9087C89.9586 57.4767 90.376 59.0379 90.6975 60.5924C91.0569 62.0928 91.3338 63.3945 91.5282 64.4975C91.6822 65.3707 91.8132 66.2479 91.9212 67.1292C92.0752 68.0024 92.2102 68.9026 92.3263 69.8299C91.6048 68.1564 90.963 66.3978 90.401 64.5541C89.8768 62.6563 89.3377 60.8085 88.7838 59.0107C88.2217 57.1669 87.607 55.4273 86.9395 53.7917C86.3098 52.102 85.5437 50.5786 84.6409 49.2214L85.0019 48.4469C84.356 47.4709 83.6857 46.7598 82.991 46.3137C82.3341 45.8135 81.7057 45.4741 81.1055 45.2956C80.5054 45.1171 79.9715 45.0454 79.5038 45.0805C79.0362 45.1156 78.7334 45.1453 78.5955 45.1696C77.4466 45.3722 76.4855 45.9681 75.7122 46.9574C74.9848 47.9386 74.4021 49.2024 73.9639 50.7486C73.5636 52.2408 73.2728 53.9506 73.0914 55.878C72.91 57.8055 72.8138 59.8127 72.8027 61.8997C72.7916 63.9866 72.8305 66.0885 72.9194 68.2052C73.0002 70.276 73.1067 72.2237 73.2389 74.0485L73.8593 73.9391C73.8136 72.336 73.7395 70.5721 73.637 68.6473C73.5805 66.7144 73.52 64.7585 73.4554 62.7797C73.4286 60.7468 73.46 58.7747 73.5495 56.8635C73.639 54.9522 73.8298 53.2127 74.122 51.6448C74.4601 50.0688 74.9388 48.7523 75.558 47.6954C76.1393 46.6926 76.9464 46.029 77.9791 45.7048C77.0085 46.1128 76.2718 46.9061 75.7688 48.0847C75.2279 49.3174 74.8236 50.7866 74.5557 52.4923C74.2879 54.1981 74.0943 56.0566 73.9751 58.0679C73.8937 60.0251 73.8232 61.9093 73.7634 63.7205L74.1594 74.0283C74.089 74.7042 74.0524 75.3029 74.0497 75.8247L74.0292 77.321C74.0183 77.7968 74.0155 78.3185 74.0208 78.8862C74.0181 79.4079 74.0085 80.0256 73.9922 80.7393L73.9313 81.603L73.5176 81.676L66.1418 80.5598C65.9039 80.5544 65.7079 80.5178 65.5538 80.4502C65.4457 80.3745 65.3105 80.2799 65.1483 80.1663ZM70.9076 42.6869C70.1262 43.6302 69.5408 44.6101 69.1514 45.6265C68.7998 46.5888 68.4753 47.5701 68.1778 48.5703L68.1899 48.6392C68.5983 47.193 69.2554 45.6792 70.1613 44.0979C71.0374 42.6166 72.3378 41.3922 74.0627 40.4246C73.4977 40.7138 72.9556 40.9989 72.4365 41.28C71.8336 41.6232 71.324 42.0922 70.9076 42.6869ZM78.7789 38.9533C78.541 38.9479 78.2152 38.9816 77.8016 39.0545C79.3371 39.1629 80.7887 39.3334 82.1566 39.5661C83.5163 39.7528 84.8841 40.3883 86.26 41.4725C85.2923 40.5532 84.1124 39.9083 82.7202 39.5378C81.374 39.1591 80.0602 38.9643 78.7789 38.9533ZM82.0259 46.4839C81.6096 46.273 81.1365 46.1431 80.6067 46.0944C80.1147 45.9916 79.4997 45.8631 78.7617 45.7089L78.6684 45.5832C79.4578 45.4914 80.1796 45.5537 80.8338 45.77C81.4799 45.9404 82.1435 46.3447 82.8246 46.9828L82.0259 46.4839ZM86.4221 41.5861C87.2033 42.2539 87.9588 43.0447 88.6886 43.9585C89.4183 44.8724 90.0589 45.6835 90.6103 46.3918C89.9643 45.4158 89.3576 44.5277 88.79 43.7274C88.2224 42.9272 87.4331 42.2134 86.4221 41.5861Z" fill="#E66A1B"/>
<rect x="94.6144" y="36.8718" width="10" height="29" transform="rotate(-10 94.6144 36.8718)" fill="#F5F5F5"/>
</svg>
