<svg width="40" height="40" viewBox="0 0 40 40" fill="none" xmlns="http://www.w3.org/2000/svg">
<g clip-path="url(#clip0_232_405)">
<path d="M32.4164 0.648403L1.70376 6.01836C1.05846 6.13119 0.627579 6.74138 0.741363 7.38125L6.15683 37.8358C6.27061 38.4757 6.88597 38.9029 7.53127 38.7901L38.2439 33.4202C38.8892 33.3073 39.3201 32.6971 39.2063 32.0573L33.7908 1.60271C33.6771 0.962834 33.0617 0.535576 32.4164 0.648403Z" stroke="#C5C5C5"/>
<path d="M16.4677 21.5253C15.8217 21.4153 15.166 21.3866 14.5007 21.4392C13.8638 21.4709 13.2127 21.5131 12.5474 21.5657C13.1559 21.5549 13.7786 21.5336 14.4155 21.5019C15.0835 21.4647 15.7291 21.527 16.3522 21.6889C16.3009 21.7616 16.2482 21.8265 16.1941 21.8838C16.14 21.941 16.0818 21.9751 16.0195 21.986C15.8014 22.0241 15.587 22.0377 15.3762 22.0268C15.1627 22.0004 14.9391 22.0076 14.7054 22.0485L14.656 21.7704C14.5809 21.7995 14.4732 21.8263 14.333 21.8508C13.9435 21.9189 13.5522 21.9316 13.1591 21.8888C12.7659 21.846 12.3747 21.8587 11.9852 21.9268C11.7827 21.9622 11.592 22.0194 11.4133 22.0985L11.4298 22.1912C11.9338 22.1349 12.4498 22.1004 12.9776 22.0878C13.5183 22.057 14.0709 22.0479 14.6353 22.0608C14.1231 22.0707 13.5732 22.0951 12.9858 22.1341C12.414 22.1704 11.8788 22.2321 11.3803 22.3193C11.1778 22.3547 10.9844 22.3965 10.8002 22.4446C10.6289 22.4746 10.4589 22.5123 10.2902 22.5577C10.3479 22.8821 10.423 23.2592 10.5155 23.689C10.608 24.1188 10.7147 24.5382 10.8356 24.9471C10.9538 25.3406 11.0715 25.6864 11.1887 25.9844C11.306 26.2825 11.4196 26.4697 11.5295 26.546L11.814 26.9264C12.1026 27.4652 12.7766 27.6421 13.8359 27.4569C14.0696 27.416 14.3446 27.336 14.6607 27.2171C14.9769 27.0981 15.2917 26.9713 15.6051 26.8369C15.9314 26.6843 16.237 26.5512 16.522 26.4377C16.8226 26.3214 17.0819 26.2442 17.3 26.2061C17.5181 26.1679 17.6483 26.1771 17.6904 26.2334C17.7326 26.2897 17.7633 26.372 17.7825 26.4801C17.1419 26.6717 16.5316 26.8979 15.9515 27.1586C15.4465 27.3903 14.9516 27.5883 14.4668 27.7527C14.9516 27.5883 15.4415 27.4071 15.9363 27.2091C16.5192 26.9638 17.1153 26.7481 17.7248 26.5619C17.7101 26.66 17.7055 26.7245 17.711 26.7554C17.7275 26.8481 17.7801 26.9185 17.869 26.9667L18.1879 26.8632C18.2787 26.8314 18.3708 26.8073 18.4642 26.791C18.555 26.7592 18.6365 26.721 18.7089 26.6765C19.0031 26.7047 19.2129 26.7556 19.3384 26.8293C19.4796 26.9001 19.5597 26.9897 19.579 27.0978C19.6147 27.2986 19.5381 27.4554 19.3493 27.568C19.1761 27.6779 19.019 27.8329 18.8778 28.0328L18.7843 28.0491C18.3326 28.1281 17.9032 28.243 17.4963 28.3938C17.0867 28.5291 16.6784 28.6721 16.2715 28.8229C15.8802 28.971 15.4733 29.1218 15.0508 29.2753C14.6412 29.4106 14.2104 29.5178 13.7587 29.5968L13.4315 29.654L13.2913 29.6785C13.5928 29.6576 13.9149 29.6173 14.2576 29.5573C14.6938 29.4811 15.0948 29.3871 15.4604 29.2753C15.8417 29.1609 16.2059 29.0415 16.5533 28.917C16.9006 28.7926 17.2337 28.6786 17.5527 28.575C17.8871 28.4688 18.2257 28.3857 18.5685 28.3257C18.3412 28.4929 18.0594 28.6696 17.7231 28.8558C17.384 29.0266 17.0032 29.1888 16.5807 29.3423C16.161 29.5112 15.7216 29.6597 15.2624 29.7878C14.806 29.9313 14.352 30.0426 13.9002 30.1216C13.5886 30.176 13.2821 30.2137 12.9806 30.2346C12.6791 30.2554 12.3419 30.2108 11.9689 30.1009L11.9002 29.85C11.6684 29.8109 11.41 29.7128 11.125 29.5555C10.8529 29.3801 10.5949 29.1943 10.3512 28.9979C10.1075 28.8016 9.89764 28.6153 9.7217 28.439C9.5458 28.2627 9.45235 28.1436 9.44136 28.0819L9.33414 27.8856C9.14177 27.6166 8.96723 27.3126 8.81058 26.9736C8.6695 26.6319 8.54401 26.2875 8.43408 25.9404C8.32143 25.5778 8.21791 25.2216 8.12357 24.8718C8.02926 24.5219 7.94682 24.1939 7.87631 23.8876C7.75448 23.3833 7.64048 22.8776 7.53425 22.3705C7.42526 21.848 7.32408 21.3242 7.23069 20.7989C7.1373 20.2737 7.04387 19.7485 6.95048 19.2232C6.86994 18.6798 6.78157 18.1378 6.68543 17.5971L6.61533 17.6094C6.6418 18.21 6.69533 18.782 6.77591 19.3255C6.87204 19.8661 6.96821 20.4068 7.06435 20.9475L7.22503 21.8512C7.41733 22.9326 7.67238 24.0507 7.99021 25.2057C8.3236 26.3579 8.83065 27.448 9.5114 28.4758C9.04594 27.936 8.71431 27.3807 8.51645 26.81C8.31584 26.2239 8.13126 25.6828 7.96272 25.1866C7.75113 24.5387 7.56703 23.9099 7.41042 23.3001C7.26936 22.6876 7.14116 22.057 7.02577 21.4082L6.93926 20.9216C6.77994 20.0256 6.64123 19.1101 6.52316 18.175C6.40506 17.24 6.37086 16.2345 6.42048 15.1586C6.32699 15.175 6.27204 15.1368 6.25553 15.0441C6.23906 14.9514 6.26245 14.8119 6.3257 14.6257C6.40455 14.4367 6.50811 14.2513 6.63645 14.0696C6.76201 13.8725 6.90865 13.7034 7.07638 13.5626C7.25692 13.4036 7.44069 13.3078 7.6276 13.2751L13.1893 12.3027C13.7849 12.31 14.3622 12.3047 14.9212 12.2866C15.4931 12.2503 16.0855 12.1945 16.6986 12.1191L16.77 12.6562C16.7865 12.7489 16.7535 12.8343 16.671 12.9124C16.6013 12.9724 16.4185 13.0283 16.1225 13.08C16.029 13.0964 15.9122 13.1168 15.772 13.1413C15.6446 13.1476 15.5016 13.1567 15.3431 13.1685L15.3802 13.377C16.0437 13.4044 16.5724 13.4871 16.9664 13.6253C17.376 13.7608 17.5973 13.9212 17.6303 14.1066C17.6687 14.3228 17.4818 14.4909 17.0694 14.6108C16.6726 14.728 16.1314 14.8465 15.4459 14.9663C14.5735 15.1189 13.6388 15.2823 12.6418 15.4566C11.6575 15.6128 10.699 15.7326 9.76611 15.8161L9.36882 15.8855C9.39533 16.4862 9.44794 17.0982 9.52665 17.7216C9.60536 18.3449 9.69462 18.9824 9.79441 19.6339C10.0437 19.5903 10.2838 19.5404 10.5147 19.4841C10.7585 19.4096 11.0128 19.3492 11.2776 19.3029C11.4957 19.2648 11.7491 19.2444 12.0378 19.2417C12.3393 19.2208 12.6513 19.214 12.9739 19.2214C13.312 19.2259 13.6451 19.2473 13.9732 19.2856C14.3141 19.3056 14.6252 19.3388 14.9065 19.3852C14.956 19.3925 15.0119 19.3906 15.0742 19.3797L15.4715 19.3103C15.674 19.2749 15.8119 19.2826 15.8852 19.3335C15.9741 19.3817 16.035 19.4985 16.068 19.6838C15.8031 19.7301 15.5511 19.7583 15.3119 19.7682C15.0728 19.7782 14.8414 19.7868 14.6178 19.794C14.8496 19.8332 15.0865 19.8554 15.3284 19.8609C15.5676 19.851 15.8223 19.8383 16.0927 19.8229C16.0753 19.9056 16.0643 19.9792 16.0597 20.0437C16.0707 20.1055 16.0803 20.1595 16.0885 20.2059C16.2498 20.2095 16.3648 20.2691 16.4335 20.3845C16.5151 20.4817 16.5682 20.5998 16.5929 20.7389C16.6286 20.9397 16.6107 21.1101 16.5392 21.25C16.4806 21.3718 16.4567 21.4635 16.4677 21.5253ZM8.70767 25.582C8.83591 25.9418 8.97743 26.3312 9.13225 26.7502C9.29991 27.1509 9.50648 27.5449 9.75201 27.932C10.0104 28.3009 10.327 28.6358 10.7017 28.9367C11.0032 29.1866 11.3743 29.3766 11.815 29.5066C11.3037 29.3411 10.8616 29.068 10.4887 28.6872C10.0526 28.2219 9.67553 27.6825 9.35763 27.0691C9.05533 26.453 8.79286 25.7901 8.57028 25.0804C8.3633 24.3679 8.17736 23.6837 8.01252 23.0276C8.10225 23.442 8.20116 23.8627 8.30923 24.2898C8.4173 24.7169 8.55011 25.1476 8.70767 25.582ZM13.5923 19.8539C13.8654 19.8539 14.1527 19.8435 14.4542 19.8226C14.16 19.7944 13.8856 19.7867 13.6308 19.7993C13.3733 19.7966 13.1144 19.7861 12.8542 19.7679C13.0732 19.8252 13.3193 19.8538 13.5923 19.8539ZM11.4493 30.0245C11.2303 29.9672 11.0319 29.8904 10.8542 29.794C10.7287 29.7204 10.6109 29.6454 10.5009 29.5691C10.6109 29.6454 10.7351 29.7113 10.8734 29.7668C11.0668 29.8604 11.2587 29.9463 11.4493 30.0245ZM21.8241 26.8247C21.8104 26.7475 21.8173 26.6507 21.8448 26.5344C21.8723 26.4181 21.8751 26.2981 21.8531 26.1745C21.8339 25.7956 21.8183 25.5276 21.8065 25.3704C21.7918 25.1977 21.7735 25.0496 21.7515 24.926C21.6362 24.2772 21.4892 23.5861 21.3106 22.8528C21.1448 22.1013 20.9768 21.382 20.8064 20.6951C20.768 20.4788 20.7149 20.2253 20.6471 19.9345C20.5949 19.641 20.5381 19.4119 20.4767 19.2475C20.4273 18.6986 20.3715 18.1589 20.3093 17.6282C20.247 17.0975 20.1678 16.5618 20.0717 16.0212L19.9687 15.4419C19.933 15.241 19.8895 15.0416 19.8382 14.8435C19.8932 14.8816 19.944 14.8967 19.9908 14.8885C20.0531 14.8776 20.1113 14.8435 20.1653 14.7863C20.235 14.7263 20.301 14.6909 20.3633 14.68C20.4723 14.6609 20.5786 14.7618 20.6821 14.9826C20.8012 15.2007 20.9308 15.7037 21.0709 16.4915L21.2813 16.4548C21.2053 15.576 21.1999 14.8682 21.2651 14.3312C21.3458 13.7914 21.4718 13.5066 21.6432 13.4766C21.7211 13.463 21.8759 13.6111 22.1077 13.921C22.3368 14.2155 22.5145 14.718 22.6409 15.4286L22.8237 14.9666C22.9594 14.7358 23.1093 14.4945 23.2733 14.2428C23.453 13.9885 23.6601 13.7531 23.8947 13.5369C24.1293 13.3207 24.4006 13.1299 24.7086 12.9645C25.0137 12.7837 25.3766 12.6566 25.7973 12.583C26.6074 12.4414 27.3414 12.5042 27.9993 12.7714C28.6701 13.0205 29.2601 13.4031 29.7696 13.9193C30.2763 14.4201 30.7202 15.0194 31.1013 15.7174C31.4953 16.3971 31.8296 17.1032 32.1044 17.8356C32.3765 18.5526 32.5977 19.2546 32.7681 19.9416C32.9384 20.6286 33.0675 21.2192 33.1554 21.7136C33.2351 22.1616 33.252 22.4374 33.2062 22.5409C33.1732 22.6263 33.0879 22.689 32.9505 22.729C32.7078 21.545 32.4143 20.3459 32.0699 19.1318C31.7255 17.9178 31.2166 16.7724 30.5432 15.6955C31.1809 16.8423 31.66 18.001 31.9806 19.1714C32.3139 20.3236 32.5864 21.4945 32.7979 22.684C32.6962 22.654 32.6064 22.6458 32.5285 22.6594C32.4662 22.6703 32.4158 22.703 32.3773 22.7576C32.3993 22.8811 32.4304 23.0111 32.4707 23.1474C32.5083 23.2683 32.538 23.3905 32.56 23.514C32.5976 23.6349 32.6259 23.7494 32.6452 23.8575C32.6149 24.2292 32.5668 24.5004 32.5007 24.6712C32.4347 24.8421 32.3628 24.9343 32.2849 24.9479C32.1914 24.9643 32.1067 24.9392 32.0306 24.8729C31.9518 24.7911 31.8702 24.6939 31.786 24.5812C31.7173 24.4658 31.6394 24.344 31.5523 24.2159C31.4781 24.0696 31.3819 23.9351 31.2637 23.8124C31.2482 23.5443 31.2345 23.3317 31.2226 23.1745C31.2079 23.0018 31.191 22.8614 31.1718 22.7533C31.0976 22.3362 31.0006 21.8355 30.8806 21.2512C30.7606 20.6669 30.6054 20.0649 30.4149 19.4451C30.2372 18.8072 30.0141 18.1852 29.7457 17.5791C29.4901 16.9548 29.186 16.4186 28.8332 15.9706C28.4933 15.5044 28.1012 15.1508 27.6567 14.91C27.2096 14.6537 26.7134 14.5732 26.1681 14.6685C25.7942 14.7339 25.4812 14.916 25.2292 15.2149C24.9927 15.5111 24.7998 15.8714 24.6503 16.2957C24.5165 16.7174 24.4129 17.1735 24.3395 17.6642C24.2634 18.1394 24.2157 18.5938 24.1963 19.0272C24.2596 18.5701 24.3216 18.1054 24.3821 17.6329C24.4582 17.1576 24.5646 16.7169 24.7012 16.3107C24.8534 15.9019 25.0491 15.5571 25.2883 15.2763C25.5248 14.9801 25.8299 14.7993 26.2038 14.7339C26.6868 14.6495 27.123 14.7086 27.5124 14.9113C27.9174 15.1113 28.2738 15.3994 28.5817 15.7756C28.9051 16.1491 29.185 16.594 29.4214 17.1101C29.6706 17.6081 29.8835 18.1284 30.0603 18.6709C30.2344 19.1979 30.3759 19.7227 30.4849 20.2452C30.6067 20.7496 30.7005 21.1871 30.7665 21.5579C30.8187 21.8514 30.8631 22.1462 30.8997 22.4425C30.9519 22.736 30.9976 23.0386 31.037 23.3503C30.7924 22.7878 30.5749 22.1967 30.3843 21.5769C30.2067 20.939 30.0239 20.3179 29.8361 19.7136C29.6456 19.0938 29.4372 18.5091 29.211 17.9593C28.9975 17.3913 28.7378 16.8792 28.4318 16.423L28.5541 16.1627C28.3352 15.8346 28.1079 15.5956 27.8725 15.4457C27.6498 15.2775 27.4368 15.1635 27.2333 15.1035C27.0299 15.0435 26.8489 15.0193 26.6904 15.0311C26.5319 15.0429 26.4292 15.0529 26.3825 15.0611C25.993 15.1292 25.6672 15.3295 25.4051 15.6621C25.1585 15.9919 24.961 16.4167 24.8124 16.9364C24.6768 17.438 24.5782 18.0127 24.5167 18.6606C24.4552 19.3085 24.4226 19.9831 24.4188 20.6847C24.415 21.3862 24.4282 22.0927 24.4584 22.8041C24.4858 23.5002 24.5219 24.1549 24.5667 24.7683L24.777 24.7315C24.7615 24.1927 24.7364 23.5997 24.7016 22.9528C24.6825 22.303 24.662 21.6456 24.6401 20.9805C24.631 20.2971 24.6416 19.6342 24.672 18.9918C24.7023 18.3494 24.767 17.7647 24.866 17.2376C24.9807 16.7079 25.1429 16.2654 25.3528 15.9101C25.5499 15.573 25.8235 15.35 26.1735 15.241C25.8445 15.3781 25.5948 15.6448 25.4243 16.041C25.2409 16.4553 25.1039 16.9492 25.0131 17.5225C24.9222 18.0959 24.8567 18.7206 24.8162 19.3967C24.7887 20.0545 24.7648 20.6879 24.7445 21.2967L24.8787 24.7615C24.8549 24.9887 24.8425 25.19 24.8415 25.3653L24.8346 25.8683C24.8309 26.0282 24.8299 26.2036 24.8317 26.3944C24.8308 26.5698 24.8276 26.7774 24.822 27.0173L24.8014 27.3076L24.6612 27.3321L22.1609 26.957C22.0802 26.9551 22.0138 26.9429 21.9616 26.9201C21.9249 26.8947 21.8791 26.8629 21.8241 26.8247ZM23.7764 14.2266C23.5115 14.5436 23.3131 14.873 23.1811 15.2147C23.0619 15.5381 22.9519 15.868 22.8511 16.2042L22.8552 16.2273C22.9936 15.7412 23.2163 15.2324 23.5234 14.7009C23.8204 14.2029 24.2612 13.7914 24.8459 13.4661C24.6544 13.5633 24.4707 13.6592 24.2947 13.7537C24.0903 13.8691 23.9176 14.0267 23.7764 14.2266ZM26.4446 12.9716C26.364 12.9698 26.2536 12.9811 26.1134 13.0056C26.6339 13.042 27.1259 13.0993 27.5896 13.1776C28.0506 13.2403 28.5142 13.4539 28.9806 13.8184C28.6526 13.5094 28.2526 13.2926 27.7807 13.168C27.3243 13.0408 26.879 12.9753 26.4446 12.9716ZM27.5453 15.5029C27.4042 15.432 27.2438 15.3884 27.0642 15.3719C26.8975 15.3374 26.689 15.2942 26.4388 15.2424L26.4072 15.2001C26.6748 15.1693 26.9195 15.1902 27.1412 15.2629C27.3602 15.3202 27.5852 15.4561 27.8161 15.6706L27.5453 15.5029ZM29.0356 13.8566C29.3004 14.081 29.5565 14.3468 29.8038 14.654C30.0512 14.9612 30.2684 15.2338 30.4553 15.4719C30.2363 15.1438 30.0306 14.8453 29.8382 14.5764C29.6458 14.3073 29.3783 14.0674 29.0356 13.8566Z" fill="#FF0000"/>
</g>
<defs>
<clipPath id="clip0_232_405">
<rect width="40" height="40" fill="white"/>
</clipPath>
</defs>
</svg>
